<svg width="19" height="14" viewBox="0 0 19 14" fill="none" xmlns="http://www.w3.org/2000/svg">
<path d="M11.6278 12.4244V10.4686C12.6603 10.3874 13.559 10.2399 14.3197 10.0225L14.3197 10.0225L14.323 10.0215C15.552 9.66116 16.5089 9.11639 17.1246 8.34691C17.7438 7.57526 18.041 6.63147 18.041 5.54836C18.041 4.46657 17.7445 3.52655 17.1246 2.76294C16.5084 1.98403 15.5507 1.43938 14.3213 1.0879C13.0851 0.725654 11.4856 0.55249 9.54101 0.55249C7.59642 0.55249 5.99694 0.725656 4.76067 1.08791C3.52974 1.43984 2.56875 1.98486 1.94447 2.76266L1.94397 2.76328C1.33271 3.52736 1.04102 4.46722 1.04102 5.54836C1.04102 6.62968 1.33275 7.57246 1.94196 8.34413L1.94192 8.34416L1.94651 8.3498C2.57031 9.11677 3.52976 9.66109 4.759 10.0216L4.76233 10.0225C5.52306 10.2399 6.42173 10.3874 7.45424 10.4686V12.4244V12.9244H7.95424H11.1278H11.6278V12.4244ZM13.1151 4.72133L13.1151 4.72138L13.121 4.72599C13.3414 4.89801 13.4708 5.1467 13.4708 5.54836C13.4708 5.94813 13.3423 6.20449 13.1179 6.38632C12.8449 6.59832 12.4235 6.77369 11.8125 6.87995C11.1854 6.98004 10.4297 7.03183 9.54101 7.03183C8.65291 7.03183 7.8827 6.98011 7.22729 6.87952C6.59941 6.77314 6.15066 6.59667 5.84707 6.37762C5.60886 6.1927 5.47903 5.93822 5.47903 5.54836C5.47903 5.15577 5.6103 4.90845 5.84613 4.73295L5.84763 4.73183C6.1484 4.50625 6.59505 4.32894 7.22462 4.23082L7.22462 4.23085L7.22983 4.22998C7.88356 4.12103 8.65281 4.06489 9.54101 4.06489C10.4297 4.06489 11.1843 4.12109 11.8093 4.22944L11.8093 4.22948L11.8157 4.23051C12.4267 4.32827 12.845 4.50389 13.1151 4.72133Z" fill="#A04544" stroke="white"/>
</svg>
