<svg width="158" height="222" viewBox="0 0 158 222" fill="none" xmlns="http://www.w3.org/2000/svg">
<path d="M37.8313 152.35C38.0885 151.545 38.2563 150.946 38.4742 150.365C40.135 145.904 41.6744 141.391 43.5067 137.002C46.8748 128.945 51.0108 121.297 55.9611 114.07C62.9687 103.842 72.0908 96.2083 83.3916 91.1029C88.6562 88.7213 93.9708 86.411 98.739 83.0704C102.146 80.6817 105.236 77.9863 107.165 74.2036C111.497 65.7005 110.047 56.2311 103.257 48.6122C102.989 48.3091 102.711 48.0168 102.436 47.7209C99.7534 44.8508 96.6853 42.8828 92.66 42.0913C88.0812 41.1929 83.6166 40.5832 79.1806 42.3195C73.3016 44.6191 68.1548 48.0596 63.8974 52.7479C61.0543 55.8817 58.2613 59.0584 55.4504 62.2208C55.3075 62.3812 55.1075 62.6094 55.1361 62.7769C55.3718 64.2494 54.3289 64.6451 53.2824 64.7699C50.8393 65.0623 48.3749 65.1443 45.9283 65.4152C44.6104 65.5614 43.1995 65.6719 42.0387 66.2317C39.6422 67.3904 37.417 66.6952 35.2847 65.8324C26.2305 62.1673 17.2192 58.3988 8.20787 54.6339C5.94344 53.6855 3.71828 52.6302 1.50385 51.5749C0.97524 51.3218 0.475206 50.9189 0.103753 50.4697C-0.0676876 50.2629 -0.00696919 49.721 0.143041 49.4286C0.432346 48.8724 1.01096 48.441 1.20383 47.867C2.36105 44.4515 4.16831 41.3961 6.51133 38.7008C20.2658 22.8924 36.7312 10.8882 56.5504 3.75771C64.601 0.859157 72.9587 -0.524162 81.57 0.181758C89.2348 0.809243 96.396 3.17657 103.043 6.92722C109.436 10.5353 115.504 14.7351 121.976 18.1863C129.395 22.1437 135.938 27.3597 142.985 31.8305C148.575 35.378 152.378 40.2695 154.968 46.1878C155.643 47.728 155.804 49.5178 156.046 51.2148C156.339 53.2434 156.186 55.3755 156.718 57.3292C158.472 63.7503 157.757 70.0358 156.207 76.3499C154.196 84.5286 150.728 92.0406 145.817 98.8502C142.349 103.66 138.706 108.355 134.949 112.944C130.563 118.299 124.919 122.089 118.583 124.762C104.004 130.913 93.4637 141.245 86.4418 155.288C86.1739 155.823 86.181 156.504 86.1239 157.121C86.0917 157.474 86.206 157.841 86.2203 158.205C86.2918 160.458 85.0381 161.745 82.8272 161.278C79.9449 160.672 77.1161 161.089 74.2624 161.246C72.3408 161.353 70.4585 161.356 68.5263 160.961C61.8115 159.588 55.2646 157.716 48.8535 155.277C46.3069 154.311 43.521 153.983 40.8565 153.317C39.7814 153.046 38.7385 152.643 37.8313 152.347V152.35ZM127.98 104.637C127.88 104.694 127.78 104.751 127.68 104.811C125.598 106.512 123.516 108.213 121.433 109.917C123.255 112.612 125.027 115.233 126.834 117.91C127.366 117.486 128.02 116.969 128.741 116.398C127.109 113.714 125.53 111.118 123.951 108.523C124.034 108.419 124.116 108.316 124.198 108.216C124.623 108.523 125.141 108.751 125.455 109.143C127.027 111.125 128.541 113.15 130.17 115.286C131.631 113.642 133.124 111.96 134.341 110.587C132.945 107.646 131.67 104.957 130.363 102.202C129.552 103.032 128.762 103.834 127.977 104.64L127.98 104.637ZM38.3778 64.6951C38.5778 63.8002 38.6528 63.1121 38.885 62.481C39.4814 60.8588 39.9957 59.1796 40.8137 57.6715C42.9067 53.8068 46.1426 50.8619 49.375 48.0239C58.7577 39.7775 69.3799 34.615 82.2951 36.0946C90.9171 37.0821 98.5104 40.4157 104.522 46.8403C112.465 55.3291 113.844 67.1194 108.079 76.5602C105.157 81.3448 100.818 84.5535 95.996 87.1276C91.7921 89.3737 87.449 91.3596 83.1773 93.4845C75.5803 97.2672 68.6513 101.952 63.0795 108.437C58.9899 113.197 55.4932 118.377 52.3644 123.807C48.2999 130.863 45.2247 138.357 42.4566 145.994C41.7637 147.905 40.9922 149.787 40.2601 151.68C42.9388 152.272 45.564 152.629 48.0356 153.441C54.8789 155.695 61.7615 157.77 68.8513 159.11C70.5943 159.438 71.4479 158.8 71.8586 157.064C72.5908 153.973 73.2016 150.81 74.3231 147.855C76.4197 142.346 80.3771 138.089 84.5238 134.029C90.7099 127.968 97.8818 123.204 105.086 118.47C111.029 114.566 117.051 110.733 122.673 106.398C134.634 97.1745 142.385 85.2559 144.349 70.0501C145.396 61.9462 144.674 53.9601 142.003 46.1842C139.72 39.5457 135.602 34.1337 130.484 29.506C121.301 21.2061 111.533 13.6513 100.55 7.82567C94.1244 4.41728 87.2704 2.36013 79.9378 2.02856C70.5585 1.6043 61.6079 3.51884 52.9752 7.01635C39.235 12.5817 27.2485 20.8816 16.3727 30.8323C12.1403 34.7041 8.10787 38.797 4.93265 43.6208C3.64685 45.5781 2.57535 47.6424 2.00388 50.0775C13.9118 55.4218 26.0341 60.0317 38.3778 64.6986V64.6951ZM71.2657 44.5264C69.0763 43.1395 67.119 41.8917 65.1439 40.6688C64.9689 40.5618 64.6474 40.544 64.4581 40.6296C62.8902 41.3177 61.3365 42.0414 59.4614 42.8971C61.3543 44.0166 62.908 44.9293 64.4546 45.8562C65.2832 46.3518 66.0368 46.9116 65.8761 48.2521C65.3796 48.0489 64.9796 47.9633 64.676 47.7458C62.9795 46.5229 61.3222 45.2501 59.6149 44.0451C59.2756 43.8027 58.6899 43.546 58.3899 43.6779C57.2576 44.1734 56.1969 44.8259 54.9361 45.514C55.5325 45.9489 55.7611 46.1165 55.9861 46.2841C57.7434 47.5747 59.5185 48.8368 61.2329 50.1809C61.5186 50.4055 61.5401 50.9688 61.6865 51.3753C61.2936 51.3325 60.7972 51.4216 60.5186 51.2184C58.4149 49.6711 56.3504 48.0667 54.1539 46.3875C53.1681 47.1683 52.0751 48.031 50.8715 48.983C51.2929 49.2789 51.5715 49.4892 51.868 49.6782C54.0074 51.0473 56.1576 52.4056 58.2899 53.7889C58.7292 54.0742 59.4828 54.3522 58.9256 55.0296C58.7577 55.2329 57.9398 55.1473 57.5969 54.9227C55.0861 53.2684 52.618 51.5428 50.0179 49.7566C49.3464 50.4019 48.5428 51.1756 47.6856 52.0027C50.7429 54.0242 53.686 55.9673 56.7112 57.9674C61.2793 53.411 65.2653 48.0275 71.2657 44.5264ZM146.417 59.8356C146.71 60.8018 146.707 62.0817 147.346 62.6771C149.607 64.7806 152.089 66.6381 154.468 68.6168C154.675 68.788 154.889 69.3014 154.804 69.3976C154.607 69.6258 154.171 69.8718 153.932 69.7969C153.332 69.6044 152.707 69.3334 152.239 68.9234C150.668 67.5437 149.157 66.0926 147.624 64.6701C147.389 64.4526 147.146 64.2387 146.778 63.9036C146.721 64.9446 146.649 65.7432 146.653 66.5419C146.653 66.8199 146.757 67.2014 146.957 67.3583C149.535 69.3941 152.143 71.3942 154.964 73.5797C155.3 70.813 155.607 68.2746 155.907 65.7753C152.003 64.7806 149.878 61.5291 146.421 59.8356H146.417ZM47.0248 52.6908C46.1497 53.6142 45.1747 54.6446 44.1746 55.6999C46.9498 57.3292 49.5893 58.8623 52.2109 60.4239C54.3217 61.6824 54.2289 61.9035 55.8075 59.5326C55.8504 59.4684 55.8611 59.3828 55.9254 59.1832C53.0181 57.0618 50.0822 54.9191 47.0248 52.6873V52.6908ZM88.6026 147.227C86.5418 144.311 84.5881 141.544 82.5986 138.724C81.8486 139.619 81.0593 140.557 80.4485 141.287C82.3093 144.457 84.0487 147.42 85.9703 150.689C86.9311 149.43 87.7133 148.4 88.6062 147.227H88.6026ZM89.2527 132.317C88.249 133.237 87.1632 134.228 86.0417 135.251C87.949 137.679 89.7777 140.008 91.6707 142.414C92.6208 141.309 93.4994 140.293 94.1209 139.573C92.4529 137.084 90.8992 134.77 89.2562 132.317H89.2527ZM113.569 115.393C114.529 116.659 115.472 117.767 116.265 118.976C117.058 120.185 117.697 121.49 118.444 122.823C119.462 122.31 120.53 121.768 121.494 121.279C119.969 118.491 118.494 115.792 116.994 113.051C115.851 113.831 114.754 114.58 113.565 115.393H113.569ZM120.676 110.377C119.708 111.086 118.837 111.728 117.865 112.441C119.54 115.158 121.173 117.807 122.869 120.559C123.705 120.014 124.573 119.447 125.441 118.883C123.855 116.053 122.308 113.289 120.676 110.377ZM155.846 64.2565C155.711 62.9944 155.625 62.0104 155.486 61.0335C155.457 60.8374 155.268 60.6128 155.089 60.5023C152.928 59.1226 150.753 57.7606 148.585 56.3916C147.835 55.9174 147.085 55.4396 146.142 54.8442C146.264 55.978 146.321 56.7802 146.453 57.5717C146.499 57.8569 146.653 58.2134 146.874 58.3667C149.189 59.9675 151.521 61.5434 153.861 63.1085C154.411 63.4757 155.011 63.7752 155.85 64.2601L155.846 64.2565ZM140.328 102.936C138.899 100.383 137.545 97.9696 136.145 95.4703C135.606 96.1442 135.188 96.7859 134.656 97.3064C133.916 98.0302 133.952 98.6791 134.484 99.5169C135.238 100.704 135.874 101.963 136.549 103.196C137.006 104.031 137.445 104.875 137.956 105.838C138.82 104.779 139.574 103.856 140.328 102.932V102.936ZM113.104 116.12C111.958 116.737 110.915 117.3 110.004 117.789C111.572 120.078 113.076 122.277 114.619 124.534C115.372 124.188 116.137 123.839 117.151 123.376C115.733 120.837 114.369 118.391 113.104 116.12ZM139.206 91.7732C138.992 91.8623 138.777 91.9514 138.563 92.0406C138.074 92.7251 137.549 93.3882 137.117 94.1084C136.967 94.358 136.92 94.8429 137.063 95.0639C138.488 97.2423 139.963 99.385 141.456 101.588C141.799 101.171 142.046 100.79 142.371 100.497C143.149 99.7914 143.013 99.1746 142.474 98.3332C141.674 97.0854 141.06 95.7163 140.399 94.3829C139.974 93.5273 139.603 92.6431 139.206 91.7696V91.7732ZM83.4023 137.897C85.3881 140.592 87.324 143.216 89.2562 145.84C89.7277 145.145 90.2599 144.361 90.6635 143.769C88.8169 141.098 87.0775 138.581 85.2845 135.982C84.6131 136.667 84.0309 137.259 83.4058 137.897H83.4023ZM96.5639 126.666C98.089 128.805 99.5784 130.888 101.125 133.052C101.571 132.709 101.95 132.424 102.325 132.132C102.693 131.843 103.054 131.547 103.361 131.301C102.857 130.602 102.357 130.021 101.982 129.365C101.464 128.46 101.114 127.451 100.561 126.57C99.5784 125.001 99.0176 124.919 97.5532 125.932C97.2282 126.156 96.921 126.399 96.5639 126.666ZM135.413 109.093C135.634 108.822 135.877 108.444 136.195 108.145C136.87 107.503 136.899 106.908 136.445 106.063C135.72 104.719 135.213 103.257 134.57 101.866C134.159 100.979 133.666 100.13 133.163 99.1675C132.391 100.041 131.759 100.758 131.098 101.503C132.563 104.08 133.988 106.587 135.413 109.093ZM145.589 50.5552C145.51 50.6444 145.431 50.7371 145.353 50.8262C145.492 51.5321 145.581 52.2559 145.796 52.9404C145.899 53.2684 146.192 53.6107 146.492 53.7925C147.696 54.5198 148.942 55.1723 150.16 55.8746C151.732 56.7837 153.293 57.7143 154.864 58.6412C154.957 56.8693 154.325 55.7463 152.768 54.9156C150.3 53.6035 147.975 52.0206 145.592 50.5552H145.589ZM142.403 84.9207C141.428 86.1401 141.295 87.395 142.381 88.814C143.181 89.8622 143.706 91.1172 144.41 92.2473C144.949 93.1173 145.578 93.9301 146.242 94.8785C146.599 94.333 146.814 93.9444 147.085 93.5986C147.746 92.7536 147.703 92.0905 146.978 91.1885C145.367 89.1884 143.935 87.0456 142.403 84.9207ZM92.6422 129.547C92.335 129.789 91.91 130.214 91.4064 130.503C90.4206 131.069 90.4349 131.747 91.0385 132.563C92.46 134.474 93.878 136.389 95.3209 138.328C95.9031 137.751 96.4639 137.198 96.9389 136.727C95.4745 134.282 94.0851 131.957 92.6422 129.547ZM153.875 50.049C153.728 48.5052 153.443 47.5604 151.989 46.9543C148.935 45.6815 146.01 44.0986 142.774 42.5192C143.36 44.915 143.371 44.8865 145.124 45.7136C146.974 46.5907 148.796 47.5283 150.628 48.441C151.628 48.9402 152.632 49.4322 153.875 50.049ZM153.968 77.4373C150.385 76.6137 149.046 73.1055 145.971 71.2337C146.046 72.2534 145.796 73.3194 146.214 73.7793C148.346 76.1146 150.65 78.2965 152.996 80.6317C153.35 79.473 153.661 78.4462 153.968 77.4408V77.4373ZM84.2952 153.288C84.4416 153.27 84.5845 153.249 84.7309 153.231C84.7559 152.607 84.9988 151.883 84.7631 151.384C84.0487 149.865 83.138 148.443 82.3236 146.97C81.4807 145.452 80.6557 143.922 79.7127 142.193C79.0305 143.241 78.5305 144.004 78.1412 144.6C80.2628 147.594 82.2808 150.443 84.2952 153.288ZM110.826 126.534C111.629 126.082 112.326 125.693 112.915 125.361C111.847 123.215 110.847 121.129 109.743 119.097C109.6 118.833 108.858 118.691 108.483 118.798C107.84 118.98 107.265 119.404 106.743 119.682C107.504 120.976 108.15 122.089 108.811 123.19C109.465 124.288 110.129 125.379 110.829 126.534H110.826ZM99.7177 124.499C102.189 125.914 102.9 128.513 104.307 130.659C105.004 130.178 105.757 129.658 106.415 129.205C105.125 126.959 103.882 124.787 102.729 122.78C101.736 123.347 100.736 123.918 99.7177 124.499ZM93.5565 128.852C95.1316 131.091 96.6639 133.269 98.2497 135.522C98.9712 134.888 99.4712 134.446 99.932 134.036C98.5354 131.683 97.2103 129.447 95.846 127.144C95.0673 127.725 94.428 128.199 93.553 128.852H93.5565ZM143.767 81.2414C143.371 82.3003 143.028 83.213 142.774 83.8939C144.753 86.3326 146.599 88.6072 148.539 90.9959C148.992 90.1011 149.332 89.4379 149.607 88.9031C148.492 87.6089 147.421 86.4788 146.482 85.2487C145.542 84.0187 144.735 82.6853 143.767 81.2414ZM107.7 128.281C108.279 127.957 109.029 127.533 109.765 127.119C107.643 125.283 107.482 122.456 106.157 120.666C105.172 121.147 104.279 121.582 103.443 121.989C104.911 124.16 106.282 126.185 107.697 128.281H107.7ZM138.735 35.5562C139.52 37.2818 140.531 38.3371 142.485 38.6437C144.649 38.9824 146.735 39.8417 148.853 40.4691C148.975 40.5048 149.11 40.5012 149.31 40.5226C147.492 37.2497 144.428 36.7149 138.731 35.5527L138.735 35.5562ZM144.06 98.0587C145.51 96.3723 145.456 96.4116 144.228 94.8571C143.538 93.9836 143.017 92.9675 142.499 91.9728C141.896 90.8141 141.378 89.6126 140.749 88.265C140.131 89.3595 139.613 90.2793 139.295 90.8391C140.978 93.3882 142.492 95.6807 144.064 98.0551L144.06 98.0587ZM77.1804 146.382C76.3232 147.519 76.3268 147.655 77.5662 149.291C78.5877 150.639 79.5627 152.022 80.6307 153.331C81.5843 154.497 82.6415 155.577 83.7809 156.843C84.0595 155.741 84.188 155.014 83.2665 154.408C82.7594 154.072 82.4594 153.424 82.0736 152.91C80.4056 150.689 78.7412 148.468 77.1804 146.386V146.382ZM65.9582 40.1911C68.1012 41.3355 70.1978 42.4514 72.4801 43.6672C72.9801 43.3677 73.7159 42.9256 74.4945 42.4586C69.4156 38.3229 69.4799 38.6402 65.9582 40.1911ZM151.003 85.8869C149.014 83.1488 147.049 80.4428 145.031 77.6619C144.049 79.6941 144.078 79.7654 145.339 81.2236C145.917 81.8938 146.378 82.6604 146.932 83.352C148.003 84.6819 149.107 85.9903 150.293 87.4271C150.614 86.7283 150.814 86.2934 151 85.8869H151.003ZM76.0089 148.91C75.8053 149.495 75.7017 150.008 75.4589 150.443C74.8946 151.463 75.1589 152.169 76.0161 152.924C77.2804 154.04 78.4769 155.249 79.5806 156.522C80.2271 157.267 80.8128 157.363 81.6557 156.939C79.7877 154.279 77.9519 151.669 76.0125 148.91H76.0089ZM144.321 46.5301C144.285 48.2414 145.146 48.9865 146.285 49.5784C148.11 50.5267 149.903 51.5321 151.718 52.4983C152.511 52.919 153.325 53.2969 154.364 53.8103C153.907 52.9725 154.664 52.099 153.55 51.6462C152.253 51.1221 151.01 50.4412 149.789 49.7566C148.007 48.7548 146.26 47.6817 144.321 46.5336V46.5301ZM42.3923 58.2526C44.9711 60.1208 47.7749 61.3794 50.7751 62.2315C51.1644 62.342 51.5001 62.645 51.868 62.8482C52.0394 62.9445 52.218 63.0443 52.4037 63.0907C52.4609 63.1049 52.6395 62.916 52.6252 62.8696C52.5573 62.67 52.4823 62.4169 52.3252 62.3099C49.6571 60.513 46.9712 58.7482 44.3068 56.9477C43.7496 56.5698 43.3674 56.5948 43.0352 57.1831C42.8388 57.5289 42.6245 57.8676 42.3923 58.2491V58.2526ZM70.9157 38.715C72.4158 39.5885 73.9231 40.4798 75.4446 41.3391C75.6982 41.4817 76.0768 41.6172 76.3196 41.5316C77.3126 41.1822 78.2769 40.7437 79.1948 40.3622C76.8304 37.4458 73.9088 37.7524 70.9193 38.715H70.9157ZM41.7137 59.4149C41.428 60.0246 41.0673 60.7982 40.6422 61.7002C43.4888 62.235 45.8819 64.1282 48.7178 63.0693C46.4891 61.907 44.1603 60.6913 41.7137 59.4149ZM141.299 39.4994C141.585 40.872 142.142 41.307 143.103 41.4924C144.121 41.6885 145.096 42.1234 146.074 42.4978C148.071 43.2643 150.057 44.0629 152.15 44.8865C151.796 43.9096 151.343 43.3213 150.335 43.0504C149.225 42.7509 148.21 42.1056 147.128 41.6813C145.274 40.954 143.399 40.2837 141.299 39.4994ZM151.943 84.2077C151.978 83.377 152.246 82.6318 151.989 82.3217C149.932 79.8616 147.771 77.4801 145.642 75.0771C145.521 75.1234 145.399 75.1698 145.278 75.2161C145.389 75.7331 145.342 76.3784 145.642 76.742C147.599 79.1415 149.628 81.4838 151.943 84.2041V84.2077ZM144.235 35.0963C144.249 35.0072 144.264 34.918 144.278 34.8253C144.014 34.6542 143.756 34.4653 143.478 34.3084C141.985 33.4741 140.745 31.8983 138.685 32.6791C138.463 32.7611 138.138 32.5971 137.867 32.5186C137.27 32.3475 136.681 32.155 136.088 31.9731C136.452 32.7575 136.906 33.6381 137.542 33.8021C139.738 34.3654 141.999 34.6827 144.231 35.0927L144.235 35.0963ZM146.392 68.599C146.471 69.0518 146.357 69.9181 146.717 70.2176C149.164 72.2676 151.714 74.1965 154.414 76.3106C154.307 75.7295 154.389 75.0307 154.096 74.7847C151.578 72.6848 148.996 70.6704 146.392 68.599ZM78.7805 157.909C78.8484 157.759 78.9198 157.606 78.9877 157.456C77.6412 155.891 76.2982 154.322 74.9517 152.757L74.5802 152.899C74.6267 153.484 74.4552 154.244 74.7588 154.621C75.5803 155.652 76.5768 156.557 77.5626 157.442C77.8662 157.713 78.3662 157.759 78.7805 157.909ZM138.185 30.8857C137.009 29.6308 133.202 27.9337 132.17 28.0727C133.345 30.5114 135.788 30.4258 138.185 30.8857ZM83.663 39.3782C82.2093 37.7132 80.2878 37.6989 78.0662 37.895C79.9092 39.1678 81.4807 40.5404 83.663 39.3782ZM132.048 26.0798C129.855 24.7321 127.659 23.3809 125.466 22.0332C125.391 22.1509 125.319 22.2685 125.244 22.3826C127.548 23.5164 128.73 26.4113 132.048 26.0798ZM74.0909 155.491C73.9231 156.718 73.8123 157.527 73.6873 158.458C74.7553 158.447 75.6089 158.44 76.7768 158.426C75.816 157.377 75.0803 156.572 74.0909 155.491ZM39.4671 64.9696C40.9101 64.6024 42.0066 64.3207 43.1031 64.039C43.096 63.9606 43.0852 63.8822 43.0781 63.8037C42.1602 63.4579 41.2423 63.1156 40.2029 62.727C39.9743 63.4187 39.7814 64.0034 39.4671 64.966V64.9696ZM88.7776 39.3532C87.4918 39.068 86.2096 38.7863 84.7488 38.4619C85.4012 39.1036 86.7442 39.4008 88.7776 39.3532Z" fill="#1A1A1A"/>
<path d="M23.9229 211.302C25.1122 210.888 25.0694 209.794 25.2337 208.863C25.5837 206.838 25.7623 204.781 26.1873 202.777C27.4302 196.93 28.7875 191.108 30.0483 185.265C30.4983 183.176 30.7269 181.036 31.2126 178.958C31.4234 178.052 31.927 177.168 32.4877 176.412C32.8056 175.984 33.4914 175.621 34.0271 175.599C35.5915 175.539 37.1595 175.71 38.7274 175.71C41.3098 175.71 43.8921 175.681 46.4708 175.589C48.5674 175.51 50.664 175.357 52.7498 175.164C54.8392 174.972 56.9251 174.958 58.7824 176.009C62.2826 177.992 66.1864 178.78 69.9653 179.938C72.0118 180.566 74.1013 181.061 76.1907 181.525C76.9979 181.703 77.8694 181.685 78.7052 181.65C80.3338 181.582 81.0017 182.192 80.791 183.771C80.691 184.527 80.5553 185.318 80.2303 185.992C78.2551 190.099 77.6622 194.556 76.8193 198.952C75.955 203.473 75.0942 207.993 74.2191 212.511C74.1263 212.985 73.962 213.445 73.8262 213.908C73.2476 215.876 72.1261 217.238 69.9653 217.591C68.8545 217.773 67.7794 218.179 66.6758 218.404C63.972 218.953 61.554 220.09 59.3288 221.702C59.0217 221.923 58.5002 222.062 58.1466 221.973C52.2855 220.468 46.4315 218.917 40.5776 217.381C38.0881 216.728 35.6094 215.997 33.0949 215.459C29.2875 214.639 27.8017 214.033 23.9229 211.313V211.302ZM65.8257 183.988C63.0541 183.789 60.3932 183.653 57.7466 183.39C52.6462 182.88 47.7638 181.429 42.9206 179.817C40.5097 179.015 38.0524 178.355 35.6629 177.496C34.1628 176.958 33.5664 177.029 33.102 178.576C32.6734 179.995 32.5484 181.503 32.227 182.958C30.1447 192.392 28.0481 201.822 25.9373 211.334C26.5873 211.544 26.9945 211.698 27.4124 211.808C31.2841 212.814 35.145 213.876 39.0417 214.789C40.9169 215.227 42.8527 215.545 44.7743 215.623C48.1424 215.758 51.464 216.094 54.7071 217.038C55.9 217.384 57.0965 217.723 58.5395 218.133C59.4146 214.397 60.5468 210.792 61.0611 207.098C61.829 201.612 62.6291 196.164 64.2685 190.852C64.9542 188.63 65.3078 186.306 65.8221 183.988H65.8257ZM60.5075 218.743C61.0575 218.354 61.7897 217.908 62.4398 217.363C65.465 214.831 68.3652 212.133 71.5225 209.78C73.0369 208.653 72.8976 207.277 73.2369 205.573C72.5762 206.05 72.1368 206.378 71.6868 206.688C68.5437 208.853 65.7221 211.512 62.0897 212.935C61.8897 213.013 61.7183 213.345 61.6611 213.591C61.2468 215.352 60.8647 217.117 60.5039 218.743H60.5075ZM76.5014 190.748C76.3978 190.698 76.2978 190.648 76.1943 190.598C75.7907 191.08 75.3871 191.561 74.9799 192.042C71.7868 195.807 68.4259 199.387 64.1042 201.918C63.8934 202.043 63.6756 202.321 63.6434 202.556C63.5148 203.476 63.4613 204.407 63.3827 205.302C67.2972 202.289 71.1332 199.344 74.9549 196.378C75.1835 196.203 75.3478 195.868 75.4156 195.579C75.7978 193.975 76.1443 192.36 76.5014 190.748ZM74.6013 199.422C74.3049 199.465 74.212 199.451 74.1548 199.49C70.4832 202.171 66.8151 204.852 63.1505 207.544C63.0362 207.626 62.9648 207.804 62.9291 207.951C62.6862 208.992 62.4612 210.033 62.229 211.077C62.3183 211.134 62.4112 211.191 62.5005 211.248C62.6791 211.109 62.8576 210.97 63.0398 210.835C66.4722 208.293 69.9117 205.754 73.3298 203.198C73.5941 202.998 73.837 202.67 73.9263 202.353C74.1834 201.433 74.3584 200.488 74.5942 199.422H74.6013ZM77.0836 184.131C76.8657 184.773 76.83 185.404 76.4979 185.746C75.1871 187.097 73.7727 188.349 72.419 189.657C70.0831 191.91 68.0116 194.47 64.9935 195.918C64.8649 195.978 64.7006 196.1 64.6721 196.221C64.3649 197.515 64.0827 198.82 63.797 200.118C70.0153 195.704 74.4977 189.932 78.8052 183.814C78.0587 183.949 77.4694 184.056 77.0836 184.128V184.131ZM74.6013 184.687C74.5513 184.602 74.5049 184.513 74.4549 184.427C73.9084 184.587 73.2333 184.598 72.8405 184.937C71.0189 186.506 69.3081 188.206 67.4901 189.782C66.1257 190.966 65.3364 192.534 65.3257 194.609C68.4545 191.265 71.5261 187.974 74.6013 184.687ZM49.546 179.525C49.546 179.664 49.546 179.799 49.546 179.938C50.6282 180.074 51.8712 180.609 52.757 180.259C54.2642 179.664 55.5464 178.505 57.2001 177.396C54.1892 177.193 51.9033 178.484 49.546 179.525ZM54.1713 180.758C57.3108 181.678 58.5966 181.372 60.9861 179.24C60.2503 178.994 59.4753 178.441 58.9467 178.616C57.4037 179.125 55.9572 179.931 54.1713 180.758ZM68.7616 181.91C68.7723 181.867 68.7866 181.824 68.7973 181.782C67.4651 181.375 66.1043 181.051 64.8113 180.548C62.9969 179.842 61.604 180.659 60.2003 181.71C63.0541 181.778 65.9079 181.846 68.758 181.913L68.7616 181.91ZM70.9189 184.505C69.8974 184.327 69.2295 184.177 68.5545 184.11C68.3294 184.088 67.9187 184.227 67.8794 184.374C67.5901 185.45 67.3687 186.545 67.1294 187.632C67.2151 187.668 67.2972 187.703 67.383 187.739C68.4902 186.727 69.5938 185.718 70.9189 184.505ZM49.5032 177.592C47.3494 177.567 45.2743 177.542 43.1956 177.521C45.2386 178.256 47.253 179.921 49.5032 177.592ZM70.6296 213.281C69.0831 214.347 67.8008 215.231 66.5186 216.115C69.8581 215.815 70.5046 215.398 70.6296 213.281Z" fill="#1A1A1A"/>
<path d="M127.981 104.633C128.195 104.733 128.491 104.772 128.609 104.94C129.845 106.662 131.084 108.387 132.238 110.163C132.395 110.405 132.113 110.933 132.031 111.332C131.677 111.154 131.206 111.065 130.992 110.78C130.434 110.045 129.945 109.246 129.506 108.434C128.863 107.243 128.284 106.02 127.681 104.811C127.781 104.754 127.881 104.697 127.981 104.637V104.633Z" fill="#1A1A1A"/>
</svg>
