<svg width="60" height="63" viewBox="0 0 60 63" fill="none" xmlns="http://www.w3.org/2000/svg">
<path d="M22.1184 48.5807C21.4868 47.993 20.9208 47.314 20.2292 46.809C18.4857 45.5365 16.8708 44.1328 15.3559 42.5979C14.9215 42.1556 14.5985 41.6592 14.2984 41.1342C13.8525 40.3554 13.4781 39.5394 12.8236 38.8832C12.3205 38.381 12.4463 37.8304 13.0551 37.4624C13.1523 37.4025 13.2695 37.3711 13.3581 37.3026C13.5124 37.1828 13.6925 37.0658 13.7897 36.9032C16.302 32.6464 17.2281 28.1015 16.3592 23.2057C15.9819 21.0773 16.0162 18.9432 16.6821 16.869C17.2509 15.0916 17.8712 13.3284 18.5485 11.5909C19.5089 9.13152 20.9008 6.92896 22.7215 4.99744C24.1249 3.50814 25.6654 2.24138 27.6633 1.60515C28.2721 1.41114 28.8095 1.00601 29.3954 0.734972C29.887 0.509581 30.3872 0.244241 30.9102 0.158649C32.9195 -0.172305 34.866 -0.00682446 36.7609 0.857652C39.1504 1.95037 41.6513 2.7806 43.9664 4.05877C45.9872 5.17147 48.1394 6.05307 50.1887 7.12012C52.3181 8.22995 54.1702 9.71068 55.6507 11.6251C57.3113 13.7734 58.3774 16.2128 58.9891 18.8319C60.4982 25.277 60.1409 31.6707 58.3174 38.0045C58.0059 39.0829 57.5086 40.0843 56.8026 40.9745C56.6854 41.1228 56.6682 41.3511 56.5711 41.5223C56.5196 41.6107 56.3853 41.7191 56.3024 41.7106C56.1195 41.6906 55.928 41.6278 55.7708 41.5308C55.1105 41.1285 54.4503 40.7234 53.8129 40.2869C51.272 38.5579 48.7339 36.8261 46.213 35.0686C45.6185 34.655 45.0554 34.1871 44.9497 33.3568C44.8982 32.9545 44.6867 32.5637 44.5009 32.1928C44.1551 31.5023 43.7549 30.8376 43.4119 30.1443C43.2662 29.8476 43.1919 29.5052 43.6206 29.314C43.6692 29.2941 43.6949 29.1999 43.7121 29.1343C44.0665 27.8533 44.4295 26.5723 44.7696 25.2855C45.2812 23.3597 45.3098 21.4168 44.9096 19.471C44.6095 18.0045 43.6835 16.9318 42.6631 15.879C41.7656 14.9546 40.7195 14.4839 39.4991 14.267C39.3733 14.2442 39.2476 14.2214 39.1218 14.2042C35.9435 13.7192 33.1911 14.9603 31.6819 17.5566C31.0131 18.7121 30.8273 19.9874 30.7787 21.297C30.7101 23.1258 31.0103 24.9203 31.2818 26.7178C31.8649 30.5694 31.4104 34.2812 29.9041 37.8818C28.8409 40.4238 27.5261 42.8233 25.9713 45.0915C25.1252 46.3268 24.1935 47.5051 23.2989 48.7063C23.1817 48.8632 23.0531 49.0087 22.8844 49.217C22.6501 49.0287 22.3671 48.8233 22.1099 48.5864L22.1184 48.5807ZM20.3092 16.2356C19.3574 16.364 18.4256 16.4867 17.411 16.6236C17.2566 17.18 17.068 17.8619 16.8822 18.5266C17.7254 18.5894 18.52 18.6436 19.3145 18.7178C19.4717 18.732 19.6232 18.8291 19.7747 18.889C19.7604 18.9289 19.749 18.9689 19.7347 19.0059C18.7772 19.0345 17.8197 19.063 16.8308 19.0915C16.8022 19.3797 16.7793 19.6393 16.7565 19.8533C17.774 19.8704 18.7715 19.8904 19.7947 19.9075C19.889 19.0659 19.9805 18.2271 20.0748 17.3883C20.0748 17.3512 20.072 17.3169 20.0691 17.2798C20.1463 16.9346 20.2234 16.5894 20.3063 16.2328L20.3092 16.2356ZM56.0795 41.1371C56.6254 40.5693 56.9884 39.9331 57.2856 39.2598C58.0173 37.5965 58.4089 35.8333 58.709 34.053C59.4778 29.4824 59.6208 24.9004 58.7376 20.3269C58.1831 17.4539 57.157 14.7663 55.4392 12.3669C54.0959 10.4924 52.3781 9.03736 50.3745 7.92752C46.9532 6.03023 43.2805 4.75208 39.5134 3.75351C37.4126 3.19717 35.2747 3.03739 33.1282 3.57377C30.6158 4.20144 28.3779 5.37974 26.4143 7.04308C22.7272 10.1643 20.9037 14.2499 20.5121 18.9803C20.3292 21.2057 20.3463 23.4482 20.3321 25.6821C20.3149 28.3925 20.2835 31.0972 19.7404 33.7648C19.3774 35.5537 18.9287 37.3254 17.8311 38.8204C17.2424 39.6221 16.5107 40.324 15.819 41.0487C15.4303 41.4538 15.4074 41.7905 15.7932 42.1927C17.3624 43.8332 19.0916 45.2883 20.858 46.7091C21.4982 47.2227 22.0413 47.8532 22.6558 48.458C23.0302 47.9388 23.396 47.4138 23.7848 46.906C25.331 44.8689 26.7859 42.7748 27.9549 40.4952C28.8552 38.7405 29.6269 36.9317 30.1842 35.0373C30.9445 32.4581 30.9988 29.8276 30.6959 27.18C30.5272 25.6907 30.3071 24.2042 30.1814 22.7121C30.0356 21.0002 30.1414 19.3055 30.9074 17.7164C32.4165 14.5808 35.772 12.9232 39.3762 13.5623C42.1029 14.0473 44.2866 15.4767 46.0243 17.5794C48.6281 20.7292 49.0797 24.4125 48.5081 28.2983C48.3109 29.6364 48.0851 30.9945 47.422 32.207C47.1619 32.6806 46.8075 33.1029 46.4816 33.5394C46.353 33.7077 46.1844 33.8475 45.9815 34.053C49.3313 36.5066 52.6268 38.9117 56.0795 41.1342V41.1371ZM44.621 28.073C45.6671 28.5295 46.6874 28.9717 47.745 29.431C47.8164 29.063 47.8822 28.7206 47.9393 28.4325C47.0218 28.053 46.1444 27.6992 45.2755 27.3198C45.1583 27.2684 44.9954 27.0658 45.0211 26.9888C45.104 26.7263 45.3069 26.8775 45.4584 26.9431C46.1901 27.2684 46.9161 27.6022 47.6449 27.9303C47.745 27.976 47.8507 28.0131 47.9993 28.073C48.0451 27.5937 48.0851 27.1571 48.1251 26.7634C47.3048 26.4724 46.5274 26.2042 45.7585 25.9132C45.6585 25.8761 45.5956 25.7277 45.5184 25.6336C45.6499 25.6022 45.8043 25.5109 45.9129 25.548C46.5617 25.7705 47.1991 26.0216 47.8421 26.2641C47.925 26.2955 48.0079 26.3269 48.2251 26.4096C48.1908 25.9588 48.1823 25.568 48.1194 25.1857C48.1022 25.083 47.9336 24.9745 47.8107 24.926C47.1991 24.6835 46.5788 24.4638 45.9643 24.227C45.8557 24.1842 45.7642 24.0929 45.6242 23.9959C45.95 23.7249 46.2273 23.8276 46.5017 23.9617C47.0104 24.2099 47.5192 24.4638 48.1394 24.772C48.0451 24.13 47.9708 23.5965 47.885 23.0658C47.8736 23.0002 47.8164 22.9203 47.7564 22.8918C47.0962 22.5808 46.4302 22.2784 45.6871 21.9389C45.79 24.1186 45.0468 26.0929 44.6238 28.0758L44.621 28.073ZM25.5683 3.26849C24.9595 3.77633 24.3392 4.29274 23.6647 4.85479C24.7251 5.22568 25.7026 5.56804 26.6801 5.899C26.7544 5.92468 26.8745 5.8876 26.9488 5.8391C27.1603 5.70215 27.3603 5.54808 27.6262 5.35407C27.4747 5.31413 27.3775 5.2856 27.2775 5.26277C26.6372 5.103 25.997 4.95464 25.3625 4.77489C25.1738 4.72069 24.9938 4.60372 24.8423 4.47818C24.7823 4.42968 24.7708 4.27277 24.7994 4.18147C24.8108 4.14153 24.9823 4.11013 25.0624 4.13581C25.9941 4.42397 26.9116 4.76063 27.8548 4.99458C28.1206 5.0602 28.4608 4.84053 28.7637 4.75208C27.7233 4.13011 26.5 4.12726 25.5683 3.26849ZM44.4352 28.4895C44.3952 28.5409 44.3723 28.558 44.3637 28.5808C44.0065 29.4025 44.0493 29.3397 44.7439 29.6821C45.607 30.1043 46.4645 30.538 47.3705 30.9916C47.4792 30.5466 47.5849 30.1129 47.6792 29.7249C46.5645 29.2998 45.4956 28.8946 44.438 28.4924L44.4352 28.4895ZM15.0901 36.2441C16.2849 36.1899 17.3653 36.1414 18.5228 36.09C18.6114 35.8019 18.7229 35.4367 18.8315 35.0829C17.7454 35.0401 16.6793 35.0002 15.5532 34.9574C15.396 35.3939 15.2588 35.7762 15.0901 36.2441ZM16.6336 32.1928C16.5478 32.4809 16.4306 32.8861 16.302 33.3254C17.2624 33.411 18.1913 33.4938 19.1602 33.5822C19.2402 33.1115 19.3145 32.655 19.386 32.2327C18.4542 32.2184 17.5768 32.207 16.6336 32.1928ZM19.729 21.6222C18.7458 21.6964 17.7797 21.7706 16.7822 21.8447C16.8193 22.1814 16.8594 22.558 16.8965 22.9118C17.3767 22.8804 17.8311 22.8262 18.2885 22.8262C18.7429 22.8262 19.2002 22.8861 19.6975 22.9232C19.709 22.4695 19.7204 22.053 19.729 21.6194V21.6222ZM16.7393 20.3954C16.7393 20.7206 16.7393 21.0459 16.7365 21.3597C17.754 21.334 18.7372 21.3112 19.7404 21.2884C19.7633 20.9118 19.7833 20.5723 19.8061 20.1957C18.7572 20.2641 17.7597 20.3298 16.7393 20.3982V20.3954ZM26.6258 3.35408C27.4404 3.70215 28.2578 4.04736 29.0781 4.38403C29.1582 4.41541 29.2782 4.39545 29.3611 4.35836C29.5926 4.2585 29.8155 4.13581 30.1357 3.97318C29.8155 3.82768 29.5612 3.7107 29.3068 3.59372C28.5722 3.25706 27.8405 2.91756 27.106 2.58375C27.0459 2.55522 26.9545 2.54381 26.8973 2.56949C26.6144 2.70073 26.34 2.84623 25.9827 3.02597C26.2542 3.16577 26.4343 3.27134 26.6287 3.35408H26.6258ZM18.0455 14.8633C18.3885 14.8319 18.6857 14.8034 18.9859 14.7806C19.4289 14.7463 19.8719 14.6978 20.3121 14.695C20.6265 14.6921 20.8037 14.5894 20.8665 14.2699C20.9123 14.0388 21.0123 13.8191 21.0981 13.5623C20.1977 13.6222 19.3288 13.6793 18.4085 13.7392C18.2942 14.0958 18.177 14.4525 18.0455 14.8605V14.8633ZM16.9708 23.3511C17.0223 23.6992 17.0594 23.9589 17.0994 24.2185C17.9598 24.2385 18.8001 24.2584 19.6747 24.2784C19.6489 23.9531 19.6175 23.5822 19.5861 23.1743C18.7686 23.2285 17.8883 23.2884 16.9737 23.3511H16.9708ZM20.6579 12.2585C20.192 12.3127 19.7261 12.384 19.2574 12.3868C18.943 12.3868 18.7572 12.4582 18.7029 12.7834C18.68 12.9204 18.6229 13.0488 18.5714 13.2114C19.4089 13.2285 20.2292 13.2485 21.0495 13.2513C21.1324 13.2513 21.2524 13.1572 21.2924 13.0744C21.4096 12.8376 21.4953 12.5866 21.5925 12.3383C21.5782 12.267 21.5668 12.1957 21.5525 12.1215C21.2553 12.1672 20.958 12.2185 20.6579 12.2556V12.2585ZM19.0945 33.9075C18.0998 33.8789 17.1366 33.8533 16.1134 33.8247C16.0248 34.0301 15.9104 34.3069 15.8075 34.5494C16.8308 34.6093 17.8569 34.6692 18.9115 34.732C18.9744 34.4581 19.0287 34.2013 19.0945 33.9075ZM19.6518 28.9517C19.669 28.3925 19.5518 28.2584 18.9687 28.2698C18.64 28.2755 18.3142 28.3554 17.9855 28.3754C17.7483 28.3897 17.5082 28.3583 17.2366 28.344C17.2252 28.4667 17.2081 28.6122 17.1938 28.7577C17.1795 28.906 17.1709 29.0544 17.1566 29.2313C17.9941 29.2684 18.8001 29.3026 19.6261 29.3397C19.6347 29.1999 19.6461 29.0772 19.6518 28.9545V28.9517ZM20.3692 15.9275C20.455 15.6251 20.535 15.3369 20.6322 14.9831C20.292 15.0145 19.9834 15.0316 19.6775 15.0744C19.2002 15.1429 18.7258 15.2599 18.2456 15.2998C17.9426 15.3255 17.7911 15.4339 17.7368 15.7221C17.7111 15.8562 17.6539 15.9846 17.6196 16.0901C18.5285 16.0359 19.4346 15.9817 20.3664 15.9275H20.3692ZM28.9781 2.23852C28.4922 1.97033 28.0863 1.99603 27.6347 2.32413C28.1492 2.5809 28.6608 2.83197 29.1724 3.08874C29.5669 3.28846 29.9527 3.50529 30.3529 3.6993C30.4529 3.7478 30.593 3.76491 30.6987 3.73638C30.9159 3.67646 31.1217 3.57661 31.3332 3.49102C31.3447 3.45393 31.3532 3.41969 31.3647 3.3826C30.5672 3.006 29.7527 2.66363 28.9809 2.23852H28.9781ZM20.3749 9.97603C20.0119 9.93894 19.829 10.0416 19.7204 10.3612C19.6747 10.4924 19.6089 10.6151 19.526 10.8005C19.889 10.8148 20.212 10.8405 20.535 10.8319C20.9551 10.8234 21.3753 10.7464 21.7897 10.7777C22.3499 10.8205 22.6615 10.5723 22.8158 10.1044C21.9927 10.0645 21.1809 10.0531 20.3749 9.97317V9.97603ZM16.8994 30.9631C16.8565 31.1685 16.805 31.411 16.7536 31.665C17.5139 31.7135 18.2627 31.7591 19.0116 31.8048C19.3317 31.8247 19.5118 31.7106 19.4946 31.354C19.486 31.1714 19.5232 30.9859 19.5346 30.8632C18.6486 30.8946 17.7968 30.926 16.8994 30.9603V30.9631ZM31.056 1.6936C31.6105 2.0217 32.1707 2.34124 32.7195 2.6779C33.2396 2.99745 33.2339 3.006 33.9656 2.74923C32.9938 2.16721 32.0735 1.66791 31.2132 1.08018C30.8045 0.800582 30.5044 0.889042 30.0728 1.11443C30.4472 1.33697 30.7502 1.51671 31.0531 1.6936H31.056ZM22.1384 6.58088C23.1588 6.79772 24.1277 7.03453 25.111 7.1943C25.3053 7.22568 25.5425 6.97745 25.8255 6.82339C24.8051 6.33266 23.6447 6.58088 22.8158 5.77917C22.6015 6.0331 22.3842 6.28987 22.1384 6.58088ZM18.0398 37.2655C18.1312 37.0601 18.2484 36.8005 18.4085 36.4381C17.7883 36.4866 17.2452 36.5294 16.6993 36.5694C16.1705 36.6064 15.6389 36.6093 15.113 36.6806C14.9415 36.7035 14.79 36.8918 14.63 37.0059C14.65 37.0487 14.67 37.0886 14.69 37.1314C15.7875 37.1742 16.8851 37.2199 18.0426 37.2655H18.0398ZM18.4514 25.5166C18.8544 25.4995 19.2602 25.4824 19.7318 25.4596C19.7175 25.2741 19.7318 25.0516 19.669 24.849C19.6318 24.732 19.4689 24.5608 19.3746 24.5665C18.6486 24.6236 17.9255 24.7178 17.1738 24.8034C17.188 25.0173 17.2023 25.2656 17.2223 25.5566C17.6482 25.5423 18.0512 25.5309 18.4514 25.5138V25.5166ZM19.6004 27.0487C18.8715 27.0887 18.0855 27.1315 17.2709 27.1771C17.2624 27.4282 17.2538 27.7163 17.2452 27.9817C18.0541 27.9845 18.8629 27.7277 19.6604 28.1357C19.6404 27.7677 19.6204 27.4053 19.6004 27.0487ZM19.6232 29.6107C18.7801 29.645 17.9626 29.6792 17.0994 29.7135C17.0709 29.9046 17.0394 30.1129 16.9937 30.4125C17.8626 30.4438 18.7 30.4752 19.5632 30.5066C19.5861 30.1642 19.6032 29.916 19.6232 29.6107ZM22.0327 9.09157C21.5468 9.05448 21.0638 8.96603 20.5293 8.89471C20.435 9.05733 20.3178 9.2599 20.1577 9.53379C21.1209 9.6365 22.0413 9.7335 23.0245 9.83621C23.1617 9.65362 23.3446 9.40542 23.5561 9.12011C23.0102 9.11155 22.5186 9.12866 22.0327 9.09157ZM19.6861 26.7263C19.6518 26.4353 19.6118 26.1272 19.5718 25.7848C18.8715 25.742 18.097 26.1842 17.2481 25.9389C17.2652 26.2042 17.2824 26.4753 17.2938 26.6835C18.0912 26.6978 18.8629 26.712 19.6861 26.7263ZM33.3768 0.683619C33.4169 0.732121 33.4397 0.769198 33.4712 0.794875C33.9999 1.24566 34.5859 1.64795 35.046 2.1615C35.4605 2.6237 35.9149 2.70928 36.5037 2.62084C35.2204 1.31984 34.5544 0.600881 33.3768 0.683619ZM21.784 11.9418C21.8783 11.762 22.0327 11.4682 22.2156 11.1173C21.7497 11.1829 21.3439 11.2513 20.9351 11.2913C20.5836 11.3255 20.2263 11.3626 19.8776 11.3284C19.2545 11.2713 19.2574 11.2485 19.0602 11.9218C19.9576 11.9275 20.8237 11.9361 21.784 11.9418ZM15.1702 37.6507C14.9672 37.6364 14.7443 37.6678 14.5699 37.5936C14.2527 37.4538 14.0812 37.6136 13.8382 37.8761C14.367 37.9617 14.8358 38.0529 15.3074 38.1043C15.8361 38.1614 16.3706 38.1813 16.8994 38.2213C17.5453 38.2698 17.5796 38.2441 17.734 37.8247C16.9165 37.7705 16.0419 37.7106 15.1702 37.6535V37.6507ZM45.6814 20.732C45.6899 21.0173 45.7014 21.2855 45.7071 21.471C46.4188 21.8647 47.0733 22.2242 47.7421 22.5951C47.5478 21.4025 47.6449 21.3626 45.6814 20.7349V20.732ZM20.8037 8.45534C21.3867 8.52382 21.9212 8.58943 22.4586 8.64364C22.7358 8.67217 23.0188 8.66076 23.2931 8.7007C23.8962 8.78344 23.9191 8.77774 24.2878 8.17289C23.2074 8.11583 22.1527 8.06162 21.0895 8.00741C21.0152 8.12724 20.9323 8.25278 20.8037 8.4582V8.45534ZM14.1755 38.4524C14.207 38.7462 14.3327 38.886 14.6414 38.9288C15.1673 39.003 15.6904 39.1114 16.202 39.2512C16.5478 39.3482 16.7793 39.2969 16.9537 38.9716C17.028 38.8318 17.1452 38.7177 17.2652 38.5636C16.2048 38.5237 15.1987 38.4895 14.1755 38.4524ZM30.8559 2.13582C30.4643 1.9304 30.0728 1.71928 29.7126 1.46821C29.4011 1.25138 29.3011 1.59945 29.001 1.62512C29.3154 1.81057 29.5554 1.96178 29.8012 2.09872C30.3672 2.41256 30.9417 2.71213 31.5047 3.02882C31.8563 3.22854 32.2021 3.32839 32.648 3.02597C32.0135 2.71213 31.4304 2.43539 30.8588 2.13582H30.8559ZM47.1733 31.5451C47.2734 31.3568 47.2133 31.2513 47.019 31.1685C46.0872 30.7748 45.1583 30.3697 44.2265 29.9731C44.1722 29.9503 44.0922 29.9731 44.0265 29.9902C44.0122 29.9931 43.9922 30.073 44.0065 30.0872C44.0522 30.13 44.1065 30.1585 44.1637 30.1871C44.2808 30.2498 44.418 30.2841 44.5152 30.3697C45.2555 31.0145 46.0672 31.5366 47.0047 31.8961C47.0647 31.7705 47.119 31.6564 47.1762 31.5451H47.1733ZM45.4298 19.1343C45.487 19.4425 45.5356 19.7706 45.6128 20.093C45.6328 20.17 45.7328 20.247 45.8128 20.2898C46.3016 20.5437 46.7932 20.7891 47.2819 21.0345C47.0247 20.0815 46.6046 19.2599 45.4298 19.1343ZM44.6438 31.0544C44.8496 31.9816 45.7614 32.2898 46.3902 32.9488C46.556 32.6835 46.6989 32.4553 46.8103 32.2755C46.0529 31.8504 45.3327 31.4453 44.6438 31.0573V31.0544ZM33.4454 1.45679C33.1482 1.24281 32.8023 1.08876 32.5337 0.846246C32.2907 0.62656 32.0564 0.60944 31.7362 0.683619C32.3136 1.09446 32.8652 1.47962 33.4083 1.8762C33.6741 2.0702 33.9571 2.2528 34.1829 2.48675C34.3972 2.70929 34.6087 2.78061 35.0203 2.62084C34.4544 2.20144 33.9542 1.82198 33.4454 1.45964V1.45679ZM24.425 7.85335C24.5736 7.87047 24.7365 7.74493 24.8909 7.68787C24.8823 7.64793 24.8737 7.60799 24.8651 7.56805C23.8648 7.41969 22.8673 7.25706 21.8612 7.13723C21.7354 7.12297 21.5839 7.31982 21.3696 7.47104C22.4843 7.61369 23.4532 7.74779 24.4221 7.85335H24.425ZM37.1697 2.63224C37.3211 2.77204 37.6327 2.74068 37.9014 2.70073C37.7527 2.5752 37.6012 2.45251 37.4526 2.32413C37.3869 2.26707 37.2868 2.21 37.2697 2.13582C37.1239 1.45964 36.4951 1.40258 36.0178 1.15151C35.9292 1.10586 35.8349 1.06877 35.7434 1.02883C35.7234 1.0488 35.7006 1.06592 35.6805 1.08589C36.1722 1.60515 36.6409 2.14724 37.1668 2.62941L37.1697 2.63224ZM23.4961 5.28844C23.3817 5.2542 23.2103 5.39402 23.0388 5.46535C24.062 5.81627 25.0081 6.15577 25.9684 6.44964C26.1085 6.49243 26.32 6.31555 26.4514 6.25849C25.4568 5.92753 24.4822 5.59086 23.4961 5.28844ZM14.7414 39.6136C15.1444 39.722 15.5532 39.8304 15.9676 39.8703C16.1191 39.8846 16.2906 39.7106 16.4535 39.6221L16.4278 39.4995C15.7818 39.4139 15.1387 39.3283 14.4928 39.2398C14.4642 39.2826 14.4356 39.3283 14.407 39.3711C14.5156 39.4538 14.6157 39.5793 14.7386 39.6107L14.7414 39.6136ZM39.6077 3.06591C39.4676 2.77205 38.3672 2.05593 37.8328 1.96178C38.3644 2.51242 38.7617 3.17148 39.6077 3.06591ZM46.2759 19.0088C45.9472 18.3897 45.6128 17.8875 44.9239 17.7877C44.9897 18.5609 45.6213 18.7406 46.2759 19.0088ZM42.2973 3.91898C42.3144 3.87903 42.3344 3.8391 42.3516 3.80201C41.6199 3.45394 40.8853 3.10871 40.1536 2.76064C40.6338 3.69073 41.6027 3.50814 42.2973 3.91898ZM14.6157 39.993C14.8129 40.3012 14.9558 40.5294 15.1359 40.8119C15.3588 40.6207 15.556 40.4524 15.8504 40.1985C15.396 40.1214 15.0558 40.0672 14.6128 39.993H14.6157ZM46.1901 33.2398C45.91 33.0344 45.6613 32.849 45.4127 32.6664C45.3898 32.6778 45.3698 32.6892 45.3469 32.7006C45.4613 33.0373 45.5756 33.3739 45.7242 33.819C45.9243 33.5708 46.0472 33.4196 46.1901 33.2398ZM44.9811 17.3455L44.055 16.4353C44.3904 16.9793 44.6991 17.2827 44.9811 17.3455Z" fill="#1A1A1A"/>
<path d="M7.01549 61.2683C6.44099 60.6977 5.82362 60.1699 5.22626 59.6249C3.81717 58.3439 2.40523 57.0686 1.00185 55.7819C0.916108 55.7048 0.864661 55.5422 0.870377 55.4252C0.916108 54.5636 0.80178 53.7305 0.484521 52.9231C0.355903 52.5921 0.278732 52.2412 0.135822 51.916C-0.141423 51.2854 0.0272107 50.7576 0.447365 50.2669C0.547402 50.1499 0.641722 50.0301 0.750333 49.9245C1.79643 48.9203 2.84539 47.9188 3.89149 46.9174C4.909 45.9416 5.98654 45.023 6.73539 43.799C6.85829 43.5965 7.04407 43.4253 7.22699 43.2712C7.60999 42.946 7.88438 43.0173 8.14447 43.4595C8.27881 43.6849 8.42172 43.9188 8.6075 44.1014C9.08768 44.5722 9.57643 45.0401 10.0938 45.4709C11.0455 46.2698 11.923 47.1628 13.0491 47.7448C13.6465 48.0529 14.0009 48.6064 14.3067 49.1885C14.6126 49.7733 14.9327 50.3496 15.2699 50.9174C15.6872 51.6135 16.1217 52.2983 16.5647 52.9801C16.8334 53.3938 17.1478 53.779 17.3993 54.2013C17.485 54.3468 17.5079 54.5893 17.4479 54.7462C17.345 55.0229 17.1964 55.3082 16.9934 55.5194C16.5276 56.0044 15.9988 56.4295 15.5243 56.9059C14.1953 58.2383 12.8862 59.5936 11.5543 60.9231C11.097 61.3796 10.5825 61.779 10.1081 62.2183C9.88797 62.4209 9.59358 62.5978 9.6879 62.9801C8.30453 62.4238 7.88724 62.1356 7.02121 61.274L7.01549 61.2683ZM8.18163 48.8375C7.05836 50.1785 5.75217 51.3225 4.43454 52.4666C3.54564 53.2341 2.78537 54.1499 1.94792 55.0229C2.30519 55.3339 2.59672 55.5907 2.89398 55.8446C3.69999 56.5379 4.35737 57.3567 4.96902 58.2212C5.31772 58.7148 5.73502 59.1713 6.17232 59.5878C7.08123 60.458 8.02157 61.294 8.95334 62.1413C9.05338 62.2326 9.16485 62.3125 9.33062 62.4495C11.4857 60.264 13.6208 58.0957 15.7587 55.9331C16.0874 55.5993 16.4647 55.3082 16.7676 54.9516C17.0963 54.5636 17.0134 54.3953 16.6133 54.09C15.9788 53.6078 15.3814 53.0715 14.7555 52.575C13.5007 51.5736 12.2803 50.5351 11.2713 49.2797C10.7483 48.6264 10.2567 47.9502 9.73077 47.2541C9.20486 47.7876 8.65323 48.2783 8.18163 48.8404V48.8375ZM2.61387 53.4195C2.66818 53.3625 2.7282 53.2597 2.71391 53.1941C2.46811 51.993 2.68819 50.7947 2.72249 49.5964C2.7282 49.4252 2.73963 49.2541 2.75393 48.9973C2.35949 49.3796 1.97364 49.5765 1.93362 50.1699C1.85074 51.4053 1.63637 52.6321 1.48489 53.8618C1.45345 54.1271 1.45916 54.3953 1.45059 54.6064C1.8193 54.2327 2.2223 53.8304 2.61673 53.4195H2.61387ZM5.02333 46.7091C4.95759 46.7776 4.89757 46.8775 4.89185 46.9688C4.76038 48.4837 4.64033 49.9987 4.51457 51.5479C4.73751 51.3739 4.97474 51.1999 5.19482 51.0087C5.25198 50.9602 5.28914 50.8546 5.28342 50.7776C5.21197 49.2056 5.58353 47.7049 6.03227 46.2184C6.08943 46.0301 6.1466 45.839 6.20662 45.6507C6.17518 45.6335 6.1466 45.6135 6.11516 45.5964C5.74931 45.9673 5.38346 46.3325 5.02333 46.7091ZM3.48562 48.2612C3.41703 48.3382 3.3713 48.4581 3.36558 48.5636C3.27412 49.9046 3.19123 51.2427 3.10834 52.5836C3.10262 52.6549 3.09691 52.7262 3.09119 52.7976C3.12263 52.8118 3.15121 52.8261 3.18265 52.8403C3.41988 52.6007 3.65711 52.3611 3.88863 52.1214C3.92007 52.0872 3.95437 52.0386 3.95722 51.993C4.04297 50.5665 4.123 49.1399 4.20303 47.7134C4.20303 47.6906 4.18302 47.6706 4.14586 47.585C3.90578 47.8304 3.6857 48.0387 3.48562 48.2641V48.2612ZM7.55283 43.8019C6.67251 45.9845 5.91508 48.1557 5.81219 50.5494C6.10658 50.2498 6.40384 49.9531 6.69251 49.6506C6.7211 49.6221 6.72395 49.5594 6.71824 49.5137C6.5839 48.4695 6.90688 47.4852 7.10409 46.4838C7.21842 45.9017 7.30702 45.3168 7.4385 44.7405C7.4728 44.595 7.63286 44.4781 7.76434 44.3097C7.71575 44.1956 7.64429 44.0216 7.55283 43.8019ZM7.00691 49.2027C7.55569 48.8461 7.83293 48.3668 7.91296 47.8047C8.01871 47.0544 8.17591 46.3125 8.27881 45.565C8.30167 45.4024 8.18735 45.2227 8.13876 45.0515C8.10732 45.0515 8.07588 45.0572 8.04444 45.0572C7.70145 46.4296 7.35847 47.8047 7.00977 49.1998L7.00691 49.2027ZM12.952 48.3953C12.9434 49.0201 12.8548 49.5565 12.9548 50.0558C13.0148 50.3496 13.3692 50.5864 13.5893 50.8489C13.6265 50.8261 13.6608 50.8004 13.6979 50.7776C13.5693 49.9787 13.5207 49.1542 12.9491 48.3953H12.952ZM12.3317 48.1442C12.286 47.9759 12.0087 47.8646 11.8173 47.7134C11.6629 48.7091 11.8001 49.1 12.5832 49.7705C12.4975 49.157 12.4603 48.6378 12.3317 48.1442ZM11.2999 48.3439C11.3371 47.7933 11.3142 47.2883 10.8169 46.9288C10.4625 46.6749 10.1424 46.3725 9.80794 46.09C9.79937 46.1014 9.79079 46.11 9.77936 46.1214C10.2853 46.8632 10.7912 47.6021 11.2999 48.3439ZM8.47602 47.4852C8.49889 47.5023 8.52461 47.5165 8.54748 47.5337C8.79328 47.2826 9.0448 47.0372 9.27918 46.7776C9.31062 46.7434 9.27918 46.6093 9.23345 46.5551C9.09911 46.3896 8.94763 46.2384 8.72469 45.9987C8.63037 46.5551 8.5532 47.0201 8.47602 47.4852ZM15.3214 52.11C14.9584 51.5679 14.5983 51.023 14.221 50.4609C13.9895 51.4509 14.7755 51.6991 15.3214 52.11ZM1.11904 52.575C1.13333 52.0872 1.14762 51.5964 1.16477 51.0058C0.624573 51.4024 0.627431 51.6421 1.11904 52.575Z" fill="#1A1A1A"/>
<path d="M20.0721 17.2799C20.0092 17.24 19.9492 17.1686 19.8834 17.1658C19.2175 17.1344 18.5487 17.103 17.8799 17.103C17.7884 17.103 17.6969 17.2685 17.6055 17.357C17.7141 17.4197 17.817 17.5281 17.9284 17.5367C18.2171 17.5595 18.5115 17.551 18.8031 17.5281C19.2289 17.4939 19.6519 17.4368 20.0749 17.3883C20.0749 17.3512 20.0721 17.317 20.0692 17.2799H20.0721Z" fill="#1A1A1A"/>
</svg>
