<svg width="46" height="49" viewBox="0 0 46 49" fill="none" xmlns="http://www.w3.org/2000/svg">
<path d="M28.8852 37.1103C29.3677 36.6613 29.8 36.1426 30.3284 35.7568C31.6602 34.7848 32.8938 33.7126 34.051 32.54C34.3828 32.2022 34.6295 31.823 34.8588 31.422C35.1994 30.827 35.4854 30.2037 35.9854 29.7024C36.3697 29.3189 36.2736 28.8982 35.8085 28.6171C35.7343 28.5713 35.6448 28.5473 35.5771 28.495C35.4592 28.4035 35.3217 28.3141 35.2474 28.1899C33.3283 24.9382 32.6209 21.4664 33.2846 17.7265C33.5728 16.1007 33.5466 14.4705 33.0379 12.886C32.6034 11.5283 32.1296 10.1814 31.6122 8.85412C30.8786 6.97546 29.8153 5.29296 28.4245 3.81749C27.3525 2.67983 26.1756 1.71217 24.6495 1.22616C24.1844 1.07796 23.774 0.768482 23.3264 0.561437C22.9509 0.389263 22.5688 0.186573 22.1692 0.12119C20.6343 -0.131622 19.1475 -0.00521313 17.6999 0.655151C15.8746 1.48987 13.9642 2.12407 12.1957 3.10045C10.6521 3.95042 9.00804 4.62387 7.44259 5.43898C5.816 6.28677 4.40119 7.41788 3.27022 8.88027C2.0017 10.5214 1.18732 12.3848 0.720083 14.3855C-0.432721 19.3088 -0.159805 24.1929 1.23317 29.0312C1.47115 29.855 1.85105 30.62 2.39034 31.2999C2.47985 31.4133 2.49295 31.5876 2.56719 31.7184C2.60649 31.786 2.7091 31.8688 2.77242 31.8622C2.91216 31.847 3.05844 31.799 3.17852 31.7249C3.68287 31.4176 4.18723 31.1082 4.67411 30.7747C6.6151 29.454 8.55391 28.1311 10.4796 26.7886C10.9338 26.4725 11.3639 26.1151 11.4447 25.4809C11.484 25.1736 11.6455 24.875 11.7874 24.5917C12.0516 24.0643 12.3573 23.5565 12.6193 23.0269C12.7306 22.8002 12.7874 22.5387 12.4599 22.3927C12.4228 22.3774 12.4031 22.3055 12.39 22.2554C12.1193 21.2768 11.842 20.2982 11.5822 19.3153C11.1914 17.8442 11.1696 16.36 11.4752 14.8737C11.7045 13.7535 12.4119 12.934 13.1913 12.1298C13.8769 11.4237 14.676 11.0641 15.6083 10.8984C15.7043 10.881 15.8004 10.8635 15.8965 10.8505C18.3244 10.48 20.4269 11.428 21.5797 13.4113C22.0906 14.2939 22.2325 15.2682 22.2697 16.2685C22.3221 17.6655 22.0928 19.0364 21.8854 20.4094C21.44 23.3516 21.7871 26.187 22.9378 28.9375C23.75 30.8793 24.7543 32.7122 25.942 34.4449C26.5883 35.3885 27.3001 36.2886 27.9835 37.2062C28.073 37.326 28.1712 37.4372 28.3 37.5963C28.4791 37.4524 28.6952 37.2955 28.8917 37.1146L28.8852 37.1103ZM30.2672 12.4022C30.9943 12.5003 31.7061 12.594 32.4811 12.6986C32.599 13.1236 32.7431 13.6445 32.8851 14.1523C32.241 14.2002 31.634 14.2416 31.027 14.2983C30.9069 14.3092 30.7912 14.3833 30.6755 14.4291C30.6864 14.4596 30.6952 14.4901 30.7061 14.5184C31.4375 14.5402 32.1689 14.562 32.9244 14.5838C32.9462 14.8039 32.9637 15.0023 32.9811 15.1657C32.2039 15.1788 31.4419 15.1941 30.6602 15.2071C30.5882 14.5642 30.5183 13.9235 30.4463 13.2827C30.4463 13.2544 30.4484 13.2282 30.4506 13.1999C30.3917 12.9362 30.3327 12.6725 30.2694 12.4L30.2672 12.4022ZM2.94272 31.4242C2.5257 30.9905 2.24842 30.5045 2.02135 29.9901C1.46242 28.7195 1.1633 27.3726 0.93405 26.0127C0.346731 22.5212 0.237563 19.0211 0.912215 15.5275C1.33578 13.3328 2.1196 11.2798 3.43179 9.44692C4.45796 8.01504 5.77015 6.90354 7.30067 6.05574C9.91413 4.60643 12.7197 3.63006 15.5974 2.86727C17.2021 2.44228 18.8353 2.32023 20.4749 2.72996C22.3941 3.20943 24.1037 4.10953 25.6036 5.38013C28.4201 7.76441 29.8131 10.8853 30.1122 14.4988C30.2519 16.1988 30.2388 17.9118 30.2498 19.6183C30.2629 21.6887 30.2869 23.7548 30.7017 25.7926C30.979 27.159 31.3218 28.5125 32.1602 29.6545C32.61 30.2669 33.1689 30.803 33.6973 31.3566C33.9942 31.6661 34.0117 31.9233 33.7169 32.2306C32.5183 33.4837 31.1973 34.5952 29.848 35.6806C29.359 36.0729 28.9441 36.5545 28.4747 37.0166C28.1887 36.6199 27.9092 36.2189 27.6123 35.831C26.4311 34.2749 25.3198 32.6752 24.4268 30.9338C23.739 29.5935 23.1495 28.2117 22.7238 26.7646C22.143 24.7944 22.1015 22.785 22.333 20.7625C22.4618 19.6248 22.6299 18.4893 22.726 17.3495C22.8373 16.0418 22.7565 14.7473 22.1714 13.5333C21.0186 11.1381 18.4554 9.8719 15.7022 10.3601C13.6193 10.7306 11.9512 11.8225 10.6237 13.4287C8.63469 15.8348 8.28973 18.6484 8.72639 21.6168C8.87704 22.6389 9.04953 23.6763 9.55606 24.6026C9.75475 24.9644 10.0255 25.2869 10.2744 25.6204C10.3726 25.749 10.5014 25.8558 10.6565 26.0127C8.09759 27.887 5.5802 29.7242 2.94272 31.422V31.4242ZM11.6957 21.4446C10.8966 21.7933 10.1172 22.1311 9.30935 22.482C9.25476 22.2009 9.20454 21.9394 9.16088 21.7192C9.86173 21.4294 10.532 21.1591 11.1958 20.8693C11.2853 20.83 11.4097 20.6753 11.3901 20.6164C11.3268 20.4159 11.1717 20.5314 11.056 20.5816C10.4971 20.83 9.94251 21.085 9.38576 21.3357C9.30934 21.3705 9.22856 21.3989 9.11503 21.4446C9.08009 21.0785 9.04953 20.745 9.01896 20.4443C9.64558 20.222 10.2394 20.0171 10.8268 19.7948C10.9032 19.7665 10.9512 19.6531 11.0102 19.5812C10.9097 19.5572 10.7918 19.4875 10.7089 19.5158C10.2132 19.6858 9.72636 19.8776 9.23511 20.0629C9.1718 20.0868 9.10848 20.1108 8.94254 20.174C8.96874 19.8297 8.97529 19.5311 9.02333 19.2391C9.03643 19.1606 9.16525 19.0778 9.25913 19.0407C9.72636 18.8555 10.2001 18.6877 10.6696 18.5068C10.7525 18.4741 10.8224 18.4043 10.9294 18.3302C10.6805 18.1232 10.4687 18.2016 10.2591 18.3041C9.87046 18.4937 9.48183 18.6877 9.00804 18.923C9.08009 18.4327 9.13686 18.0251 9.20236 17.6197C9.21109 17.5696 9.25476 17.5086 9.30061 17.4868C9.80496 17.2492 10.3137 17.0182 10.8813 16.7589C10.8027 18.424 11.3704 19.9321 11.6936 21.4468L11.6957 21.4446ZM26.2499 2.49676C26.7149 2.8847 27.1887 3.27917 27.704 3.70852C26.894 3.99184 26.1473 4.25337 25.4006 4.50618C25.3438 4.52579 25.2521 4.49747 25.1953 4.46042C25.0338 4.35581 24.8809 4.23812 24.6779 4.08992C24.7936 4.0594 24.8678 4.03761 24.9442 4.02017C25.4333 3.89813 25.9224 3.78479 26.4071 3.64749C26.5512 3.60608 26.6887 3.51673 26.8045 3.42083C26.8503 3.38378 26.859 3.26392 26.8372 3.19418C26.8285 3.16367 26.6975 3.13969 26.6363 3.1593C25.9246 3.37942 25.2237 3.6366 24.5032 3.81531C24.3002 3.86543 24.0403 3.69762 23.8089 3.63006C24.6036 3.15495 25.5381 3.15277 26.2499 2.49676ZM11.8377 21.7628C11.8682 21.802 11.8857 21.8151 11.8922 21.8326C12.1652 22.4602 12.1324 22.4123 11.6019 22.6738C10.9425 22.9964 10.2875 23.3276 9.59536 23.6742C9.5124 23.3342 9.43161 23.0029 9.35956 22.7065C10.2111 22.3818 11.0276 22.0723 11.8355 21.765L11.8377 21.7628ZM34.254 27.6865C33.3414 27.6451 32.5161 27.608 31.6318 27.5688C31.5641 27.3487 31.479 27.0697 31.396 26.7995C32.2257 26.7668 33.0401 26.7363 33.9003 26.7036C34.0204 27.037 34.1252 27.329 34.254 27.6865ZM33.075 24.5917C33.1405 24.8118 33.23 25.1213 33.3283 25.4569C32.5947 25.5223 31.8851 25.5855 31.1449 25.6531C31.0838 25.2935 31.027 24.9448 30.9724 24.6222C31.6842 24.6113 32.3545 24.6026 33.075 24.5917ZM30.7104 16.517C31.4615 16.5736 32.1995 16.6303 32.9615 16.687C32.9331 16.9441 32.9025 17.2318 32.8741 17.5021C32.5073 17.4781 32.1602 17.4367 31.8109 17.4367C31.4637 17.4367 31.1144 17.4824 30.7345 17.5108C30.7257 17.1642 30.717 16.8461 30.7104 16.5148V16.517ZM32.9942 15.5798C32.9942 15.8283 32.9942 16.0767 32.9964 16.3164C32.2191 16.2968 31.4681 16.2794 30.7017 16.262C30.6842 15.9743 30.669 15.7149 30.6515 15.4272C31.4528 15.4795 32.2148 15.5297 32.9942 15.582V15.5798ZM25.442 2.56214C24.8198 2.82803 24.1954 3.09174 23.5687 3.34891C23.5076 3.37288 23.4159 3.35763 23.3526 3.3293C23.1757 3.25302 23.0054 3.1593 22.7609 3.03507C23.0054 2.92392 23.1998 2.83456 23.3941 2.74521C23.9552 2.48803 24.5141 2.22869 25.0752 1.9737C25.1211 1.9519 25.191 1.94319 25.2346 1.9628C25.4508 2.06305 25.6604 2.1742 25.9333 2.3115C25.7259 2.41829 25.5883 2.49894 25.4399 2.56214H25.442ZM31.9964 11.3539C31.7344 11.3299 31.5074 11.3081 31.2781 11.2907C30.9397 11.2646 30.6013 11.2275 30.265 11.2253C30.0249 11.2232 29.8895 11.1447 29.8415 10.9006C29.8065 10.7241 29.7301 10.5562 29.6646 10.3601C30.3524 10.4059 31.0161 10.4495 31.7192 10.4952C31.8065 10.7677 31.896 11.0401 31.9964 11.3517V11.3539ZM32.8174 17.8377C32.7781 18.1036 32.7497 18.3019 32.7191 18.5002C32.0619 18.5155 31.42 18.5307 30.7519 18.546C30.7716 18.2975 30.7956 18.0142 30.8196 17.7026C31.444 17.744 32.1165 17.7897 32.8152 17.8377H32.8174ZM30.0009 9.36411C30.3567 9.40552 30.7126 9.46 31.0707 9.46217C31.3109 9.46217 31.4528 9.51666 31.4943 9.76512C31.5117 9.86973 31.5554 9.9678 31.5947 10.092C30.955 10.1051 30.3284 10.1204 29.7017 10.1225C29.6384 10.1225 29.5467 10.0506 29.5162 9.98742C29.4266 9.80653 29.3611 9.61474 29.2869 9.42513C29.2978 9.37064 29.3066 9.31616 29.3175 9.25949C29.5445 9.29436 29.7716 9.3336 30.0009 9.36193V9.36411ZM31.1951 25.9015C31.955 25.8797 32.6907 25.8601 33.4724 25.8383C33.5401 25.9952 33.6274 26.2066 33.706 26.3919C32.9244 26.4377 32.1405 26.4834 31.3349 26.5314C31.2868 26.3222 31.2454 26.126 31.1951 25.9015ZM30.7694 22.1159C30.7563 21.6887 30.8458 21.5863 31.2912 21.595C31.5423 21.5994 31.7912 21.6604 32.0423 21.6756C32.2235 21.6865 32.4069 21.6626 32.6143 21.6517C32.6231 21.7454 32.6362 21.8565 32.6471 21.9677C32.658 22.081 32.6645 22.1943 32.6755 22.3295C32.0357 22.3578 31.42 22.384 30.789 22.4123C30.7825 22.3055 30.7738 22.2118 30.7694 22.1181V22.1159ZM30.2214 12.1668C30.1559 11.9358 30.0947 11.7157 30.0205 11.4455C30.2803 11.4694 30.5161 11.4825 30.7497 11.5152C31.1144 11.5675 31.4768 11.6569 31.8436 11.6874C32.075 11.707 32.1908 11.7898 32.2322 12.0099C32.2519 12.1123 32.2956 12.2104 32.3218 12.2911C31.6274 12.2497 30.9353 12.2082 30.2236 12.1668H30.2214ZM23.6452 1.70998C24.0163 1.50512 24.3264 1.52474 24.6713 1.77537C24.2783 1.97152 23.8875 2.16331 23.4967 2.35946C23.1954 2.51202 22.9006 2.67766 22.595 2.82586C22.5186 2.86291 22.4116 2.87597 22.3308 2.85418C22.1649 2.80841 22.0077 2.73213 21.8461 2.66675C21.8374 2.63842 21.8308 2.61226 21.8221 2.58393C22.4312 2.29625 23.0535 2.03471 23.643 1.70998H23.6452ZM30.217 7.62058C30.4943 7.59224 30.634 7.6707 30.717 7.91479C30.7519 8.01505 30.8021 8.10876 30.8655 8.25042C30.5882 8.26132 30.3415 8.28094 30.0947 8.2744C29.7738 8.26786 29.4528 8.20902 29.1363 8.23299C28.7083 8.26568 28.4703 8.07606 28.3524 7.71864C28.9812 7.68813 29.6013 7.67942 30.217 7.6184V7.62058ZM32.872 23.6524C32.9047 23.8093 32.944 23.9945 32.9833 24.1885C32.4025 24.2256 31.8305 24.2604 31.2585 24.2953C31.0139 24.3106 30.8764 24.2234 30.8895 23.951C30.896 23.8115 30.8676 23.6698 30.8589 23.5761C31.5358 23.6001 32.1864 23.624 32.872 23.6502V23.6524ZM22.0579 1.29372C21.6343 1.54435 21.2064 1.78845 20.7872 2.04562C20.3898 2.28972 20.3942 2.29625 19.8352 2.10011C20.5776 1.6555 21.2806 1.2741 21.9378 0.825138C22.25 0.611555 22.4793 0.67913 22.8089 0.851304C22.5229 1.0213 22.2915 1.15859 22.0601 1.29372H22.0579ZM28.8699 5.02706C28.0904 5.1927 27.3503 5.3736 26.5992 5.49564C26.4507 5.51962 26.2695 5.33 26.0534 5.21231C26.8328 4.83745 27.7193 5.02706 28.3524 4.41465C28.5162 4.60862 28.6821 4.80476 28.8699 5.02706ZM32.0008 28.4667C31.9309 28.3098 31.8414 28.1115 31.7192 27.8347C32.1929 27.8717 32.6078 27.9044 33.0248 27.9349C33.4287 27.9633 33.8348 27.9654 34.2365 28.0199C34.3675 28.0374 34.4833 28.1812 34.6055 28.2684C34.5902 28.3011 34.575 28.3316 34.5597 28.3643C33.7213 28.397 32.8829 28.4318 31.9986 28.4667H32.0008ZM31.6864 19.4919C31.3785 19.4788 31.0685 19.4657 30.7083 19.4483C30.7192 19.3066 30.7083 19.1366 30.7563 18.9819C30.7847 18.8925 30.9091 18.7618 30.9812 18.7661C31.5357 18.8097 32.0881 18.8816 32.6624 18.947C32.6514 19.1105 32.6405 19.3001 32.6252 19.5224C32.2999 19.5115 31.9921 19.5028 31.6864 19.4897V19.4919ZM30.8087 20.6622C31.3655 20.6927 31.9659 20.7254 32.5881 20.7603C32.5947 20.9521 32.6012 21.1722 32.6078 21.3749C31.9899 21.3771 31.372 21.1809 30.7628 21.4926C30.7781 21.2114 30.7934 20.9346 30.8087 20.6622ZM30.7912 22.6193C31.4353 22.6455 32.0598 22.6716 32.7191 22.6978C32.741 22.8438 32.765 23.0029 32.7999 23.2317C32.1362 23.2557 31.4965 23.2797 30.8371 23.3037C30.8196 23.0421 30.8065 22.8525 30.7912 22.6193ZM28.9507 6.94495C29.3218 6.91662 29.6908 6.84905 30.0991 6.79457C30.1712 6.9188 30.2607 7.07353 30.3829 7.28276C29.6472 7.36122 28.9441 7.43531 28.1931 7.51377C28.0883 7.37429 27.9485 7.18469 27.787 6.96675C28.204 6.96021 28.5795 6.97328 28.9507 6.94495ZM30.7432 20.4159C30.7694 20.1936 30.8 19.9583 30.8305 19.6967C31.3655 19.664 31.9571 20.0018 32.6056 19.8144C32.5925 20.0171 32.5794 20.2242 32.5707 20.3832C31.9615 20.3941 31.372 20.405 30.7432 20.4159ZM20.285 0.522209C20.2544 0.559259 20.237 0.587582 20.2129 0.607197C19.809 0.951545 19.3614 1.25885 19.0099 1.65115C18.6933 2.00421 18.3462 2.06959 17.8964 2.00203C18.8767 1.00821 19.3855 0.459006 20.285 0.522209ZM29.1406 9.12219C29.0686 8.98488 28.9507 8.76041 28.8109 8.49234C29.1668 8.54247 29.4769 8.59477 29.7891 8.62529C30.0576 8.65144 30.3305 8.67977 30.5969 8.65362C31.0729 8.61003 31.0707 8.59259 31.2213 9.10693C30.5358 9.11129 29.8742 9.11783 29.1406 9.12219ZM34.1929 28.7609C34.3479 28.75 34.5182 28.774 34.6514 28.7173C34.8937 28.6106 35.0247 28.7326 35.2103 28.9331C34.8064 28.9985 34.4483 29.0682 34.0881 29.1075C33.6842 29.151 33.2759 29.1663 32.872 29.1968C32.3785 29.2339 32.3523 29.2142 32.2344 28.8939C32.8589 28.8525 33.527 28.8067 34.1929 28.7631V28.7609ZM10.8857 15.837C10.8792 16.0549 10.8704 16.2598 10.8661 16.4014C10.3224 16.7022 9.82243 16.9768 9.31153 17.2601C9.45999 16.3491 9.38576 16.3186 10.8857 15.8392V15.837ZM29.8895 6.45894C29.4441 6.51125 29.0358 6.56137 28.6254 6.60278C28.4136 6.62457 28.1974 6.61586 27.9878 6.64637C27.5271 6.70957 27.5097 6.70522 27.228 6.24318C28.0533 6.19959 28.859 6.15818 29.6712 6.11677C29.7279 6.20831 29.7913 6.30421 29.8895 6.46112V6.45894ZM34.9527 29.3733C34.9287 29.5978 34.8326 29.7046 34.5968 29.7373C34.1951 29.794 33.7955 29.8768 33.4047 29.9836C33.1405 30.0577 32.9637 30.0184 32.8305 29.77C32.7737 29.6632 32.6842 29.576 32.5925 29.4583C33.4025 29.4278 34.171 29.4017 34.9527 29.3733ZM22.2107 1.63153C22.5098 1.47461 22.8089 1.31334 23.084 1.12155C23.322 0.955914 23.3984 1.2218 23.6277 1.24141C23.3875 1.38308 23.2041 1.49858 23.0164 1.60319C22.5841 1.84293 22.1452 2.07177 21.7151 2.31368C21.4465 2.46624 21.1823 2.54252 20.8417 2.3115C21.3264 2.07177 21.7719 1.86036 22.2085 1.63153H22.2107ZM9.74601 24.097C9.6696 23.9531 9.71545 23.8725 9.86391 23.8093C10.5757 23.5085 11.2853 23.1991 11.997 22.8961C12.0385 22.8787 12.0997 22.8961 12.1499 22.9092C12.1608 22.9114 12.1761 22.9724 12.1652 22.9833C12.1302 23.016 12.0887 23.0378 12.0451 23.0596C11.9556 23.1075 11.8508 23.1337 11.7765 23.1991C11.211 23.6916 10.591 24.0904 9.87483 24.365C9.82898 24.2691 9.78749 24.182 9.74383 24.097H9.74601ZM11.0778 14.6165C11.0342 14.8519 10.9971 15.1025 10.9381 15.3488C10.9228 15.4076 10.8464 15.4665 10.7853 15.4992C10.4119 15.6931 10.0364 15.8806 9.66305 16.068C9.85955 15.3401 10.1805 14.7124 11.0778 14.6165ZM11.6783 23.7221C11.5211 24.4304 10.8246 24.6658 10.3442 25.1692C10.2176 24.9666 10.1084 24.7922 10.0233 24.6549C10.6019 24.3302 11.1521 24.0207 11.6783 23.7243V23.7221ZM20.2326 1.11282C20.4597 0.949367 20.7238 0.831688 20.9291 0.646438C21.1147 0.478623 21.2937 0.465544 21.5382 0.522209C21.0972 0.836046 20.6758 1.13027 20.261 1.4332C20.0579 1.58141 19.8418 1.72089 19.6693 1.8996C19.5055 2.0696 19.344 2.12408 19.0296 2.00203C19.4619 1.68165 19.844 1.39179 20.2326 1.115V1.11282ZM27.1232 5.99909C27.0097 6.01217 26.8852 5.91627 26.7673 5.87268C26.7739 5.84217 26.7804 5.81166 26.787 5.78115C27.5512 5.66782 28.3131 5.54359 29.0817 5.45205C29.1777 5.44116 29.2935 5.59153 29.4572 5.70704C28.6057 5.81601 27.8656 5.91845 27.1254 5.99909H27.1232ZM17.3877 2.01074C17.272 2.11753 17.034 2.09357 16.8288 2.06306C16.9423 1.96717 17.058 1.87345 17.1716 1.77537C17.2218 1.73179 17.2982 1.68819 17.3113 1.63153C17.4226 1.115 17.903 1.07141 18.2676 0.879624C18.3353 0.844753 18.4073 0.816422 18.4772 0.78591C18.4925 0.801166 18.5099 0.814246 18.5252 0.829501C18.1497 1.22616 17.7916 1.64025 17.3899 2.00857L17.3877 2.01074ZM27.8328 4.03978C27.9201 4.01363 28.0511 4.12043 28.1821 4.17492C27.4005 4.44299 26.6778 4.70233 25.9442 4.92681C25.8372 4.9595 25.6757 4.82438 25.5752 4.78079C26.335 4.52798 27.0796 4.2708 27.8328 4.03978ZM34.5204 30.2604C34.2125 30.3432 33.9003 30.426 33.5837 30.4565C33.468 30.4674 33.337 30.3345 33.2126 30.2669L33.2322 30.1732C33.7256 30.1078 34.2169 30.0424 34.7103 29.9749C34.7322 30.0075 34.754 30.0424 34.7758 30.0751C34.6929 30.1383 34.6164 30.2342 34.5226 30.2582L34.5204 30.2604ZM15.5253 2.34202C15.6323 2.11754 16.4729 1.57051 16.8812 1.49858C16.4751 1.91921 16.1716 2.42266 15.5253 2.34202ZM10.4316 14.5206C10.6827 14.0477 10.9381 13.6641 11.4643 13.5878C11.4141 14.1784 10.9316 14.3157 10.4316 14.5206ZM13.4708 2.99366C13.4577 2.96315 13.4424 2.93264 13.4293 2.90431C13.9882 2.63842 14.5494 2.37471 15.1083 2.10882C14.7415 2.81931 14.0013 2.67983 13.4708 2.99366ZM34.6164 30.5502C34.4658 30.7856 34.3566 30.96 34.2191 31.1757C34.0488 31.0297 33.8981 30.9011 33.6732 30.7072C34.0204 30.6483 34.2802 30.6069 34.6186 30.5502H34.6164ZM10.4971 25.3915C10.7111 25.2346 10.901 25.093 11.091 24.9535C11.1084 24.9622 11.1237 24.9709 11.1412 24.9796C11.0538 25.2368 10.9665 25.494 10.853 25.834C10.7001 25.6444 10.6063 25.5289 10.4971 25.3915ZM11.4206 13.25L12.128 12.5548C11.8719 12.9703 11.6361 13.2021 11.4206 13.25Z" fill="#1A1A1A"/>
<path d="M40.4222 46.8021C40.861 46.3662 41.3326 45.963 41.789 45.5468C42.8654 44.5682 43.9439 43.594 45.0159 42.6111C45.0814 42.5523 45.1207 42.428 45.1164 42.3387C45.0814 41.6805 45.1688 41.0441 45.4111 40.4273C45.5094 40.1745 45.5683 39.9064 45.6775 39.658C45.8893 39.1763 45.7605 38.7732 45.4395 38.3983C45.3631 38.3089 45.291 38.2174 45.2081 38.1368C44.409 37.3696 43.6077 36.6046 42.8086 35.8396C42.0313 35.0943 41.2082 34.3925 40.6362 33.4575C40.5423 33.3028 40.4004 33.172 40.2606 33.0544C39.9681 32.8059 39.7585 32.8604 39.5598 33.1982C39.4572 33.3704 39.348 33.5491 39.2061 33.6886C38.8393 34.0482 38.4659 34.4056 38.0707 34.7347C37.3437 35.3449 36.6734 36.0271 35.8132 36.4717C35.3568 36.707 35.0861 37.1299 34.8525 37.5745C34.6189 38.0213 34.3743 38.4615 34.1167 38.8952C33.7979 39.427 33.4661 39.95 33.1277 40.4709C32.9224 40.7869 32.6823 41.0811 32.4901 41.4037C32.4246 41.5148 32.4072 41.7001 32.453 41.82C32.5316 42.0314 32.6451 42.2493 32.8002 42.4106C33.156 42.7811 33.56 43.1058 33.9224 43.4698C34.9376 44.4876 35.9376 45.5228 36.9551 46.5384C37.3044 46.8871 37.6974 47.1922 38.0598 47.5279C38.2279 47.6826 38.4528 47.8177 38.3808 48.1098C39.4375 47.6848 39.7563 47.4647 40.4178 46.8065L40.4222 46.8021ZM39.5314 37.3064C40.3894 38.3307 41.3872 39.2047 42.3938 40.0786C43.0728 40.6649 43.6535 41.3645 44.2933 42.0314C44.0203 42.2689 43.7976 42.4651 43.5706 42.659C42.9549 43.1886 42.4527 43.8141 41.9855 44.4745C41.7191 44.8515 41.4003 45.2002 41.0663 45.5184C40.372 46.1832 39.6537 46.8217 38.9419 47.469C38.8655 47.5388 38.7803 47.5998 38.6537 47.7044C37.0075 46.035 35.3765 44.3786 33.7434 42.7266C33.4923 42.4716 33.2041 42.2493 32.9726 41.9769C32.7216 41.6805 32.7849 41.5519 33.0905 41.3187C33.5752 40.9504 34.0316 40.5407 34.5097 40.1614C35.4682 39.3965 36.4005 38.6031 37.1712 37.6442C37.5708 37.1451 37.9463 36.6286 38.348 36.0968C38.7498 36.5044 39.1711 36.8792 39.5314 37.3086V37.3064ZM43.7845 40.8065C43.7431 40.763 43.6972 40.6845 43.7081 40.6344C43.8959 39.7168 43.7278 38.8015 43.7016 37.8861C43.6972 37.7553 43.6885 37.6246 43.6776 37.4284C43.9789 37.7205 44.2736 37.8709 44.3042 38.3242C44.3675 39.2679 44.5312 40.205 44.647 41.1444C44.671 41.347 44.6666 41.5519 44.6732 41.7132C44.3915 41.4277 44.0837 41.1204 43.7824 40.8065H43.7845ZM41.944 35.6805C41.9942 35.7328 42.0401 35.8091 42.0444 35.8789C42.1449 37.0361 42.2366 38.1934 42.3326 39.3769C42.1623 39.2439 41.9811 39.111 41.813 38.9649C41.7693 38.9279 41.7409 38.8472 41.7453 38.7884C41.7999 37.5875 41.5161 36.4412 41.1733 35.3057C41.1296 35.1618 41.0859 35.0158 41.0401 34.872C41.0641 34.8589 41.0859 34.8436 41.1099 34.8306C41.3894 35.1139 41.6689 35.3929 41.944 35.6805ZM43.1186 36.8662C43.171 36.925 43.206 37.0165 43.2103 37.0972C43.2802 38.1215 43.3435 39.1437 43.4068 40.168C43.4112 40.2225 43.4156 40.277 43.4199 40.3314C43.3959 40.3423 43.3741 40.3532 43.3501 40.3641C43.1688 40.181 42.9876 39.998 42.8108 39.8149C42.7868 39.7888 42.7606 39.7517 42.7584 39.7168C42.6929 38.6271 42.6317 37.5374 42.5706 36.4477C42.5706 36.4303 42.5859 36.415 42.6143 36.3496C42.7977 36.5371 42.9658 36.6962 43.1186 36.8683V36.8662ZM40.0117 33.4597C40.6842 35.127 41.2628 36.7855 41.3414 38.6141C41.1165 38.3852 40.8894 38.1586 40.6689 37.9275C40.6471 37.9057 40.6449 37.8578 40.6493 37.8229C40.7519 37.0253 40.5052 36.2734 40.3545 35.5084C40.2672 35.0638 40.1995 34.617 40.0991 34.1767C40.0729 34.0656 39.9506 33.9763 39.8502 33.8477C39.8873 33.7605 39.9419 33.6275 40.0117 33.4597ZM40.4287 37.5854C40.0095 37.3129 39.7978 36.9468 39.7366 36.5175C39.6558 35.9443 39.5358 35.3776 39.4572 34.8066C39.4397 34.6824 39.527 34.5451 39.5641 34.4143C39.5882 34.4143 39.6122 34.4187 39.6362 34.4187C39.8982 35.467 40.1602 36.5174 40.4266 37.5832L40.4287 37.5854ZM35.8874 36.9686C35.8939 37.4459 35.9616 37.8556 35.8852 38.237C35.8394 38.4615 35.5686 38.6424 35.4005 38.8429C35.3721 38.8254 35.3459 38.8058 35.3175 38.7884C35.4158 38.1782 35.4529 37.5483 35.8896 36.9686H35.8874ZM36.3612 36.7768C36.3961 36.6482 36.6079 36.5632 36.7542 36.4477C36.8721 37.2083 36.7673 37.5069 36.169 38.0191C36.2345 37.5505 36.2629 37.1538 36.3612 36.7768ZM37.1494 36.9293C37.121 36.5087 37.1385 36.123 37.5184 35.8484C37.7891 35.6544 38.0336 35.4234 38.2891 35.2076C38.2956 35.2163 38.3022 35.2229 38.3109 35.2316C37.9245 35.7982 37.538 36.3627 37.1494 36.9293ZM39.3065 36.2734C39.289 36.2864 39.2694 36.2973 39.2519 36.3104C39.0642 36.1186 38.872 35.9312 38.693 35.7328C38.669 35.7067 38.693 35.6043 38.7279 35.5629C38.8305 35.4365 38.9463 35.3209 39.1166 35.1379C39.1886 35.5629 39.2476 35.9181 39.3065 36.2734ZM34.0774 39.8062C34.3547 39.3921 34.6298 38.9758 34.918 38.5465C35.0948 39.3027 34.4944 39.4924 34.0774 39.8062ZM44.9264 40.1614C44.9155 39.7888 44.9046 39.4139 44.8915 38.9628C45.3041 39.2657 45.302 39.4488 44.9264 40.1614Z" fill="#1A1A1A"/>
<path d="M30.4488 13.1998C30.4968 13.1693 30.5427 13.1148 30.5929 13.1126C31.1016 13.0887 31.6125 13.0647 32.1234 13.0647C32.1933 13.0647 32.2631 13.1911 32.333 13.2587C32.25 13.3066 32.1714 13.3894 32.0863 13.396C31.8658 13.4134 31.6409 13.4069 31.4182 13.3894C31.0929 13.3633 30.7697 13.3197 30.4466 13.2826C30.4466 13.2543 30.4488 13.2282 30.451 13.1998H30.4488Z" fill="#1A1A1A"/>
</svg>
