<svg width="64" height="63" viewBox="0 0 64 63" fill="none" xmlns="http://www.w3.org/2000/svg">
<path d="M23.168 42.8276C23.7898 43.0461 24.4501 43.1876 25.0373 43.4761C26.517 44.2033 28.0399 44.797 29.616 45.2764C30.0693 45.4131 30.5198 45.4553 30.9814 45.4718C31.6665 45.4967 32.3514 45.4602 33.0276 45.6698C33.5459 45.8317 33.8736 45.551 33.9063 45.0086C33.9123 44.9216 33.8919 44.8312 33.9068 44.747C33.933 44.6 33.9482 44.4367 34.0236 44.3132C36.0103 41.1023 38.7552 38.8619 42.3749 37.7108C43.9483 37.2101 45.3794 36.429 46.5457 35.242C47.5458 34.226 48.518 33.1804 49.4526 32.1052C50.7748 30.5823 51.7701 28.8587 52.4298 26.9413C52.9386 25.4633 53.2482 23.9715 52.969 22.3944C52.884 21.9137 52.9671 21.4065 52.9423 20.9139C52.9202 20.5014 52.922 20.0689 52.7941 19.6847C52.3043 18.2083 51.5012 16.9507 50.2435 15.9761C48.6559 14.7481 47.2062 13.3516 45.5196 12.2398C44.0494 11.2683 42.6888 10.1258 41.2393 9.11878C39.7325 8.07283 38.0733 7.3461 36.2528 7.02468C34.21 6.66456 32.1817 6.80987 30.1931 7.32637C25.2983 8.59465 21.101 11.107 17.465 14.5897C16.8463 15.1834 16.3456 15.8754 15.9943 16.669C15.9356 16.8009 15.7873 16.8936 15.7061 17.0201C15.6645 17.0863 15.6389 17.2156 15.6741 17.2687C15.7526 17.3853 15.8631 17.4925 15.9845 17.5644C16.4911 17.868 16.9995 18.1707 17.5211 18.4467C19.5928 19.5511 21.6655 20.6526 23.7494 21.7334C24.2403 21.9886 24.7567 22.2032 25.3558 21.9799C25.6461 21.8718 25.9856 21.876 26.3024 21.8699C26.8921 21.8586 27.4838 21.8932 28.0745 21.8789C28.327 21.8721 28.5849 21.8008 28.5619 21.4429C28.5582 21.403 28.6127 21.3522 28.651 21.3173C29.3915 20.6226 30.129 19.9222 30.8784 19.2352C31.9992 18.2052 33.3031 17.4959 34.7611 17.0754C35.8595 16.7576 36.9139 17.0029 37.9883 17.3191C38.9322 17.5978 39.6221 18.1381 40.2022 18.8865C40.2623 18.9634 40.3224 19.0404 40.3786 19.1194C41.8354 21.0966 41.9735 23.3989 40.7536 25.3416C40.2097 26.2043 39.4131 26.7829 38.5447 27.2808C37.3322 27.9767 36.012 28.4111 34.6999 28.8658C31.8879 29.8393 29.539 31.4649 27.6388 33.7623C26.2972 35.3842 25.1414 37.1256 24.1596 38.9827C23.6245 39.9936 23.1585 41.0422 22.6639 42.0738C22.5994 42.2088 22.5467 42.3475 22.4657 42.5355C22.6763 42.6271 22.9157 42.7455 23.1672 42.8354L23.168 42.8276ZM45.686 32.564C45.9371 33.2533 46.1851 33.927 46.4528 34.6619C46.1314 34.9639 45.7372 35.3336 45.3536 35.6953C45.0117 35.1474 44.6929 34.6293 44.3605 34.1182C44.295 34.017 44.1756 33.949 44.0813 33.8678C44.0593 33.8917 44.0364 33.9136 44.0164 33.9364C44.3371 34.5941 44.6579 35.2518 44.9898 35.9308C44.8051 36.0524 44.6376 36.1601 44.501 36.2516C44.1281 35.5695 43.7603 34.9019 43.3853 34.216C43.9211 33.8533 44.4559 33.4936 44.9897 33.1319C45.0147 33.1187 45.0389 33.1085 45.065 33.0972C45.2711 32.9224 45.4771 32.7476 45.6889 32.5649L45.686 32.564ZM16.1412 17.2158C16.3313 16.6449 16.6326 16.1735 16.9825 15.7333C17.8475 14.6477 18.9009 13.7567 19.9984 12.9215C22.8165 10.7783 25.8646 9.05434 29.2713 8.02741C31.4113 7.38208 33.5934 7.12156 35.8262 7.43117C37.571 7.67399 39.1651 8.31898 40.6273 9.27988C43.1255 10.9199 45.2943 12.9499 47.3075 15.143C48.4298 16.3662 49.2972 17.7554 49.6967 19.3976C50.1645 21.3196 50.1624 23.2517 49.7348 25.1704C48.9333 28.7725 46.8178 31.4567 43.7577 33.4015C42.3176 34.3156 40.7948 35.1004 39.2891 35.9034C37.4621 36.8776 35.644 37.8594 34.0328 39.1741C32.9518 40.0549 31.913 40.9876 31.2917 42.2608C30.9586 42.9437 30.7437 43.6879 30.4993 44.413C30.3633 44.8198 30.1438 44.9548 29.7347 44.8367C28.0679 44.3581 26.4697 43.7054 24.8815 43.0154C24.3068 42.7648 23.6875 42.6214 23.0602 42.4206C23.2784 41.983 23.5035 41.5491 23.7089 41.1059C24.5374 39.3366 25.4371 37.609 26.5636 36.0088C27.4305 34.7767 28.3798 33.6124 29.4631 32.5627C30.9374 31.1325 32.6972 30.1616 34.5954 29.4262C35.6625 29.0113 36.746 28.6323 37.7998 28.1874C39.0093 27.678 40.1179 27.0046 40.9206 25.9222C42.5053 23.788 42.4346 20.9299 40.7224 18.7193C39.426 17.0475 37.6838 16.0783 35.6445 15.6498C32.5896 15.0074 29.9381 16.0101 27.5131 17.7767C26.6782 18.3853 25.8399 19.0204 25.2553 19.8994C25.0274 20.2436 24.8677 20.6332 24.6882 21.0086C24.62 21.1554 24.5854 21.3191 24.5185 21.5293C21.6694 20.1351 18.8724 18.7605 16.1431 17.2147L16.1412 17.2158ZM29.046 20.3256C28.3658 19.7803 27.7043 19.2472 27.0181 18.6951C27.2416 18.5161 27.4498 18.35 27.6244 18.209C28.2069 18.6948 28.7578 19.1626 29.323 19.6155C29.3993 19.6765 29.5942 19.7147 29.6372 19.67C29.7852 19.5207 29.6109 19.4371 29.5127 19.358C29.0329 18.9787 28.5493 18.6062 28.0686 18.2298C28.0022 18.1784 27.9395 18.12 27.8462 18.0408C28.1541 17.8396 28.4351 17.6575 28.6872 17.4906C29.1754 17.9421 29.6328 18.3726 30.1027 18.7892C30.1633 18.8437 30.286 18.8336 30.3771 18.8523C30.3516 18.7523 30.3585 18.6154 30.2949 18.5552C29.9139 18.1954 29.5178 17.8535 29.1254 17.5047C29.0747 17.4598 29.0241 17.4149 28.891 17.2973C29.208 17.1604 29.4754 17.0274 29.7563 16.9342C29.8318 16.9093 29.9651 16.9849 30.0415 17.0507C30.4227 17.3783 30.7916 17.7197 31.17 18.0512C31.2375 18.1095 31.3317 18.1389 31.4471 18.1992C31.5147 17.8826 31.3467 17.7315 31.1586 17.5936C30.81 17.3377 30.4576 17.0838 30.029 16.7737C30.4966 16.6095 30.8838 16.4703 31.2732 16.3398C31.3216 16.3243 31.396 16.3346 31.4366 16.365C31.8814 16.7011 32.3224 17.0441 32.8159 17.4261C31.3052 18.1306 30.2339 19.3344 29.0431 20.3247L29.046 20.3256ZM52.5881 24.402C52.4608 24.9941 52.3318 25.597 52.1913 26.2528C51.5638 25.6673 50.9851 25.1278 50.4142 24.5843C50.3704 24.5431 50.3528 24.4488 50.3593 24.3813C50.3768 24.1896 50.4099 23.9996 50.4467 23.7509C50.5275 23.8392 50.5813 23.8948 50.6323 23.9543C50.9677 24.3306 51.2954 24.7109 51.6423 25.0762C51.746 25.1845 51.8891 25.2648 52.0278 25.3226C52.0819 25.346 52.1921 25.298 52.2437 25.2462C52.2666 25.2243 52.2269 25.0972 52.1812 25.0522C51.6554 24.5244 51.1018 24.0234 50.6086 23.4686C50.4698 23.3121 50.4976 23.0041 50.4498 22.7678C51.24 23.2505 51.6764 24.0768 52.5881 24.402ZM28.8303 20.5992C28.8098 20.6445 28.8063 20.666 28.7939 20.6799C28.3651 21.2134 28.3923 21.1621 27.9141 20.814C27.322 20.3802 26.7242 19.9543 26.0956 19.5026C26.358 19.2711 26.6138 19.0455 26.8427 18.8439C27.5261 19.4469 28.1797 20.0259 28.8273 20.5983L28.8303 20.5992ZM34.0075 43.1996C33.6199 42.3724 33.269 41.6245 32.8926 40.8233C33.056 40.6611 33.2634 40.456 33.4641 40.2569C33.8788 40.9763 34.2844 41.6831 34.7133 42.4295C34.4739 42.6908 34.2641 42.9194 34.0075 43.1996ZM36.1993 40.717C36.0349 40.8773 35.8025 41.1004 35.551 41.3435C35.1521 40.7244 34.7662 40.1255 34.3623 39.5016C34.6523 39.2803 34.9346 39.0679 35.1948 38.8697C35.5354 39.4948 35.8547 40.0841 36.1993 40.717ZM42.249 34.8694C42.548 35.5607 42.841 36.2404 43.145 36.9414C42.9042 37.0358 42.6353 37.1425 42.3828 37.243C42.2335 36.9071 42.1087 36.5805 41.9463 36.2713C41.7849 35.9639 41.582 35.6759 41.3803 35.3527C41.683 35.1839 41.9607 35.0282 42.2509 34.8684L42.249 34.8694ZM44.1405 36.4557C43.9205 36.5712 43.7006 36.6867 43.4893 36.8001C43.1453 36.1028 42.8116 35.4297 42.4707 34.7431C42.7173 34.5939 42.9398 34.4598 43.1864 34.3106C43.5126 35.0443 43.8225 35.7423 44.1386 36.4567L44.1405 36.4557ZM52.1546 23.7172C51.6299 23.2899 51.1061 22.8596 50.5871 22.4244C50.5375 22.3815 50.5083 22.2932 50.504 22.2239C50.4893 22.0319 50.4931 21.8376 50.4894 21.5633C50.7015 21.7281 50.8709 21.8586 51.0404 21.9891C51.529 22.3663 52.0184 22.7406 52.5051 23.1189C52.5457 23.1493 52.5859 23.2071 52.5888 23.2549C52.6005 23.4929 52.5996 23.7301 52.6049 24.0356C52.4139 23.9016 52.2786 23.8173 52.1536 23.7153L52.1546 23.7172ZM47.418 33.6076C47.3174 33.3645 47.2312 33.1533 47.14 32.9422C47.0058 32.6305 46.8813 32.3136 46.7269 32.0149C46.6172 31.8013 46.6237 31.6449 46.8175 31.4889C46.9575 31.3759 47.0706 31.2303 47.2138 31.0811C47.493 31.7113 47.763 32.3192 48.0493 32.9629C47.8487 33.1669 47.6492 33.3728 47.4199 33.6066L47.418 33.6076ZM42.0593 37.3488C41.8056 37.4376 41.6168 37.5047 41.427 37.5699C41.1079 36.9951 40.796 36.4339 40.4719 35.8495C40.701 35.7514 40.963 35.6409 41.2501 35.5173C41.5037 36.0894 41.7759 36.706 42.0582 37.3469L42.0593 37.3488ZM48.2519 30.9157C48.3807 31.25 48.4979 31.5905 48.6625 31.9085C48.7741 32.1211 48.7919 32.2721 48.5912 32.4243C48.5067 32.4884 48.4402 32.5727 48.3485 32.6652C48.0395 32.1049 47.7346 31.5573 47.4414 31.0035C47.4119 30.9474 47.433 30.8328 47.4747 30.7764C47.5933 30.613 47.7326 30.4659 47.866 30.312C47.9193 30.2963 47.9716 30.2787 48.0268 30.262C48.1015 30.4793 48.1724 30.6986 48.2539 30.9147L48.2519 30.9157ZM34.1657 39.6616C34.5382 40.3242 34.8977 40.9665 35.2804 41.6484C35.1729 41.7812 35.0263 41.9568 34.8989 42.1126C34.495 41.4418 34.09 40.7691 33.673 40.0781C33.8359 39.9383 33.9903 39.8104 34.1657 39.6616ZM37.3194 37.5246C37.6915 37.3145 37.8238 37.3461 38.0232 37.7445C38.136 37.9688 38.1977 38.2175 38.3009 38.4469C38.3755 38.6124 38.482 38.7637 38.5881 38.9422C38.5092 38.9935 38.4169 39.0568 38.3236 39.1182C38.2283 39.1805 38.131 39.239 38.0164 39.3115C37.6939 38.7583 37.3845 38.2253 37.0661 37.6799C37.1576 37.6244 37.2365 37.5731 37.3175 37.5257L37.3194 37.5246ZM45.873 32.414C46.0471 32.2486 46.2136 32.0921 46.4183 31.9008C46.5179 32.1419 46.6159 32.3568 46.6956 32.5788C46.8188 32.9259 46.9082 33.2884 47.0517 33.6273C47.142 33.8413 47.1224 33.9823 46.9468 34.1213C46.8653 34.1864 46.7988 34.2706 46.7395 34.3313C46.4534 33.6974 46.1683 33.0653 45.874 32.4159L45.873 32.414ZM52.0737 21.7301C52.4276 21.9635 52.5544 22.2471 52.4929 22.6691C52.1365 22.4123 51.785 22.1555 51.4296 21.9006C51.1545 21.7048 50.8708 21.5208 50.5975 21.3191C50.5291 21.2687 50.4678 21.1801 50.4496 21.0984C50.4129 20.9302 50.4074 20.7556 50.3902 20.5821C50.4112 20.5612 50.4313 20.5433 50.4523 20.5224C50.9902 20.9279 51.5111 21.3572 52.0726 21.7282L52.0737 21.7301ZM49.8961 30.2965C50.0501 30.5288 50.0456 30.689 49.868 30.8759C49.7955 30.9535 49.7359 31.0415 49.6399 31.1634C49.5013 30.923 49.3693 30.7137 49.2603 30.4922C49.1169 30.205 49.0198 29.8935 48.8514 29.6244C48.6235 29.2607 48.6807 28.9618 48.9424 28.6913C49.2617 29.2338 49.5577 29.7787 49.898 30.2955L49.8961 30.2965ZM36.9366 40.1005C36.8129 40.2024 36.6671 40.3234 36.5137 40.4483C36.2109 39.9514 35.914 39.4611 35.6172 38.9709C35.49 38.7615 35.5032 38.5992 35.7505 38.4841C35.8771 38.4251 35.9893 38.3341 36.0682 38.2828C36.3617 38.8932 36.6429 39.4804 36.9385 40.0995L36.9366 40.1005ZM51.7042 20.1313C51.2854 19.8728 50.8704 19.6074 50.4478 19.3558C50.0469 19.1175 50.0432 19.1244 49.957 18.5384C50.6957 18.9889 51.3603 19.434 52.0633 19.8071C52.3975 19.9842 52.4443 20.2186 52.4451 20.5906C52.1616 20.4164 51.9325 20.2753 51.7053 20.1332L51.7042 20.1313ZM51.5659 27.898C51.0569 27.2849 50.5526 26.7138 50.0954 26.1055C50.0052 25.9852 50.0888 25.7366 50.0925 25.4905C50.7868 26.0064 51.031 26.8793 51.8676 27.1552C51.772 27.3903 51.6755 27.6284 51.5659 27.898ZM32.2692 41.5675C32.3756 41.4327 32.5096 41.2612 32.6978 41.0243C32.8852 41.461 33.0492 41.8434 33.216 42.2268C33.3787 42.5976 33.5656 42.9582 33.7042 43.3392C33.7496 43.4633 33.6761 43.6326 33.6557 43.7814C33.6197 43.7831 33.5856 43.7837 33.5495 43.7854C33.1308 43.0583 32.7101 42.3322 32.2681 41.5655L32.2692 41.5675ZM40.0689 37.1166C39.9374 36.8379 39.8048 36.5574 39.6527 36.2303C39.7832 36.1741 39.9287 36.0854 40.088 36.056C40.1803 36.0396 40.3539 36.089 40.3836 36.1548C40.6028 36.666 40.796 37.1885 41.005 37.7273C40.8552 37.7937 40.6823 37.8721 40.4784 37.962C40.3368 37.6689 40.2014 37.3923 40.0708 37.1156L40.0689 37.1166ZM38.6247 36.8836C38.8565 37.3907 39.1067 37.9375 39.3651 38.5046C39.1984 38.5996 39.0065 38.7077 38.8301 38.8078C38.5409 38.2617 38.4273 37.6235 37.8682 37.2291C38.1242 37.1119 38.3764 36.9967 38.6247 36.8836ZM36.8838 37.778C37.1601 38.3604 37.4273 38.9255 37.7107 39.5214C37.5915 39.6086 37.4618 39.7038 37.2755 39.8411C36.9457 39.2647 36.627 38.7094 36.2992 38.1368C36.5227 37.9997 36.6845 37.9 36.8838 37.778ZM49.9055 28.8612C50.1031 29.1767 50.3345 29.4719 50.5726 29.8081C50.4961 29.9296 50.4007 30.0808 50.2723 30.2863C49.8608 29.6714 49.4683 29.0834 49.0496 28.4549C49.1244 28.2973 49.2273 28.0854 49.3451 27.841C49.5448 28.2072 49.7078 28.5458 49.9055 28.8612ZM38.8123 36.7111C39.0213 36.631 39.2439 36.5486 39.4896 36.4541C39.7673 36.9125 39.7433 37.5934 40.2107 38.0803C40.0251 38.163 39.8357 38.2476 39.6908 38.3139C39.398 37.7796 39.1143 37.2628 38.8123 36.7111ZM51.5631 18.203C51.5161 18.1931 51.4829 18.1908 51.4543 18.1787C50.9617 17.9812 50.4815 17.7278 49.9708 17.5989C49.511 17.4828 49.2917 17.2059 49.1424 16.7762C50.4781 17.1821 51.2008 17.3772 51.5631 18.203ZM48.0662 30.0416C48.1542 29.914 48.2982 29.7053 48.4705 29.4569C48.5916 29.7953 48.6894 30.0941 48.8076 30.3847C48.9093 30.6346 49.0111 30.8894 49.1581 31.1131C49.4179 31.5142 49.4324 31.5042 49.047 31.8767C48.7245 31.2718 48.4111 30.6891 48.0662 30.0416ZM33.0278 43.645C33.1095 43.7772 33.1675 43.9391 33.2796 44.0307C33.4868 44.1956 33.4396 44.3683 33.3484 44.6259C33.1027 44.2987 32.8745 44.0141 32.6723 43.7134C32.4459 43.376 32.2426 43.0216 32.0278 42.6782C31.7656 42.2586 31.7707 42.2262 31.9996 41.9729C32.3265 42.5065 32.6777 43.0767 33.0259 43.646L33.0278 43.645ZM33.6342 17.0014C33.4382 17.0969 33.2527 17.1844 33.1253 17.2464C32.6063 16.9049 32.1307 16.5899 31.6423 16.2693C32.5179 15.9772 32.5104 15.8973 33.6323 17.0024L33.6342 17.0014ZM50.7723 29.4665C50.5189 29.0964 50.2847 28.7583 50.0572 28.4141C49.9394 28.2367 49.8466 28.0413 49.7222 27.8699C49.452 27.4914 49.4478 27.474 49.7259 27.0098C50.1482 27.7202 50.5594 28.4142 50.9737 29.1141C50.919 29.2069 50.8636 29.3075 50.7703 29.4675L50.7723 29.4665ZM32.8388 44.6025C32.6289 44.6856 32.4897 44.6501 32.3511 44.4566C32.1142 44.1272 31.8551 43.812 31.5789 43.5156C31.3904 43.3162 31.343 43.1414 31.501 42.908C31.5692 42.808 31.6047 42.6883 31.6663 42.5524C32.0699 43.2553 32.4504 43.9236 32.8388 44.6025ZM51.4762 20.4236C51.7542 20.6155 52.0361 20.8054 52.3338 20.9598C52.591 21.0935 52.3912 21.2847 52.4804 21.4968C52.2433 21.35 52.0558 21.2414 51.8759 21.1238C51.4626 20.8525 51.056 20.5703 50.6418 20.302C50.3819 20.1352 50.1916 19.9367 50.2378 19.5278C50.6753 19.8454 51.0696 20.1415 51.4752 20.4217L51.4762 20.4236ZM25.7913 19.8325C25.8831 19.698 25.9758 19.7011 26.1008 19.8032C26.698 20.2935 27.3019 20.7779 27.901 21.2672C27.9357 21.2958 27.9487 21.3581 27.9605 21.4086C27.9636 21.4193 27.9167 21.4612 27.902 21.4566C27.8568 21.4408 27.8182 21.4142 27.7786 21.3857C27.6946 21.3288 27.6227 21.2481 27.5303 21.2128C26.8313 20.9411 26.1899 20.5776 25.6139 20.0712C25.6774 19.986 25.7353 19.9088 25.7903 19.8306L25.7913 19.8325ZM34.8041 16.6041C34.5754 16.6748 34.3362 16.7585 34.0908 16.8208C34.0316 16.8346 33.9439 16.7943 33.8866 16.7554C33.5413 16.515 33.2007 16.2697 32.8612 16.0263C33.597 15.8618 34.302 15.8542 34.8041 16.6041ZM27.0215 21.369C26.3213 21.5591 25.7891 21.0519 25.1201 20.8607C25.2407 20.6544 25.3443 20.4767 25.4262 20.3374C25.9827 20.6987 26.5125 21.042 27.0196 21.37L27.0215 21.369ZM51.0158 18.4312C51.2661 18.5562 51.4931 18.7354 51.7525 18.831C51.9874 18.9173 52.0822 19.0697 52.1457 19.3125C51.6628 19.068 51.2064 18.8317 50.7453 18.6053C50.5197 18.4944 50.2957 18.3679 50.0573 18.2982C49.8307 18.2323 49.7074 18.1146 49.6692 17.7795C50.1539 18.0133 50.5881 18.2168 51.0139 18.4322L51.0158 18.4312ZM49.8933 26.8035C49.8289 26.7091 49.856 26.5543 49.8398 26.4297C49.8698 26.4213 49.8999 26.4129 49.9299 26.4045C50.3855 27.0284 50.8498 27.6453 51.2881 28.2831C51.3424 28.3631 51.2631 28.5355 51.237 28.7342C50.7446 28.0309 50.3098 27.4233 49.8943 26.8055L49.8933 26.8035ZM48.8982 16.3299C48.7498 16.2771 48.6604 16.0552 48.592 15.8594C48.7297 15.9153 48.8665 15.9742 49.0061 16.0291C49.068 16.0533 49.1421 16.1007 49.1984 16.0859C49.7075 15.9444 49.9694 16.3494 50.3087 16.583C50.371 16.6267 50.4296 16.6774 50.4891 16.725C50.4827 16.7457 50.4793 16.7672 50.4729 16.7878C49.9471 16.6397 49.414 16.5153 48.9011 16.3308L48.8982 16.3299ZM51.9579 26.5208C52.0216 26.586 51.988 26.7516 52.0006 26.893C51.3999 26.3256 50.8343 25.8063 50.2945 25.2612C50.2158 25.1816 50.2603 24.9758 50.2522 24.8666C50.8293 25.4218 51.4031 25.9613 51.9579 26.5208ZM31.8525 44.6321C31.6361 44.398 31.4176 44.1601 31.2434 43.894C31.18 43.7966 31.2368 43.6189 31.2387 43.4773L31.3308 43.4511C31.6181 43.8576 31.9044 44.2621 32.1936 44.6675C32.1748 44.7021 32.1541 44.7376 32.1353 44.7721C32.0408 44.7281 31.9203 44.705 31.8555 44.633L31.8525 44.6321ZM47.739 14.835C47.9875 14.8254 48.8626 15.3153 49.1161 15.6433C48.5549 15.4793 47.9681 15.4447 47.739 14.835ZM34.5885 15.9873C35.124 15.9897 35.5823 16.0376 35.8945 16.468C35.3482 16.6981 35.0023 16.3347 34.5885 15.9873ZM46.2069 13.319C46.2278 13.2932 46.2477 13.2655 46.2667 13.2407C46.762 13.612 47.2564 13.9862 47.7516 14.3574C46.9521 14.363 46.7314 13.6428 46.2069 13.319ZM31.6406 44.8519C31.3621 44.828 31.157 44.8124 30.902 44.7909C30.9521 44.5722 30.9959 44.3791 31.0631 44.0898C31.2766 44.3698 31.4341 44.5806 31.6416 44.8538L31.6406 44.8519ZM24.9943 21.0994C25.2327 21.2159 25.4465 21.3182 25.6583 21.4215C25.6587 21.441 25.6581 21.4586 25.6585 21.4781C25.3902 21.5204 25.1219 21.5626 24.7681 21.6201C24.8649 21.3967 24.9235 21.2599 24.9943 21.0994ZM36.1733 16.2722L37.1177 16.5753C36.6307 16.5417 36.3159 16.4407 36.1733 16.2722Z" fill="#1A1A1A"/>
<path d="M19.9503 57.5477C20.5403 57.7336 21.1165 57.9637 21.6972 58.1741C23.064 58.6722 24.4279 59.1742 25.7966 59.6663C25.8791 59.697 26.0074 59.674 26.0844 59.6286C26.6509 59.2917 27.255 59.0731 27.9137 59.0009C28.1832 58.9704 28.448 58.8979 28.7187 58.8791C29.2436 58.8427 29.5406 58.5412 29.7233 58.0827C29.7669 57.9735 29.8145 57.8672 29.8473 57.7562C30.155 56.6921 30.4597 55.627 30.7655 54.5639C31.064 53.5292 31.3026 52.4742 31.8645 51.533C31.9578 51.378 32.0076 51.1915 32.0468 51.0131C32.1308 50.6386 31.9851 50.4783 31.5937 50.4595C31.3935 50.4486 31.1845 50.4351 30.9951 50.3743C30.5062 50.2167 30.0161 50.0524 29.541 49.8555C28.6627 49.4955 27.7472 49.2192 26.9536 48.6643C26.5331 48.3697 26.0328 48.3266 25.5306 48.3265C25.0264 48.3273 24.523 48.3155 24.0192 48.289C23.4002 48.2541 22.7828 48.2034 22.1643 48.146C21.7891 48.1112 21.417 48.0353 21.0421 48.0152C20.9132 48.0089 20.7411 48.0795 20.6563 48.1759C20.5056 48.3437 20.3655 48.5456 20.2948 48.7578C20.1322 49.2451 20.0325 49.7537 19.8787 50.2438C19.4496 51.6159 18.998 52.9825 18.5718 54.3555C18.4255 54.8269 18.3381 55.3166 18.2095 55.7936C18.1506 56.0144 18.1355 56.2763 17.8435 56.3483C18.711 57.0863 19.0541 57.2662 19.9444 57.5459L19.9503 57.5477ZM27.9432 52.3443C27.4353 53.5802 27.1254 54.8699 26.8196 56.1674C26.6162 57.0411 26.2669 57.8805 25.9738 58.757C25.6366 58.6258 25.3594 58.5198 25.0821 58.4089C24.327 58.1101 23.5398 57.9563 22.7379 57.8496C22.2802 57.7891 21.8233 57.669 21.3863 57.5211C20.475 57.2155 19.5756 56.8764 18.6716 56.5472C18.5744 56.5119 18.4808 56.4649 18.3293 56.4014C19.0419 54.1678 19.7501 51.9537 20.4535 49.7398C20.5625 49.3989 20.6253 49.0404 20.7589 48.7089C20.9046 48.3488 21.0479 48.345 21.3965 48.5073C21.9479 48.7651 22.5228 48.9787 23.0809 49.2257C24.2037 49.7186 25.3395 50.1752 26.5469 50.4117C27.1745 50.5335 27.8064 50.6258 28.464 50.7342C28.2899 51.2794 28.1539 51.8268 27.9413 52.3453L27.9432 52.3443ZM26.8217 57.7371C26.841 57.6801 26.8892 57.6031 26.9387 57.5894C27.8383 57.3291 28.5705 56.7547 29.3688 56.3059C29.4825 56.2412 29.5942 56.1727 29.7628 56.0719C29.6443 56.4744 29.6482 56.8053 29.2611 57.0431C28.455 57.5379 27.7014 58.1186 26.9236 58.6577C26.7553 58.7732 26.5719 58.8646 26.4322 58.9454C26.554 58.5633 26.6829 58.1479 26.8207 57.7352L26.8217 57.7371ZM30.5044 53.7244C30.4814 53.7932 30.4352 53.8693 30.3755 53.9055C29.3975 54.5325 28.4156 55.1517 27.4125 55.787C27.451 55.5744 27.4845 55.3521 27.5356 55.1354C27.5481 55.0795 27.6063 55.0169 27.6604 54.9934C28.749 54.4834 29.632 53.6992 30.4779 52.8678C30.585 52.7622 30.6939 52.6557 30.8 52.5482C30.8227 52.5634 30.8464 52.5756 30.8691 52.5908C30.7482 52.97 30.6312 53.3471 30.5044 53.7244ZM30.0008 55.3156C29.973 55.3893 29.9082 55.4628 29.8389 55.5042C28.9645 56.0423 28.0889 56.5735 27.2115 57.1058C27.1653 57.135 27.1191 57.1642 27.0729 57.1934C27.052 57.1772 27.0323 57.163 27.0114 57.1468C27.0893 56.9012 27.1671 56.6557 27.2469 56.414C27.2589 56.3805 27.2796 56.3401 27.3094 56.322C28.2438 55.7574 29.1801 55.1966 30.1165 54.6359C30.1319 54.6278 30.1525 54.6342 30.2236 54.6289C30.1429 54.8784 30.0802 55.1013 29.9988 55.3166L30.0008 55.3156ZM31.5722 50.9812C30.4088 52.3517 29.2094 53.635 27.627 54.5547C27.725 54.2492 27.8202 53.9428 27.9222 53.6402C27.9313 53.6107 27.9727 53.5865 28.0056 53.5742C28.7596 53.2942 29.3106 52.7262 29.9178 52.2371C30.2708 51.9531 30.6349 51.6855 30.978 51.3919C31.0642 51.317 31.0865 51.1672 31.1536 51.0185C31.2481 51.0108 31.3912 50.9974 31.5722 50.9812ZM28.1135 53.2685C28.1598 52.7707 28.3854 52.413 28.7371 52.1592C29.2071 51.8212 29.6529 51.4514 30.1219 51.1164C30.2238 51.0432 30.386 51.0567 30.519 51.0287C30.5302 51.05 30.5375 51.0733 30.5486 51.0945C29.7423 51.8139 28.9341 52.5342 28.1144 53.2655L28.1135 53.2685ZM26.5482 48.961C26.1286 49.1887 25.7974 49.4391 25.4242 49.5488C25.2041 49.6126 24.9181 49.457 24.6624 49.4013C24.6646 49.3681 24.6698 49.3358 24.6721 49.3026C25.258 49.1058 25.8329 48.8459 26.5492 48.963L26.5482 48.961ZM26.9382 49.2913C27.0683 49.2625 27.242 49.4105 27.4123 49.4863C26.7937 49.9443 26.4807 49.9903 25.7491 49.6988C26.1944 49.5389 26.5588 49.3796 26.9382 49.2913ZM27.1696 50.0601C27.5288 49.8394 27.8785 49.6755 28.2982 49.8842C28.5958 50.0337 28.914 50.1428 29.2238 50.2687C29.2191 50.2785 29.2164 50.2873 29.2128 50.2991C28.5314 50.2204 27.852 50.1407 27.1696 50.0601ZM28.7533 51.6649C28.7336 51.6555 28.7148 51.6432 28.6951 51.6338C28.7776 51.3784 28.8543 51.1212 28.9466 50.8705C28.9586 50.837 29.0604 50.8107 29.1133 50.8224C29.273 50.8544 29.429 50.9032 29.6703 50.9688C29.3275 51.2302 29.0404 51.4476 28.7533 51.6649ZM23.1944 48.6778C23.6899 48.7308 24.1864 48.7808 24.7005 48.8363C24.1131 49.3445 23.6661 48.9011 23.1944 48.6778ZM27.9238 58.4482C28.2486 58.2652 28.5754 58.0813 28.9688 57.86C28.8924 58.3661 28.7293 58.4493 27.9238 58.4482Z" fill="#1A1A1A"/>
<path d="M45.0639 33.0953C45.1133 33.1236 45.1828 33.1389 45.2081 33.1823C45.4659 33.6216 45.7246 34.0628 45.9621 34.5151C45.9946 34.577 45.9152 34.6976 45.8878 34.7909C45.8068 34.7397 45.6969 34.7086 45.6516 34.6363C45.5336 34.4491 45.4349 34.247 45.3468 34.0417C45.2187 33.7415 45.107 33.4352 44.9896 33.1319C45.0147 33.1187 45.0388 33.1085 45.0649 33.0972L45.0639 33.0953Z" fill="#1A1A1A"/>
</svg>
