<svg width="86" height="121" viewBox="0 0 86 121" fill="none" xmlns="http://www.w3.org/2000/svg">
<path d="M64.8663 82.4137C64.7272 81.9778 64.6364 81.6538 64.5185 81.3395C63.6201 78.9268 62.7873 76.4851 61.7962 74.111C59.9742 69.7523 57.7369 65.6154 55.059 61.7061C51.2682 56.1729 46.3337 52.0437 40.2205 49.282C37.3726 47.9936 34.4977 46.7439 31.9184 44.9368C30.0751 43.6446 28.4039 42.1866 27.3606 40.1403C25.0169 35.5405 25.8014 30.4181 29.4743 26.2967C29.6192 26.1327 29.7699 25.9746 29.9186 25.8145C31.3696 24.262 33.0293 23.1974 35.2068 22.7692C37.6837 22.2832 40.0988 21.9534 42.4985 22.8927C45.6787 24.1366 48.4628 25.9977 50.7659 28.5339C52.3038 30.2291 53.8147 31.9475 55.3353 33.6582C55.4126 33.745 55.5208 33.8684 55.5053 33.9591C55.3778 34.7556 55.9419 34.9697 56.5081 35.0372C57.8296 35.1953 59.1627 35.2397 60.4862 35.3863C61.1992 35.4653 61.9623 35.5251 62.5903 35.8279C63.8867 36.4547 65.0904 36.0786 66.2438 35.6119C71.1417 33.6293 76.0164 31.5907 80.891 29.5541C82.116 29.0411 83.3197 28.4702 84.5176 27.8994C84.8035 27.7624 85.074 27.5445 85.2749 27.3015C85.3677 27.1896 85.3348 26.8965 85.2537 26.7383C85.0972 26.4375 84.7842 26.2041 84.6798 25.8936C84.0538 24.046 83.0762 22.3932 81.8088 20.9351C74.3683 12.3836 65.4614 5.88996 54.7402 2.03273C50.3853 0.464759 45.8642 -0.283545 41.2059 0.0983218C37.0596 0.437759 33.1858 1.71836 29.5902 3.74727C26.1317 5.69903 22.8491 7.97094 19.3482 9.83785C15.3352 11.9786 11.7956 14.8002 7.98363 17.2187C4.95991 19.1376 2.90223 21.7837 1.50147 24.9852C1.1363 25.8184 1.04936 26.7865 0.917979 27.7046C0.759547 28.802 0.842626 29.9553 0.554745 31.0121C-0.393911 34.4856 -0.00748853 37.8857 0.831038 41.3013C1.9188 45.7256 3.79486 49.7892 6.45149 53.4728C8.32754 56.0746 10.2983 58.6145 12.3308 61.0967C14.7034 63.9935 17.7561 66.0436 21.1837 67.49C29.0705 70.8169 34.772 76.406 38.5705 84.0029C38.7154 84.2922 38.7116 84.6605 38.7425 84.9942C38.7599 85.1851 38.6981 85.3838 38.6903 85.5805C38.6517 86.7994 39.3298 87.4956 40.5258 87.243C42.085 86.9151 43.6152 87.1407 45.159 87.2256C46.1984 87.2835 47.2166 87.2854 48.2619 87.0713C51.8942 86.3288 55.4357 85.3163 58.9038 83.9971C60.2814 83.4744 61.7885 83.297 63.2298 82.9363C63.8113 82.7898 64.3755 82.5718 64.8663 82.4118V82.4137ZM16.1003 56.603C16.1544 56.6338 16.2085 56.6647 16.2626 56.6975C17.389 57.6174 18.5154 58.5374 19.6419 59.4593C18.6565 60.9173 17.6982 62.3348 16.7205 63.7832C16.4327 63.5537 16.0791 63.2741 15.6888 62.9655C16.5718 61.5133 17.4258 60.1092 18.2797 58.7052C18.2353 58.6493 18.1909 58.5933 18.1464 58.5393C17.9165 58.7052 17.6363 58.8286 17.4663 59.0408C16.6162 60.1131 15.797 61.2085 14.916 62.3638C14.1257 61.4747 13.3181 60.5644 12.6593 59.8219C13.4147 58.2307 14.1045 56.7766 14.8116 55.2857C15.2502 55.7351 15.6772 56.1691 16.1023 56.6049L16.1003 56.603ZM64.5707 34.9967C64.4625 34.5126 64.4219 34.1404 64.2963 33.799C63.9736 32.9215 63.6954 32.0131 63.253 31.1973C62.1208 29.1067 60.3703 27.5136 58.6218 25.9785C53.5462 21.5176 47.8001 18.7249 40.8137 19.5253C36.1496 20.0595 32.042 21.8628 28.7903 25.3382C24.4933 29.9302 23.7475 36.3081 26.8659 41.4151C28.4464 44.0033 30.7939 45.7391 33.4022 47.1315C35.6763 48.3466 38.0257 49.4208 40.3365 50.5703C44.446 52.6165 48.1943 55.1507 51.2083 58.6589C53.4206 61.2336 55.3121 64.0359 57.0046 66.9732C59.2033 70.7899 60.8668 74.8439 62.3642 78.975C62.739 80.0087 63.1564 81.027 63.5524 82.0511C62.1034 82.3713 60.6833 82.5641 59.3463 83.0039C55.6444 84.2227 51.9213 85.3452 48.0861 86.0704C47.1432 86.2478 46.6814 85.9026 46.4593 84.9633C46.0632 83.2912 45.7328 81.5805 45.1261 79.9817C43.992 77.002 41.8512 74.6992 39.6081 72.5025C36.2617 69.2239 32.3821 66.6472 28.485 64.086C25.27 61.9742 22.0125 59.9009 18.9714 57.5557C12.5009 52.5664 8.30822 46.119 7.24557 37.8935C6.67947 33.5097 7.06975 29.1896 8.51496 24.9833C9.74956 21.3922 11.9773 18.4646 14.7459 15.9612C19.7133 11.4714 24.9976 7.38464 30.9388 4.23328C34.4146 2.38952 38.1223 1.27671 42.0889 1.09735C47.1625 0.867841 52.0044 1.90351 56.6742 3.79548C64.107 6.80606 70.5911 11.2959 76.4743 16.6787C78.7638 18.7731 80.9451 20.9872 82.6627 23.5966C83.3583 24.6554 83.9379 25.7721 84.2471 27.0893C77.8055 29.9803 71.248 32.474 64.5707 34.9986V34.9967ZM46.78 24.0865C47.9644 23.3362 49.0231 22.6612 50.0916 21.9997C50.1863 21.9419 50.3601 21.9322 50.4625 21.9785C51.3107 22.3507 52.1512 22.7422 53.1655 23.2051C52.1415 23.8107 51.3011 24.3044 50.4645 24.8059C50.0162 25.0739 49.6086 25.3767 49.6955 26.1019C49.9641 25.992 50.1805 25.9457 50.3447 25.828C51.2624 25.1665 52.1589 24.478 53.0825 23.8261C53.266 23.695 53.5829 23.5561 53.7452 23.6275C54.3576 23.8955 54.9315 24.2485 55.6135 24.6207C55.2908 24.856 55.1672 24.9466 55.0455 25.0373C54.0949 25.7354 53.1346 26.4182 52.2072 27.1453C52.0527 27.2668 52.0411 27.5715 51.9618 27.7914C52.1744 27.7682 52.4429 27.8164 52.5936 27.7065C53.7316 26.8695 54.8484 26.0016 56.0366 25.0932C56.5699 25.5156 57.1611 25.9823 57.8122 26.4973C57.5842 26.6573 57.4335 26.7711 57.2732 26.8733C56.1158 27.6139 54.9527 28.3487 53.7993 29.097C53.5616 29.2513 53.1539 29.4018 53.4553 29.7682C53.5462 29.8781 53.9886 29.8318 54.1741 29.7103C55.5323 28.8155 56.8674 27.882 58.274 26.9158C58.6372 27.2648 59.0719 27.6834 59.5356 28.1308C57.8818 29.2243 56.2897 30.2754 54.6532 31.3574C52.1821 28.8926 50.0259 25.9804 46.78 24.0865ZM6.12689 32.368C5.96846 32.8906 5.9704 33.583 5.62455 33.9051C4.40154 35.043 3.05874 36.0478 1.77196 37.1182C1.6599 37.2107 1.54398 37.4884 1.59035 37.5405C1.69661 37.664 1.93233 37.797 2.06178 37.7565C2.38637 37.6524 2.72448 37.5058 2.97759 37.284C3.82771 36.5376 4.64498 35.7527 5.47385 34.9832C5.60137 34.8655 5.73275 34.7498 5.93175 34.5685C5.96267 35.1317 6.00131 35.5637 5.99938 35.9957C5.99938 36.1461 5.94335 36.3525 5.83515 36.4374C4.44018 37.5386 3.02975 38.6205 1.5034 39.8028C1.32179 38.3062 1.15563 36.933 0.993333 35.581C3.10511 35.043 4.2547 33.2841 6.12496 32.368H6.12689ZM59.8931 28.503C60.3664 29.0025 60.8939 29.5599 61.4349 30.1308C59.9336 31.0121 58.5058 31.8415 57.0877 32.6862C55.9458 33.367 55.996 33.4866 55.1421 32.204C55.1189 32.1693 55.1131 32.123 55.0783 32.015C56.651 30.8675 58.2392 29.7084 59.8931 28.5011V28.503ZM37.4016 79.6423C38.5164 78.0647 39.5733 76.5681 40.6495 75.0425C41.0552 75.5266 41.4822 76.0338 41.8126 76.4292C40.806 78.1437 39.865 79.7464 38.8256 81.515C38.3058 80.8342 37.8827 80.2768 37.3997 79.6423H37.4016ZM37.05 71.5768C37.5929 72.0744 38.1803 72.6105 38.7869 73.164C37.7552 74.4774 36.766 75.7368 35.742 77.0386C35.228 76.4408 34.7527 75.8911 34.4165 75.5015C35.3188 74.1554 36.1593 72.9037 37.048 71.5768H37.05ZM23.8963 62.4216C23.3766 63.1063 22.8665 63.7061 22.4376 64.3599C22.0087 65.0137 21.6628 65.7196 21.259 66.4409C20.7084 66.1632 20.1307 65.87 19.609 65.6058C20.434 64.0976 21.232 62.6376 22.0434 61.1545C22.6617 61.5769 23.2549 61.9819 23.8982 62.4216H23.8963ZM20.0515 59.7081C20.5751 60.0919 21.0465 60.439 21.572 60.8247C20.6659 62.2943 19.7829 63.7273 18.8652 65.2162C18.4131 64.9211 17.9436 64.6145 17.4741 64.3098C18.3319 62.7784 19.1685 61.2837 20.0515 59.7081ZM1.02618 34.7595C1.09959 34.0767 1.14597 33.5444 1.22132 33.016C1.23677 32.9099 1.33917 32.7884 1.43578 32.7286C2.60469 31.9822 3.78134 31.2455 4.95412 30.5049C5.35985 30.2484 5.76559 29.99 6.27566 29.6679C6.20997 30.2812 6.17906 30.7151 6.10757 31.1433C6.08246 31.2976 5.99937 31.4904 5.87958 31.5734C4.62759 32.4393 3.36594 33.2918 2.10042 34.1384C1.80287 34.3371 1.47829 34.4991 1.02425 34.7614L1.02618 34.7595ZM9.42111 55.683C10.1939 54.3021 10.9262 52.9965 11.6836 51.6445C11.9753 52.009 12.2014 52.3562 12.4893 52.6377C12.8892 53.0293 12.8699 53.3803 12.582 53.8335C12.1743 54.4757 11.8304 55.1565 11.4653 55.8238C11.2179 56.2751 10.9803 56.7322 10.704 57.2529C10.2364 56.6801 9.82878 56.1806 9.42111 55.6811V55.683ZM24.1475 62.8151C24.7677 63.1487 25.3319 63.4534 25.8245 63.7177C24.9764 64.9558 24.1629 66.1458 23.3283 67.3666C22.9206 67.1795 22.5071 66.9905 21.9584 66.7398C22.7255 65.3666 23.4635 64.0436 24.1475 62.8151ZM10.0278 49.6445C10.1437 49.6928 10.2596 49.741 10.3756 49.7892C10.6403 50.1595 10.9243 50.5182 11.1581 50.9078C11.2392 51.0428 11.2643 51.3051 11.187 51.4247C10.4161 52.603 9.61818 53.7621 8.81056 54.954C8.62508 54.7284 8.49177 54.522 8.31595 54.3639C7.89475 53.982 7.96817 53.6483 8.25992 53.1932C8.69271 52.5182 9.02503 51.7776 9.38246 51.0563C9.61238 50.5934 9.81332 50.1151 10.0278 49.6426V49.6445ZM40.2147 74.5951C39.1405 76.0531 38.0933 77.4726 37.048 78.892C36.793 78.516 36.5051 78.0917 36.2868 77.7715C37.2857 76.327 38.2266 74.9654 39.1965 73.5594C39.5598 73.9297 39.8747 74.2499 40.2128 74.5951H40.2147ZM33.095 68.5199C32.27 69.6771 31.4643 70.8034 30.6277 71.9741C30.3862 71.7889 30.1814 71.6346 29.9785 71.4765C29.7795 71.3203 29.5844 71.1602 29.4182 71.0271C29.6907 70.6491 29.9611 70.3348 30.164 69.9799C30.4442 69.49 30.6335 68.9442 30.933 68.4679C31.4643 67.6193 31.7676 67.5749 32.5598 68.1226C32.7356 68.2441 32.9018 68.3753 33.095 68.5199ZM12.0797 59.0138C11.9599 58.8672 11.8285 58.6628 11.6565 58.5007C11.2914 58.1536 11.2759 57.8315 11.5213 57.3744C11.9135 56.6473 12.1879 55.8566 12.5356 55.1045C12.7578 54.6242 13.0245 54.1652 13.2969 53.6445C13.7142 54.117 14.0562 54.5047 14.4136 54.9077C13.6215 56.3021 12.8506 57.6579 12.0797 59.0138ZM6.57514 27.3478C6.61764 27.396 6.66015 27.4461 6.70265 27.4943C6.6273 27.8762 6.579 28.2677 6.46308 28.638C6.40705 28.8155 6.24861 29.0006 6.08632 29.099C5.4352 29.4924 4.76091 29.8453 4.10206 30.2253C3.25194 30.7171 2.40762 31.2204 1.5575 31.7219C1.50727 30.7634 1.84924 30.1558 2.69164 29.7065C4.02671 28.9967 5.2845 28.1404 6.5732 27.3478H6.57514ZM8.29856 45.9377C8.82602 46.5973 8.89751 47.2762 8.31015 48.0438C7.87737 48.6108 7.59335 49.2897 7.21273 49.901C6.92098 50.3716 6.58093 50.8113 6.22157 51.3244C6.02836 51.0293 5.91243 50.8191 5.76559 50.632C5.40815 50.1749 5.43134 49.8162 5.82356 49.3282C6.69493 48.2463 7.4697 47.0872 8.29856 45.9377ZM35.2164 70.0782C35.3826 70.2094 35.6125 70.4389 35.8849 70.5951C36.4182 70.9018 36.4105 71.2682 36.0839 71.7099C35.315 72.7436 34.5479 73.7793 33.7674 74.8284C33.4524 74.516 33.1491 74.2171 32.8921 73.9625C33.6843 72.6395 34.4359 71.382 35.2164 70.0782ZM2.09269 27.0739C2.17191 26.2388 2.32647 25.7277 3.11284 25.3999C4.76477 24.7114 6.34715 23.855 8.09762 23.0007C7.78076 24.2967 7.77497 24.2813 6.82631 24.7287C5.82549 25.2031 4.84012 25.7104 3.84896 26.2041C3.30798 26.4741 2.76506 26.7403 2.09269 27.0739ZM2.04246 41.8896C3.98034 41.444 4.70487 39.5463 6.3684 38.5338C6.32783 39.0853 6.46307 39.662 6.23702 39.9108C5.08356 41.174 3.83737 42.3544 2.56798 43.6176C2.37671 42.9908 2.20862 42.4354 2.04246 41.8915V41.8896ZM39.7317 82.9209C39.6525 82.9113 39.5752 82.8997 39.496 82.8901C39.4825 82.5526 39.3511 82.161 39.4786 81.891C39.865 81.0694 40.3577 80.2999 40.7982 79.5034C41.2542 78.6818 41.7005 77.8544 42.2106 76.9191C42.5796 77.4861 42.8501 77.8988 43.0607 78.2209C41.913 79.8409 40.8214 81.3819 39.7317 82.9209ZM25.3802 68.4486C24.9454 68.2036 24.5687 67.9934 24.2499 67.814C24.8276 66.653 25.3686 65.5248 25.9656 64.4255C26.0429 64.2827 26.4447 64.2056 26.6476 64.2635C26.9954 64.3618 27.3065 64.5913 27.5885 64.7418C27.177 65.4418 26.8273 66.0436 26.4699 66.6395C26.1163 67.2335 25.7569 67.8237 25.3782 68.4486H25.3802ZM31.389 67.3473C30.052 68.113 29.6675 69.519 28.9062 70.68C28.5295 70.4196 28.1218 70.138 27.7663 69.8931C28.4638 68.6781 29.1361 67.5035 29.7602 66.4177C30.2973 66.7244 30.8383 67.033 31.389 67.3473ZM34.7218 69.7022C33.8698 70.9133 33.0409 72.0917 32.183 73.3106C31.7928 72.9673 31.5223 72.7282 31.273 72.5064C32.0285 71.2335 32.7453 70.0242 33.4833 68.7784C33.9045 69.0927 34.2504 69.3492 34.7237 69.7022H34.7218ZM7.5605 43.9474C7.77496 44.5202 7.96045 45.0139 8.09762 45.3823C7.02725 46.7015 6.02835 47.9319 4.97923 49.2241C4.73385 48.74 4.55031 48.3813 4.40154 48.092C5.00435 47.3919 5.58397 46.7805 6.09211 46.1152C6.60025 45.4498 7.03691 44.7285 7.5605 43.9474ZM27.0707 69.3936C26.7577 69.2181 26.352 68.9886 25.954 68.7649C27.1017 67.7716 27.1886 66.2422 27.9054 65.2741C28.4387 65.5344 28.9217 65.7697 29.3738 65.9896C28.5797 67.1641 27.8378 68.2596 27.0727 69.3936H27.0707ZM10.2828 19.2341C9.85776 20.1675 9.31097 20.7384 8.25412 20.9043C7.08328 21.0875 5.95494 21.5523 4.80921 21.8917C4.74352 21.911 4.6701 21.9091 4.5619 21.9206C5.54534 20.1502 7.20307 19.8609 10.2847 19.2321L10.2828 19.2341ZM7.40207 53.0447C6.61764 52.1325 6.64662 52.1537 7.31126 51.3128C7.68415 50.8403 7.96624 50.2906 8.24639 49.7525C8.57292 49.1257 8.85307 48.4758 9.19312 47.7468C9.52737 48.3389 9.80752 48.8364 9.97948 49.1392C9.06946 50.5182 8.25026 51.7583 7.40014 53.0428L7.40207 53.0447ZM43.5804 79.1852C44.0441 79.8004 44.0422 79.8737 43.3718 80.7589C42.8192 81.488 42.2917 82.2363 41.714 82.9441C41.1982 83.5747 40.6263 84.1591 40.0099 84.8438C39.8592 84.2478 39.7897 83.8544 40.2882 83.5265C40.5625 83.3452 40.7248 82.9942 40.9335 82.7165C41.8358 81.515 42.7361 80.3134 43.5804 79.1871V79.1852ZM49.6511 21.7413C48.4918 22.3604 47.3577 22.964 46.1231 23.6217C45.8526 23.4597 45.4546 23.2205 45.0334 22.9679C47.7808 20.7307 47.746 20.9023 49.6511 21.7413ZM3.64609 46.4604C4.72226 44.9792 5.78491 43.5154 6.87654 42.0111C7.40787 43.1104 7.39241 43.1489 6.71038 43.9378C6.39739 44.3003 6.14814 44.715 5.84867 45.0891C5.26904 45.8085 4.67203 46.5163 4.03058 47.2935C3.85669 46.9155 3.74849 46.6802 3.64802 46.4604H3.64609ZM44.2142 80.5526C44.3243 80.8689 44.3803 81.1466 44.5117 81.3819C44.817 81.9335 44.674 82.3153 44.2103 82.7242C43.5263 83.3279 42.8791 83.9817 42.2821 84.6702C41.9324 85.0733 41.6155 85.1253 41.1595 84.8958C42.17 83.4571 43.1631 82.0453 44.2122 80.5526H44.2142ZM7.26103 25.1704C7.28035 26.0961 6.81472 26.4992 6.19838 26.8193C5.21108 27.3323 4.24117 27.8762 3.25967 28.3989C2.83075 28.6264 2.39023 28.8309 1.82799 29.1086C2.0753 28.6554 1.6657 28.1829 2.26851 27.9379C2.96986 27.6544 3.64222 27.2861 4.303 26.9158C5.26711 26.3738 6.21191 25.7933 7.26103 25.1723V25.1704ZM62.399 31.5117C61.004 32.5223 59.4873 33.2031 57.8644 33.664C57.6538 33.7238 57.4722 33.8877 57.2732 33.9976C57.1804 34.0497 57.0838 34.1037 56.9833 34.1288C56.9524 34.1365 56.8558 34.0343 56.8636 34.0092C56.9003 33.9012 56.9408 33.7643 57.0259 33.7064C58.4691 32.7344 59.9221 31.7797 61.3634 30.8058C61.6648 30.6014 61.8715 30.6149 62.0512 30.9331C62.1575 31.1202 62.2734 31.3034 62.399 31.5097V31.5117ZM46.9693 20.9428C46.1578 21.4153 45.3425 21.8975 44.5194 22.3623C44.3823 22.4394 44.1775 22.5127 44.0461 22.4664C43.509 22.2774 42.9873 22.0402 42.4907 21.8339C43.7698 20.2562 45.3502 20.4221 46.9674 20.9428H46.9693ZM62.7661 32.1404C62.9207 32.4702 63.1158 32.8887 63.3457 33.3766C61.8058 33.6659 60.5113 34.69 58.9773 34.1172C60.1829 33.4885 61.4426 32.8308 62.7661 32.1404ZM8.89558 21.3671C8.74101 22.1096 8.4396 22.3449 7.91987 22.4452C7.36922 22.5513 6.84177 22.7866 6.31237 22.9891C5.23234 23.4037 4.15809 23.8358 3.02589 24.2813C3.21717 23.7528 3.46254 23.4346 4.00739 23.288C4.60827 23.126 5.15698 22.7769 5.74241 22.5474C6.74516 22.154 7.75951 21.7914 8.89558 21.3671ZM3.13795 45.552C3.11863 45.1026 2.97372 44.6996 3.11284 44.5318C4.22572 43.201 5.39463 41.9127 6.54616 40.6128C6.61185 40.6379 6.67754 40.663 6.74323 40.688C6.68333 40.9677 6.70845 41.3168 6.54616 41.5135C5.48737 42.8114 4.38994 44.0785 3.13795 45.5501V45.552ZM7.3074 18.9853C7.29967 18.9371 7.29194 18.8889 7.28422 18.8387C7.42719 18.7461 7.5663 18.6439 7.717 18.5591C8.52461 18.1078 9.19505 17.2553 10.3099 17.6777C10.4297 17.722 10.6055 17.6333 10.7523 17.5909C11.075 17.4983 11.3938 17.3942 11.7145 17.2958C11.5174 17.7201 11.272 18.1965 10.9281 18.2852C9.7399 18.5899 8.51689 18.7616 7.30933 18.9834L7.3074 18.9853ZM6.14042 37.1085C6.09791 37.3534 6.15974 37.8221 5.9646 37.9841C4.64111 39.0931 3.2616 40.1364 1.80094 41.2801C1.85891 40.9657 1.81447 40.5877 1.9729 40.4547C3.33502 39.3187 4.73192 38.229 6.14042 37.1085ZM42.7149 85.4204C42.6782 85.3394 42.6395 85.2565 42.6028 85.1755C43.3312 84.3288 44.0577 83.4802 44.7861 82.6336L44.987 82.7107C44.9619 83.027 45.0546 83.4378 44.8904 83.6422C44.446 84.1996 43.907 84.6895 43.3737 85.1678C43.2095 85.3143 42.939 85.3394 42.7149 85.4204ZM10.5804 16.7076C11.216 16.0287 13.2756 15.1107 13.834 15.1859C13.1983 16.5051 11.8768 16.4588 10.5804 16.7076ZM40.0737 21.3016C40.8601 20.4009 41.8995 20.3932 43.1013 20.4992C42.1043 21.1878 41.2542 21.9303 40.0737 21.3016ZM13.8997 14.1078C15.086 13.3788 16.2742 12.6478 17.4605 11.9188C17.5011 11.9825 17.5397 12.0461 17.5803 12.1078C16.3341 12.7211 15.6946 14.2872 13.8997 14.1078ZM45.2517 84.1128C45.3425 84.7763 45.4024 85.214 45.47 85.7174C44.8923 85.7116 44.4306 85.7078 43.7988 85.7001C44.3185 85.133 44.7165 84.6972 45.2517 84.1128ZM63.9814 35.1452C63.2008 34.9465 62.6077 34.7942 62.0145 34.6418C62.0184 34.5994 62.0242 34.557 62.028 34.5145C62.5246 34.3274 63.0211 34.1423 63.5834 33.9321C63.707 34.3062 63.8113 34.6225 63.9814 35.1432V35.1452ZM37.3069 21.2881C38.0025 21.1338 38.6961 20.9814 39.4863 20.8059C39.1334 21.153 38.4069 21.3138 37.3069 21.2881Z" fill="#1A1A1A"/>
<path d="M72.3896 114.303C71.7463 114.08 71.7694 113.488 71.6806 112.984C71.4912 111.889 71.3946 110.776 71.1647 109.692C70.4923 106.529 69.7581 103.38 69.0761 100.219C68.8327 99.0886 68.709 97.9314 68.4463 96.807C68.3323 96.3171 68.0598 95.8388 67.7565 95.43C67.5845 95.1985 67.2136 95.0018 66.9238 94.9902C66.0775 94.9575 65.2293 95.05 64.3811 95.05C62.9842 95.05 61.5873 95.0346 60.1924 94.9845C59.0582 94.942 57.9241 94.8591 56.7958 94.755C55.6655 94.6508 54.5371 94.6431 53.5325 95.212C51.639 96.2843 49.5272 96.7106 47.4831 97.3374C46.376 97.6768 45.2457 97.9449 44.1155 98.1956C43.6788 98.292 43.2074 98.2824 42.7553 98.2631C41.8742 98.2265 41.5129 98.5563 41.6269 99.4106C41.681 99.8195 41.7544 100.248 41.9303 100.612C42.9987 102.834 43.3194 105.245 43.7754 107.623C44.243 110.068 44.7086 112.514 45.182 114.957C45.2322 115.214 45.3211 115.463 45.3945 115.713C45.7075 116.778 46.3142 117.515 47.4831 117.706C48.084 117.804 48.6655 118.024 49.2625 118.145C50.7251 118.442 52.0332 119.057 53.2368 119.929C53.403 120.049 53.6851 120.124 53.8764 120.076C57.0469 119.262 60.2136 118.423 63.3803 117.592C64.727 117.239 66.0679 116.843 67.428 116.552C69.4876 116.109 70.2914 115.781 72.3896 114.309V114.303ZM49.7224 99.5283C51.2217 99.4203 52.6611 99.347 54.0928 99.2043C56.8518 98.9285 59.493 98.1435 62.1129 97.2718C63.417 96.8379 64.7463 96.4811 66.0389 96.0163C66.8503 95.725 67.173 95.7636 67.4242 96.6006C67.656 97.3682 67.7237 98.184 67.8975 98.9709C69.0239 104.074 70.1581 109.175 71.3 114.321C70.9483 114.435 70.7281 114.518 70.502 114.577C68.4076 115.121 66.319 115.696 64.2111 116.19C63.1968 116.427 62.1496 116.598 61.1101 116.641C59.2881 116.714 57.4913 116.895 55.737 117.407C55.0917 117.594 54.4444 117.777 53.6638 117.999C53.1905 115.977 52.578 114.028 52.2998 112.03C51.8844 109.061 51.4516 106.115 50.5648 103.241C50.1938 102.039 50.0025 100.782 49.7243 99.5283H49.7224ZM52.5993 118.328C52.3017 118.118 51.9056 117.877 51.554 117.582C49.9175 116.213 48.3487 114.753 46.6407 113.48C45.8215 112.87 45.8968 112.126 45.7133 111.204C46.0707 111.463 46.3084 111.64 46.5518 111.808C48.2521 112.978 49.7784 114.417 51.7433 115.187C51.8515 115.229 51.9443 115.409 51.9752 115.542C52.1993 116.494 52.406 117.449 52.6012 118.328H52.5993ZM43.9474 103.185C44.0034 103.158 44.0575 103.131 44.1135 103.104C44.3318 103.364 44.5502 103.625 44.7704 103.885C46.4977 105.922 48.3158 107.858 50.6536 109.227C50.7676 109.295 50.8855 109.445 50.9029 109.573C50.9724 110.07 51.0014 110.573 51.0439 111.058C48.9264 109.428 46.8513 107.835 44.784 106.23C44.6603 106.136 44.5714 105.954 44.5347 105.798C44.328 104.93 44.1406 104.057 43.9474 103.185ZM44.9752 107.877C45.1356 107.9 45.1858 107.893 45.2167 107.914C47.2029 109.364 49.1872 110.815 51.1695 112.271C51.2313 112.315 51.27 112.411 51.2893 112.491C51.4207 113.054 51.5424 113.617 51.668 114.182C51.6197 114.213 51.5695 114.244 51.5211 114.275C51.4245 114.199 51.3279 114.124 51.2294 114.051C49.3727 112.676 47.5121 111.302 45.6631 109.92C45.5201 109.812 45.3887 109.634 45.3404 109.463C45.2013 108.965 45.1066 108.454 44.9791 107.877H44.9752ZM43.6324 99.6054C43.7503 99.9526 43.7696 100.294 43.9493 100.479C44.6584 101.21 45.4235 101.887 46.1557 102.595C47.4193 103.814 48.5399 105.198 50.1726 105.981C50.2421 106.014 50.331 106.08 50.3464 106.145C50.5126 106.845 50.6652 107.551 50.8198 108.253C47.456 105.866 45.0313 102.743 42.7012 99.4338C43.105 99.5071 43.4238 99.5649 43.6324 99.6035V99.6054ZM44.9752 99.9063C45.0023 99.86 45.0274 99.8118 45.0544 99.7655C45.3501 99.8523 45.7152 99.8581 45.9278 100.041C46.9131 100.89 47.8386 101.81 48.822 102.662C49.5601 103.303 49.9871 104.151 49.9929 105.274C48.3004 103.465 46.6388 101.684 44.9752 99.9063ZM58.5288 97.1137C58.5288 97.1889 58.5288 97.2622 58.5288 97.3374C57.9434 97.4107 57.271 97.7 56.7919 97.511C55.9765 97.1889 55.2829 96.5621 54.3884 95.9623C56.0171 95.8523 57.2537 96.5505 58.5288 97.1137ZM56.0268 97.781C54.3285 98.2785 53.6329 98.1127 52.3404 96.9594C52.7384 96.8263 53.1576 96.5274 53.4436 96.6219C54.2782 96.8976 55.0607 97.3335 56.0268 97.781ZM48.1342 98.4039C48.1284 98.3808 48.1207 98.3576 48.1149 98.3345C48.8355 98.1146 49.5717 97.9391 50.2711 97.6672C51.2526 97.2853 52.0061 97.727 52.7654 98.2959C51.2217 98.3325 49.6779 98.3692 48.1361 98.4058L48.1342 98.4039ZM46.9672 99.8079C47.5198 99.7115 47.8811 99.6305 48.2463 99.5939C48.368 99.5823 48.5902 99.6575 48.6114 99.7366C48.7679 100.319 48.8877 100.911 49.0172 101.499C48.9708 101.519 48.9264 101.538 48.88 101.557C48.281 101.009 47.684 100.464 46.9672 99.8079ZM58.552 96.0683C59.7171 96.0548 60.8396 96.0413 61.9641 96.0298C60.8589 96.4271 59.7692 97.3277 58.552 96.0683ZM47.1237 115.374C47.9603 115.95 48.6539 116.429 49.3475 116.907C47.541 116.745 47.1913 116.519 47.1237 115.374Z" fill="#1A1A1A"/>
<path d="M16.1004 56.6011C15.9845 56.6551 15.8241 56.6763 15.7604 56.7669C15.0918 57.6985 14.4214 58.6319 13.7973 59.5924C13.7123 59.7235 13.865 60.0089 13.9094 60.2249C14.1007 60.1285 14.3557 60.0803 14.4716 59.926C14.7731 59.5287 15.0377 59.0967 15.2754 58.657C15.6232 58.0128 15.9362 57.3513 16.2627 56.6975C16.2086 56.6666 16.1545 56.6358 16.1004 56.603V56.6011Z" fill="#1A1A1A"/>
</svg>
