<svg width="1072" height="207" viewBox="0 0 1072 207" fill="none" xmlns="http://www.w3.org/2000/svg">
<path d="M96.6612 156.163H134.824V194.802H96.6612V156.163ZM115.743 166.18C92.6329 166.18 74.0286 164.166 59.9296 160.138C45.8306 156.003 35.5478 149.961 29.0814 142.01C22.7209 133.954 19.5407 123.989 19.5407 112.116C19.5407 100.243 22.7209 90.3318 29.0814 82.3812C35.5478 74.3246 45.8306 68.2822 59.9296 64.2539C74.0286 60.1196 92.6329 58.0525 115.743 58.0525C138.852 58.0525 157.457 60.1196 171.556 64.2539C185.655 68.2822 195.884 74.3246 202.245 82.3812C208.711 90.3318 211.944 100.243 211.944 112.116C211.944 123.989 208.711 133.954 202.245 142.01C195.884 149.961 185.655 156.003 171.556 160.138C157.457 164.166 138.852 166.18 115.743 166.18ZM115.743 135.968C126.661 135.968 136.096 135.332 144.047 134.06C151.997 132.682 158.146 130.297 162.492 126.904C166.838 123.406 169.011 118.477 169.011 112.116C169.011 105.756 166.838 100.88 162.492 97.4873C158.146 93.989 151.997 91.6039 144.047 90.3318C136.096 88.9537 126.661 88.2646 115.743 88.2646C104.824 88.2646 95.2301 88.9537 86.9615 90.3318C78.7989 91.6039 72.3855 93.989 67.7211 97.4873C63.1628 100.88 60.8837 105.756 60.8837 112.116C60.8837 118.477 63.1628 123.406 67.7211 126.904C72.3855 130.297 78.7989 132.682 86.9615 134.06C95.2301 135.332 104.824 135.968 115.743 135.968ZM359.519 163H321.357V85.0844H359.519V163ZM322.947 122.77L323.265 130.403C322.947 132.629 321.887 135.226 320.085 138.194C318.389 141.162 316.003 144.237 312.929 147.417C309.855 150.597 306.092 153.565 301.639 156.322C297.187 158.972 292.099 161.145 286.374 162.841C280.65 164.537 274.289 165.385 267.293 165.385C260.296 165.385 253.671 164.643 247.416 163.159C241.162 161.781 235.597 159.449 230.72 156.163C225.844 152.876 222.028 148.477 219.271 142.965C216.515 137.346 215.137 130.35 215.137 121.975V85.0844H253.3V118C253.3 123.83 254.254 128.336 256.162 131.516C258.176 134.696 261.303 136.922 265.544 138.194C269.784 139.36 275.243 139.943 281.922 139.943C288.176 139.943 293.954 139.042 299.254 137.24C304.661 135.332 309.378 133.053 313.406 130.403C317.54 127.752 320.721 125.208 322.947 122.77ZM402.301 44.2185V68.0702H361.912V44.2185H402.301ZM363.025 85.0844H401.188V163H363.025V85.0844ZM529.551 108.936L443.526 145.986L442.095 139.148H530.505V163H407.112V139.148L492.501 102.099L493.933 108.936H407.112V85.0844H529.551V108.936ZM607.703 165.385C590.848 165.385 576.802 164.007 565.565 161.251C554.434 158.495 546.059 154.095 540.441 148.053C534.929 142.01 532.172 134.06 532.172 124.201C532.172 114.343 534.929 106.392 540.441 100.35C546.059 94.2011 554.434 89.7487 565.565 86.9925C576.802 84.1303 590.848 82.6992 607.703 82.6992C624.452 82.6992 638.339 84.1303 649.364 86.9925C660.495 89.7487 668.816 94.2011 674.329 100.35C679.841 106.392 682.597 114.343 682.597 124.201C682.597 134.06 679.841 142.01 674.329 148.053C668.816 154.095 660.495 158.495 649.364 161.251C638.339 164.007 624.452 165.385 607.703 165.385ZM607.703 142.329C615.547 142.329 622.12 141.692 627.42 140.42C632.721 139.042 636.749 137.028 639.505 134.378C642.261 131.622 643.639 128.23 643.639 124.201C643.639 120.173 642.261 116.781 639.505 114.024C636.855 111.268 632.88 109.201 627.579 107.823C622.279 106.445 615.653 105.756 607.703 105.756C599.858 105.756 593.18 106.445 587.667 107.823C582.261 109.201 578.127 111.268 575.264 114.024C572.508 116.675 571.13 120.067 571.13 124.201C571.13 128.23 572.508 131.622 575.264 134.378C578.021 137.028 582.102 139.042 587.508 140.42C593.021 141.692 599.752 142.329 607.703 142.329ZM778.739 165.385C769.199 165.385 760.612 164.431 752.98 162.523C745.347 160.509 738.828 157.7 733.421 154.095C728.015 150.385 723.88 145.986 721.018 140.897C718.156 135.809 716.725 130.191 716.725 124.042C716.725 117.894 718.156 112.328 721.018 107.346C723.88 102.258 728.015 97.9113 733.421 94.3071C738.828 90.5968 745.347 87.7876 752.98 85.8795C760.612 83.8653 769.199 82.8583 778.739 82.8583C790.188 82.8583 800.365 84.5014 809.27 87.7876C818.28 90.9678 825.33 95.6322 830.418 101.781C835.506 107.929 838.051 115.35 838.051 124.042C838.051 133.159 835.506 140.791 830.418 146.94C825.33 153.088 818.28 157.7 809.27 160.774C800.365 163.848 790.188 165.385 778.739 165.385ZM764.428 141.056C771.637 141.056 777.785 140.42 782.874 139.148C787.962 137.876 791.831 136.021 794.482 133.583C797.132 131.039 798.457 127.858 798.457 124.042C798.457 118.424 795.489 114.183 789.552 111.321C783.616 108.459 775.241 107.028 764.428 107.028C756.372 107.028 748.951 107.505 742.167 108.459C735.488 109.413 730.082 111.162 725.948 113.706C721.919 116.145 719.905 119.59 719.905 124.042C719.905 128.495 721.919 131.993 725.948 134.537C730.082 136.975 735.488 138.671 742.167 139.625C748.951 140.579 756.372 141.056 764.428 141.056ZM681.742 85.0844H717.679L719.905 115.297V194.802H681.742V85.0844ZM879.31 44.2185V68.0702H838.921V44.2185H879.31ZM840.035 85.0844H878.197V163H840.035V85.0844ZM939.458 165.226C928.009 165.226 917.832 163.636 908.927 160.456C900.023 157.17 892.973 152.452 887.779 146.304C882.691 140.155 880.146 132.735 880.146 124.042C880.146 114.926 882.691 107.293 887.779 101.145C892.973 94.9961 900.023 90.3848 908.927 87.3106C917.832 84.2364 928.009 82.6992 939.458 82.6992C952.179 82.6992 963.15 84.4484 972.373 87.9466C981.702 91.3389 988.857 96.1622 993.84 102.417C998.928 108.565 1001.47 115.774 1001.47 124.042C1001.47 130.191 1000.04 135.809 997.179 140.897C994.317 145.88 990.182 150.226 984.776 153.936C979.37 157.541 972.85 160.35 965.217 162.364C957.585 164.272 948.998 165.226 939.458 165.226ZM953.769 141.056C961.825 141.056 969.193 140.579 975.871 139.625C982.656 138.565 988.062 136.816 992.09 134.378C996.225 131.94 998.292 128.495 998.292 124.042C998.292 119.484 996.225 115.986 992.09 113.547C988.062 111.109 982.656 109.413 975.871 108.459C969.193 107.505 961.825 107.028 953.769 107.028C942.956 107.028 934.581 108.459 928.645 111.321C922.708 114.077 919.74 118.318 919.74 124.042C919.74 127.752 921.065 130.88 923.716 133.424C926.366 135.968 930.235 137.876 935.323 139.148C940.412 140.42 946.56 141.056 953.769 141.056ZM998.292 85.0844H1036.45V163H1000.52C1000.52 163 1000.31 161.781 999.882 159.343C999.564 156.905 999.193 153.406 998.769 148.848C998.451 144.29 998.292 138.936 998.292 132.788V85.0844Z" fill="#F3B6B5"/>
<path d="M91.6612 151.163H129.824V189.802H91.6612V151.163ZM110.743 161.18C87.6329 161.18 69.0286 159.166 54.9296 155.138C40.8306 151.003 30.5478 144.961 24.0814 137.01C17.7209 128.954 14.5407 118.989 14.5407 107.116C14.5407 95.2435 17.7209 85.3318 24.0814 77.3812C30.5478 69.3246 40.8306 63.2822 54.9296 59.2539C69.0286 55.1196 87.6329 53.0525 110.743 53.0525C133.852 53.0525 152.457 55.1196 166.556 59.2539C180.655 63.2822 190.884 69.3246 197.245 77.3812C203.711 85.3318 206.944 95.2435 206.944 107.116C206.944 118.989 203.711 128.954 197.245 137.01C190.884 144.961 180.655 151.003 166.556 155.138C152.457 159.166 133.852 161.18 110.743 161.18ZM110.743 130.968C121.661 130.968 131.096 130.332 139.047 129.06C146.997 127.682 153.146 125.297 157.492 121.904C161.838 118.406 164.011 113.477 164.011 107.116C164.011 100.756 161.838 95.8795 157.492 92.4873C153.146 88.989 146.997 86.6039 139.047 85.3318C131.096 83.9537 121.661 83.2646 110.743 83.2646C99.8238 83.2646 90.2301 83.9537 81.9615 85.3318C73.7989 86.6039 67.3855 88.989 62.7211 92.4873C58.1628 95.8795 55.8837 100.756 55.8837 107.116C55.8837 113.477 58.1628 118.406 62.7211 121.904C67.3855 125.297 73.7989 127.682 81.9615 129.06C90.2301 130.332 99.8238 130.968 110.743 130.968ZM354.519 158H316.357V80.0844H354.519V158ZM317.947 117.77L318.265 125.403C317.947 127.629 316.887 130.226 315.085 133.194C313.389 136.162 311.003 139.237 307.929 142.417C304.855 145.597 301.092 148.565 296.639 151.322C292.187 153.972 287.099 156.145 281.374 157.841C275.65 159.537 269.289 160.385 262.293 160.385C255.296 160.385 248.671 159.643 242.416 158.159C236.162 156.781 230.597 154.449 225.72 151.163C220.844 147.876 217.028 143.477 214.271 137.965C211.515 132.346 210.137 125.35 210.137 116.975V80.0844H248.3V113C248.3 118.83 249.254 123.336 251.162 126.516C253.176 129.696 256.303 131.922 260.544 133.194C264.784 134.36 270.243 134.943 276.922 134.943C283.176 134.943 288.954 134.042 294.254 132.24C299.661 130.332 304.378 128.053 308.406 125.403C312.54 122.752 315.721 120.208 317.947 117.77ZM397.301 39.2185V63.0702H356.912V39.2185H397.301ZM358.025 80.0844H396.188V158H358.025V80.0844ZM524.551 103.936L438.526 140.986L437.095 134.148H525.505V158H402.112V134.148L487.501 97.0986L488.933 103.936H402.112V80.0844H524.551V103.936ZM602.703 160.385C585.848 160.385 571.802 159.007 560.565 156.251C549.434 153.495 541.059 149.095 535.441 143.053C529.929 137.01 527.172 129.06 527.172 119.201C527.172 109.343 529.929 101.392 535.441 95.3495C541.059 89.2011 549.434 84.7487 560.565 81.9925C571.802 79.1303 585.848 77.6992 602.703 77.6992C619.452 77.6992 633.339 79.1303 644.364 81.9925C655.495 84.7487 663.816 89.2011 669.329 95.3495C674.841 101.392 677.597 109.343 677.597 119.201C677.597 129.06 674.841 137.01 669.329 143.053C663.816 149.095 655.495 153.495 644.364 156.251C633.339 159.007 619.452 160.385 602.703 160.385ZM602.703 137.329C610.547 137.329 617.12 136.692 622.42 135.42C627.721 134.042 631.749 132.028 634.505 129.378C637.261 126.622 638.639 123.23 638.639 119.201C638.639 115.173 637.261 111.781 634.505 109.024C631.855 106.268 627.88 104.201 622.579 102.823C617.279 101.445 610.653 100.756 602.703 100.756C594.858 100.756 588.18 101.445 582.667 102.823C577.261 104.201 573.127 106.268 570.264 109.024C567.508 111.675 566.13 115.067 566.13 119.201C566.13 123.23 567.508 126.622 570.264 129.378C573.021 132.028 577.102 134.042 582.508 135.42C588.021 136.692 594.752 137.329 602.703 137.329ZM773.739 160.385C764.199 160.385 755.612 159.431 747.98 157.523C740.347 155.509 733.828 152.7 728.421 149.095C723.015 145.385 718.88 140.986 716.018 135.897C713.156 130.809 711.725 125.191 711.725 119.042C711.725 112.894 713.156 107.328 716.018 102.346C718.88 97.2576 723.015 92.9113 728.421 89.3071C733.828 85.5968 740.347 82.7876 747.98 80.8795C755.612 78.8653 764.199 77.8583 773.739 77.8583C785.188 77.8583 795.365 79.5014 804.27 82.7876C813.28 85.9678 820.33 90.6322 825.418 96.7806C830.506 102.929 833.051 110.35 833.051 119.042C833.051 128.159 830.506 135.791 825.418 141.94C820.33 148.088 813.28 152.7 804.27 155.774C795.365 158.848 785.188 160.385 773.739 160.385ZM759.428 136.056C766.637 136.056 772.785 135.42 777.874 134.148C782.962 132.876 786.831 131.021 789.482 128.583C792.132 126.039 793.457 122.858 793.457 119.042C793.457 113.424 790.489 109.183 784.552 106.321C778.616 103.459 770.241 102.028 759.428 102.028C751.372 102.028 743.951 102.505 737.167 103.459C730.488 104.413 725.082 106.162 720.948 108.706C716.919 111.145 714.905 114.59 714.905 119.042C714.905 123.495 716.919 126.993 720.948 129.537C725.082 131.975 730.488 133.671 737.167 134.625C743.951 135.579 751.372 136.056 759.428 136.056ZM676.742 80.0844H712.679L714.905 110.297V189.802H676.742V80.0844ZM874.31 39.2185V63.0702H833.921V39.2185H874.31ZM835.035 80.0844H873.197V158H835.035V80.0844ZM934.458 160.226C923.009 160.226 912.832 158.636 903.927 155.456C895.023 152.17 887.973 147.452 882.779 141.304C877.691 135.155 875.146 127.735 875.146 119.042C875.146 109.926 877.691 102.293 882.779 96.1446C887.973 89.9961 895.023 85.3848 903.927 82.3106C912.832 79.2364 923.009 77.6992 934.458 77.6992C947.179 77.6992 958.15 79.4484 967.373 82.9466C976.702 86.3389 983.857 91.1622 988.84 97.4167C993.928 103.565 996.472 110.774 996.472 119.042C996.472 125.191 995.041 130.809 992.179 135.897C989.317 140.88 985.182 145.226 979.776 148.936C974.37 152.541 967.85 155.35 960.217 157.364C952.585 159.272 943.998 160.226 934.458 160.226ZM948.769 136.056C956.825 136.056 964.193 135.579 970.871 134.625C977.656 133.565 983.062 131.816 987.09 129.378C991.225 126.94 993.292 123.495 993.292 119.042C993.292 114.484 991.225 110.986 987.09 108.547C983.062 106.109 977.656 104.413 970.871 103.459C964.193 102.505 956.825 102.028 948.769 102.028C937.956 102.028 929.581 103.459 923.645 106.321C917.708 109.077 914.74 113.318 914.74 119.042C914.74 122.752 916.065 125.88 918.716 128.424C921.366 130.968 925.235 132.876 930.323 134.148C935.412 135.42 941.56 136.056 948.769 136.056ZM993.292 80.0844H1031.45V158H995.518C995.518 158 995.306 156.781 994.882 154.343C994.564 151.905 994.193 148.406 993.769 143.848C993.451 139.29 993.292 133.936 993.292 127.788V80.0844Z" fill="#B1DDCB"/>
<path d="M86.6612 146.163H124.824V184.802H86.6612V146.163ZM105.743 156.18C82.6329 156.18 64.0286 154.166 49.9296 150.138C35.8306 146.003 25.5478 139.961 19.0814 132.01C12.7209 123.954 9.54068 113.989 9.54068 102.116C9.54068 90.2435 12.7209 80.3318 19.0814 72.3812C25.5478 64.3246 35.8306 58.2822 49.9296 54.2539C64.0286 50.1196 82.6329 48.0525 105.743 48.0525C128.852 48.0525 147.457 50.1196 161.556 54.2539C175.655 58.2822 185.884 64.3246 192.245 72.3812C198.711 80.3318 201.944 90.2435 201.944 102.116C201.944 113.989 198.711 123.954 192.245 132.01C185.884 139.961 175.655 146.003 161.556 150.138C147.457 154.166 128.852 156.18 105.743 156.18ZM105.743 125.968C116.661 125.968 126.096 125.332 134.047 124.06C141.997 122.682 148.146 120.297 152.492 116.904C156.838 113.406 159.011 108.477 159.011 102.116C159.011 95.7559 156.838 90.8795 152.492 87.4873C148.146 83.989 141.997 81.6039 134.047 80.3318C126.096 78.9537 116.661 78.2646 105.743 78.2646C94.8238 78.2646 85.2301 78.9537 76.9615 80.3318C68.7989 81.6039 62.3855 83.989 57.7211 87.4873C53.1628 90.8795 50.8837 95.7559 50.8837 102.116C50.8837 108.477 53.1628 113.406 57.7211 116.904C62.3855 120.297 68.7989 122.682 76.9615 124.06C85.2301 125.332 94.8238 125.968 105.743 125.968ZM349.519 153H311.357V75.0844H349.519V153ZM312.947 112.77L313.265 120.403C312.947 122.629 311.887 125.226 310.085 128.194C308.389 131.162 306.003 134.237 302.929 137.417C299.855 140.597 296.092 143.565 291.639 146.322C287.187 148.972 282.099 151.145 276.374 152.841C270.65 154.537 264.289 155.385 257.293 155.385C250.296 155.385 243.671 154.643 237.416 153.159C231.162 151.781 225.597 149.449 220.72 146.163C215.844 142.876 212.028 138.477 209.271 132.965C206.515 127.346 205.137 120.35 205.137 111.975V75.0844H243.3V108C243.3 113.83 244.254 118.336 246.162 121.516C248.176 124.696 251.303 126.922 255.544 128.194C259.784 129.36 265.243 129.943 271.922 129.943C278.176 129.943 283.954 129.042 289.254 127.24C294.661 125.332 299.378 123.053 303.406 120.403C307.54 117.752 310.721 115.208 312.947 112.77ZM392.301 34.2185V58.0702H351.912V34.2185H392.301ZM353.025 75.0844H391.188V153H353.025V75.0844ZM519.551 98.9361L433.526 135.986L432.095 129.148H520.505V153H397.112V129.148L482.501 92.0986L483.933 98.9361H397.112V75.0844H519.551V98.9361ZM597.703 155.385C580.848 155.385 566.802 154.007 555.565 151.251C544.434 148.495 536.059 144.095 530.441 138.053C524.929 132.01 522.172 124.06 522.172 114.201C522.172 104.343 524.929 96.3919 530.441 90.3495C536.059 84.2011 544.434 79.7487 555.565 76.9925C566.802 74.1303 580.848 72.6992 597.703 72.6992C614.452 72.6992 628.339 74.1303 639.364 76.9925C650.495 79.7487 658.816 84.2011 664.329 90.3495C669.841 96.3919 672.597 104.343 672.597 114.201C672.597 124.06 669.841 132.01 664.329 138.053C658.816 144.095 650.495 148.495 639.364 151.251C628.339 154.007 614.452 155.385 597.703 155.385ZM597.703 132.329C605.547 132.329 612.12 131.692 617.42 130.42C622.721 129.042 626.749 127.028 629.505 124.378C632.261 121.622 633.639 118.23 633.639 114.201C633.639 110.173 632.261 106.781 629.505 104.024C626.855 101.268 622.88 99.2011 617.579 97.823C612.279 96.4449 605.653 95.7559 597.703 95.7559C589.858 95.7559 583.18 96.4449 577.667 97.823C572.261 99.2011 568.127 101.268 565.264 104.024C562.508 106.675 561.13 110.067 561.13 114.201C561.13 118.23 562.508 121.622 565.264 124.378C568.021 127.028 572.102 129.042 577.508 130.42C583.021 131.692 589.752 132.329 597.703 132.329ZM768.739 155.385C759.199 155.385 750.612 154.431 742.98 152.523C735.347 150.509 728.828 147.7 723.421 144.095C718.015 140.385 713.88 135.986 711.018 130.897C708.156 125.809 706.725 120.191 706.725 114.042C706.725 107.894 708.156 102.328 711.018 97.346C713.88 92.2576 718.015 87.9113 723.421 84.3071C728.828 80.5968 735.347 77.7876 742.98 75.8795C750.612 73.8653 759.199 72.8583 768.739 72.8583C780.188 72.8583 790.365 74.5014 799.27 77.7876C808.28 80.9678 815.33 85.6322 820.418 91.7806C825.506 97.929 828.051 105.35 828.051 114.042C828.051 123.159 825.506 130.791 820.418 136.94C815.33 143.088 808.28 147.7 799.27 150.774C790.365 153.848 780.188 155.385 768.739 155.385ZM754.428 131.056C761.637 131.056 767.785 130.42 772.874 129.148C777.962 127.876 781.831 126.021 784.482 123.583C787.132 121.039 788.457 117.858 788.457 114.042C788.457 108.424 785.489 104.183 779.552 101.321C773.616 98.4591 765.241 97.028 754.428 97.028C746.372 97.028 738.951 97.505 732.167 98.4591C725.488 99.4132 720.082 101.162 715.948 103.706C711.919 106.145 709.905 109.59 709.905 114.042C709.905 118.495 711.919 121.993 715.948 124.537C720.082 126.975 725.488 128.671 732.167 129.625C738.951 130.579 746.372 131.056 754.428 131.056ZM671.742 75.0844H707.679L709.905 105.297V184.802H671.742V75.0844ZM869.31 34.2185V58.0702H828.921V34.2185H869.31ZM830.035 75.0844H868.197V153H830.035V75.0844ZM929.458 155.226C918.009 155.226 907.832 153.636 898.927 150.456C890.023 147.17 882.973 142.452 877.779 136.304C872.691 130.155 870.146 122.735 870.146 114.042C870.146 104.926 872.691 97.293 877.779 91.1446C882.973 84.9961 890.023 80.3848 898.927 77.3106C907.832 74.2364 918.009 72.6992 929.458 72.6992C942.179 72.6992 953.15 74.4484 962.373 77.9466C971.702 81.3389 978.857 86.1622 983.84 92.4167C988.928 98.5651 991.472 105.774 991.472 114.042C991.472 120.191 990.041 125.809 987.179 130.897C984.317 135.88 980.182 140.226 974.776 143.936C969.37 147.541 962.85 150.35 955.217 152.364C947.585 154.272 938.998 155.226 929.458 155.226ZM943.769 131.056C951.825 131.056 959.193 130.579 965.871 129.625C972.656 128.565 978.062 126.816 982.09 124.378C986.225 121.94 988.292 118.495 988.292 114.042C988.292 109.484 986.225 105.986 982.09 103.547C978.062 101.109 972.656 99.4132 965.871 98.4591C959.193 97.505 951.825 97.028 943.769 97.028C932.956 97.028 924.581 98.4591 918.645 101.321C912.708 104.077 909.74 108.318 909.74 114.042C909.74 117.752 911.065 120.88 913.716 123.424C916.366 125.968 920.235 127.876 925.323 129.148C930.412 130.42 936.56 131.056 943.769 131.056ZM988.292 75.0844H1026.45V153H990.518C990.518 153 990.306 151.781 989.882 149.343C989.564 146.905 989.193 143.406 988.769 138.848C988.451 134.29 988.292 128.936 988.292 122.788V75.0844Z" fill="#1A1A1A"/>
<path d="M1035 16L1040.94 32.058L1057 38L1040.94 43.942L1035 60L1029.06 43.942L1013 38L1029.06 32.058L1035 16Z" fill="#1A1A1A"/>
<path d="M1049 0L1051.16 5.83927L1057 8L1051.16 10.1607L1049 16L1046.84 10.1607L1041 8L1046.84 5.83927L1049 0Z" fill="#1A1A1A"/>
<path d="M1062 14L1064.7 21.2991L1072 24L1064.7 26.7009L1062 34L1059.3 26.7009L1052 24L1059.3 21.2991L1062 14Z" fill="#1A1A1A"/>
</svg>
