<?xml version="1.0" encoding="UTF-8"?>
<svg id="Layer_2" data-name="Layer 2" xmlns="http://www.w3.org/2000/svg" viewBox="0 0 94 119.98">
  <defs>
    <style>
      .cls-1 {
        font-family: Montserrat-Black, Montserrat;
        font-size: 40.19px;
      }

      .cls-2 {
        fill: #fff;
      }

      .cls-3 {
        fill: #231f20;
      }
    </style>
  </defs>
  <g id="Layer_1-2" data-name="Layer 1">
    <g>
      <g>
        <path d="M19.83,118.4l-3.1-10.65c-.42-1.43-2.21-2.04-3.51-1.2l-9.62,6.31c-1.83,1.2-4.21-.52-3.45-2.5L34.11,21.97c.43-1.12,1.74-1.69,2.92-1.29l19.74,6.73c1.19,.4,1.8,1.64,1.37,2.75L24.18,118.56c-.76,1.97-3.76,1.86-4.35-.16Z"/>
        <path d="M90.58,111.31l-10.19-5.46c-1.37-.73-3.1,.03-3.38,1.49l-2.06,10.87c-.39,2.06-3.37,2.43-4.32,.53L28.27,33.61c-.54-1.08-.04-2.36,1.1-2.86l19.01-8.39c1.14-.5,2.5-.04,3.04,1.03l42.36,85.13c.95,1.9-1.26,3.82-3.2,2.78Z"/>
      </g>
      <g>
        <path class="cls-2" d="M86.07,42.5c0-4.21,3.86-8.94,2.55-12.73s-7.48-5.62-10.01-8.89-2.38-9.3-5.89-11.71-9.46-.39-13.64-1.67-7.61-6.2-12.08-6.2-8.05,4.97-12.08,6.2-10.16-.72-13.64,1.67-3.34,8.4-5.89,11.71-8.65,4.96-10.01,8.89,2.55,8.53,2.55,12.73-3.86,8.94-2.55,12.73,7.48,5.62,10.01,8.89,2.38,9.3,5.89,11.71,9.46,.39,13.64,1.67,7.61,6.2,12.08,6.2,8.05-4.97,12.08-6.2,10.16,.72,13.64-1.67,3.34-8.4,5.89-11.71,8.65-4.96,10.01-8.89-2.55-8.53-2.55-12.73Z"/>
        <path class="cls-3" d="M47,85c-3.06,0-5.56-1.82-7.98-3.59-1.57-1.15-3.06-2.23-4.52-2.68-1.56-.48-3.5-.43-5.56-.38-3,.07-6.1,.15-8.47-1.47-2.39-1.64-3.27-4.46-4.13-7.18-.58-1.84-1.12-3.58-2.07-4.81-.93-1.2-2.51-2.22-4.17-3.29-2.51-1.61-5.1-3.28-6.03-5.97-.89-2.57,.14-5.3,1.13-7.94,.67-1.77,1.35-3.6,1.35-5.19s-.69-3.42-1.35-5.19c-.99-2.64-2.02-5.37-1.13-7.94,.93-2.69,3.52-4.36,6.03-5.97,1.67-1.07,3.24-2.08,4.17-3.29,.95-1.23,1.49-2.97,2.07-4.81,.85-2.73,1.73-5.54,4.13-7.18,2.37-1.62,5.47-1.55,8.47-1.47,2.05,.05,3.99,.1,5.56-.38,1.46-.45,2.95-1.53,4.52-2.68,2.42-1.76,4.92-3.59,7.98-3.59s5.56,1.82,7.98,3.59c1.57,1.15,3.06,2.23,4.52,2.68,1.56,.48,3.5,.43,5.56,.38,3-.07,6.1-.15,8.47,1.47,2.39,1.64,3.27,4.46,4.13,7.18,.58,1.84,1.12,3.58,2.07,4.81,.93,1.2,2.51,2.22,4.17,3.29,2.51,1.61,5.1,3.28,6.03,5.97,.89,2.57-.14,5.3-1.13,7.94-.67,1.77-1.35,3.6-1.35,5.19s.69,3.42,1.35,5.19c.99,2.64,2.02,5.37,1.13,7.94-.93,2.69-3.52,4.36-6.03,5.97-1.67,1.07-3.24,2.08-4.17,3.29-.95,1.23-1.49,2.97-2.07,4.81-.85,2.73-1.73,5.54-4.13,7.18-2.37,1.62-5.47,1.55-8.47,1.47-2.05-.05-3.99-.1-5.56,.38-1.46,.45-2.95,1.53-4.52,2.68-2.42,1.76-4.92,3.59-7.98,3.59Zm-16.23-9.27c1.58,0,3.15,.1,4.58,.54,1.92,.59,3.67,1.86,5.36,3.09,2.15,1.57,4.18,3.04,6.3,3.04s4.15-1.48,6.3-3.04c1.69-1.23,3.43-2.5,5.36-3.09,2.01-.62,4.28-.56,6.48-.51,2.66,.07,5.17,.13,6.78-.98,1.64-1.12,2.35-3.4,3.11-5.82,.62-1.97,1.25-4.01,2.48-5.6,1.21-1.57,3.06-2.75,4.85-3.9,2.23-1.43,4.33-2.78,4.96-4.63,.6-1.74-.23-3.94-1.11-6.27-.74-1.98-1.51-4.02-1.51-6.06s.77-4.08,1.51-6.06c.88-2.33,1.71-4.54,1.11-6.27-.64-1.85-2.74-3.2-4.96-4.63-1.79-1.15-3.64-2.33-4.85-3.9-1.23-1.59-1.87-3.63-2.48-5.6-.76-2.42-1.47-4.7-3.11-5.82-1.61-1.1-4.12-1.04-6.78-.98-2.2,.05-4.47,.11-6.48-.51-1.92-.59-3.67-1.86-5.36-3.09-2.15-1.57-4.18-3.04-6.3-3.04s-4.15,1.48-6.3,3.04c-1.69,1.23-3.43,2.5-5.36,3.09-2.01,.62-4.28,.56-6.48,.51-2.66-.07-5.17-.13-6.78,.98-1.64,1.12-2.35,3.4-3.11,5.82-.62,1.97-1.25,4.01-2.48,5.6-1.21,1.57-3.06,2.75-4.85,3.9-2.23,1.43-4.33,2.78-4.96,4.63-.6,1.74,.23,3.94,1.11,6.27,.74,1.98,1.51,4.02,1.51,6.06s-.77,4.08-1.51,6.06c-.88,2.33-1.71,4.54-1.11,6.27,.64,1.85,2.74,3.2,4.96,4.63,1.79,1.15,3.64,2.33,4.85,3.9,1.23,1.59,1.87,3.63,2.48,5.6,.76,2.42,1.47,4.7,3.11,5.82,1.61,1.1,4.12,1.04,6.78,.98,.63-.02,1.26-.03,1.89-.03Z"/>
      </g>
      <text class="cls-1" transform="translate(33.76 56.34) scale(1.06 1)"><tspan x="0" y="0">2</tspan></text>
    </g>
  </g>
</svg>