<?xml version="1.0" encoding="UTF-8"?>
<svg id="Layer_2" data-name="Layer 2" xmlns="http://www.w3.org/2000/svg" viewBox="0 0 94 127.4">
  <defs>
    <style>
      .cls-1 {
        fill: #fff;
      }

      .cls-2 {
        fill: #231f20;
      }

      .cls-3 {
        font-family: Montserrat-Black, Montserrat;
        font-size: 42.67px;
      }
    </style>
  </defs>
  <g id="Layer_1-2" data-name="Layer 1">
    <g>
      <g>
        <path d="M19.83,125.72l-3.1-11.31c-.42-1.52-2.21-2.17-3.51-1.27l-9.62,6.7c-1.83,1.27-4.21-.56-3.45-2.65L34.11,23.32c.43-1.19,1.74-1.8,2.92-1.37l19.74,7.14c1.19,.43,1.8,1.74,1.37,2.92L24.18,125.89c-.76,2.09-3.76,1.98-4.35-.17Z"/>
        <path d="M90.58,118.19l-10.19-5.8c-1.37-.78-3.1,.03-3.38,1.58l-2.06,11.54c-.39,2.19-3.37,2.58-4.32,.57L28.27,35.69c-.54-1.14-.04-2.5,1.1-3.04l19.01-8.91c1.14-.54,2.5-.04,3.04,1.1l42.36,90.4c.95,2.02-1.26,4.05-3.2,2.95Z"/>
      </g>
      <g>
        <path class="cls-1" d="M86.07,45.13c0-4.47,3.86-9.49,2.55-13.52s-7.48-5.96-10.01-9.44-2.38-9.88-5.89-12.43-9.46-.41-13.64-1.77-7.61-6.58-12.08-6.58-8.05,5.27-12.08,6.58-10.16-.76-13.64,1.77c-3.51,2.56-3.34,8.92-5.89,12.43s-8.65,5.26-10.01,9.44,2.55,9.06,2.55,13.52-3.86,9.49-2.55,13.52,7.48,5.96,10.01,9.44,2.38,9.88,5.89,12.43,9.46,.41,13.64,1.77,7.61,6.58,12.08,6.58,8.05-5.27,12.08-6.58,10.16,.76,13.64-1.77c3.51-2.56,3.34-8.92,5.89-12.43s8.65-5.26,10.01-9.44-2.55-9.06-2.55-13.52Z"/>
        <path class="cls-2" d="M47,90.25c-3.06,0-5.56-1.94-7.98-3.81-1.57-1.22-3.06-2.37-4.52-2.84-1.56-.51-3.5-.46-5.56-.4-3,.08-6.1,.16-8.47-1.56-2.39-1.74-3.27-4.73-4.13-7.63-.58-1.96-1.12-3.8-2.07-5.11-.93-1.28-2.51-2.35-4.17-3.49-2.51-1.71-5.1-3.48-6.03-6.34-.89-2.73,.14-5.63,1.13-8.43,.67-1.88,1.35-3.82,1.35-5.52s-.69-3.64-1.35-5.52c-.99-2.8-2.02-5.7-1.13-8.43,.93-2.86,3.52-4.63,6.03-6.34,1.67-1.14,3.24-2.21,4.17-3.49,.95-1.3,1.49-3.15,2.07-5.11,.85-2.89,1.73-5.89,4.13-7.63,2.37-1.72,5.47-1.64,8.47-1.56,2.05,.05,3.99,.1,5.56-.4,1.46-.48,2.95-1.62,4.52-2.84,2.42-1.87,4.92-3.81,7.98-3.81s5.56,1.94,7.98,3.81c1.57,1.22,3.06,2.37,4.52,2.84,1.56,.51,3.5,.46,5.56,.4,3-.08,6.1-.16,8.47,1.56,2.39,1.74,3.27,4.73,4.13,7.63,.58,1.96,1.12,3.8,2.07,5.11,.93,1.28,2.51,2.35,4.17,3.49,2.51,1.71,5.1,3.48,6.03,6.34,.89,2.73-.14,5.63-1.13,8.43-.67,1.88-1.35,3.82-1.35,5.52s.69,3.64,1.35,5.52c.99,2.8,2.02,5.7,1.13,8.43-.93,2.86-3.52,4.63-6.03,6.34-1.67,1.14-3.24,2.21-4.17,3.49-.95,1.3-1.49,3.15-2.07,5.11-.85,2.89-1.73,5.89-4.13,7.63-2.37,1.72-5.47,1.64-8.47,1.56-2.05-.05-3.99-.1-5.56,.4-1.46,.48-2.95,1.62-4.52,2.84-2.42,1.87-4.92,3.81-7.98,3.81Zm-16.23-9.84c1.58,0,3.15,.1,4.58,.57,1.92,.62,3.67,1.98,5.36,3.28,2.15,1.66,4.18,3.23,6.3,3.23s4.15-1.57,6.3-3.23c1.69-1.31,3.43-2.66,5.36-3.28,2.01-.65,4.28-.59,6.48-.54,2.66,.07,5.17,.13,6.78-1.04,1.64-1.19,2.35-3.61,3.11-6.18,.62-2.09,1.25-4.26,2.48-5.95,1.21-1.66,3.06-2.92,4.85-4.14,2.23-1.52,4.33-2.95,4.96-4.91,.6-1.85-.23-4.18-1.11-6.66-.74-2.1-1.51-4.27-1.51-6.43s.77-4.34,1.51-6.43c.88-2.48,1.71-4.82,1.11-6.66-.64-1.96-2.74-3.4-4.96-4.91-1.79-1.22-3.64-2.48-4.85-4.14-1.23-1.69-1.87-3.86-2.48-5.95-.76-2.57-1.47-4.99-3.11-6.18-1.61-1.17-4.12-1.11-6.78-1.04-2.2,.06-4.47,.12-6.48-.54-1.92-.62-3.67-1.98-5.36-3.28-2.15-1.66-4.18-3.23-6.3-3.23s-4.15,1.57-6.3,3.23c-1.69,1.31-3.43,2.66-5.36,3.28-2.01,.65-4.28,.59-6.48,.54-2.66-.07-5.17-.13-6.78,1.04-1.64,1.19-2.35,3.61-3.11,6.18-.62,2.09-1.25,4.26-2.48,5.95-1.21,1.66-3.06,2.92-4.85,4.14-2.23,1.52-4.33,2.95-4.96,4.91-.6,1.85,.23,4.18,1.11,6.66,.74,2.1,1.51,4.27,1.51,6.43s-.77,4.34-1.51,6.43c-.88,2.48-1.71,4.82-1.11,6.66,.64,1.96,2.74,3.4,4.96,4.91,1.79,1.22,3.64,2.48,4.85,4.14,1.23,1.69,1.87,3.86,2.48,5.95,.76,2.57,1.47,4.99,3.11,6.18,1.61,1.17,4.12,1.11,6.78,1.04,.63-.02,1.26-.03,1.89-.03Z"/>
      </g>
      <text class="cls-3" transform="translate(33.77 59.82)"><tspan x="0" y="0">3</tspan></text>
    </g>
  </g>
</svg>